<?xml version="1.0" encoding="UTF-8" standalone="no"?>
<svg width="92px" height="91px" viewBox="0 0 92 91" version="1.1" xmlns="http://www.w3.org/2000/svg" xmlns:xlink="http://www.w3.org/1999/xlink" xmlns:sketch="http://www.bohemiancoding.com/sketch/ns">
    <!-- Generator: Sketch 3.5.2 (25235) - http://www.bohemiancoding.com/sketch -->
    <title>button_repas</title>
    <desc>Created with Sketch.</desc>
    <defs></defs>
    <g id="Page-1" stroke="none" stroke-width="1" fill="none" fill-rule="evenodd" sketch:type="MSPage">
        <g id="Conférence---Home" sketch:type="MSArtboardGroup" transform="translate(-930.000000, -2005.000000)">
            <g id="More" sketch:type="MSLayerGroup" transform="translate(0.000000, 1861.000000)">
                <g id="Rectangle-10-+-Repas-+-REPAS" transform="translate(864.000000, 124.000000)" sketch:type="MSShapeGroup">
                    <g id="button_repas">
                        <g id="Page-1" transform="translate(66.000000, 19.000000)">
                            <path d="M65.3609512,85.96503 C64.4163659,87.47613 62.882561,88.33403 61.4542195,88.15003 C60.3330976,88.00513 59.216561,87.23003 58.2284146,85.90753 C55.3212927,82.02053 51.508561,74.14073 47.8196341,66.52083 C44.4493902,59.56103 41.2648537,52.98533 38.6626585,49.12363 C38.3714878,48.69353 37.922122,48.43363 37.4452439,48.37153 C37.0531951,48.32093 36.6428049,48.40373 36.2851463,48.63603 C35.1204634,49.39043 32.2798293,51.09013 30.0352927,52.62653 C29.932122,52.69783 29.7532927,52.85423 29.663878,52.84273 C28.8476829,53.66153 28.5175366,52.40343 26.5091463,49.67103 C23.2764634,45.26653 14.1447073,19.40303 11.5035366,10.90683 C10.4787073,7.61093 11.5700244,9.42793 12.3724634,10.46523 C21.0502683,21.66393 62.3529512,76.46833 65.5420732,81.37193 C66.555439,82.92443 66.1129512,84.76443 65.3609512,85.96503 M7.26207317,1.84023 C6.48714634,2.60613 6.02173171,3.72393 7.64495122,10.42383 C8.61704878,14.43733 16.2012439,36.81633 18.7873902,43.24713 C24.0468049,56.32723 27.4124634,55.89483 29.3406098,56.14323 C30.2829024,56.26513 31.1976829,56.04433 31.9909512,55.50153 C34.1483659,54.02493 34.8659756,53.59483 35.7005122,53.09573 C35.9916829,52.92093 36.3034878,52.73463 36.6955366,52.49313 C39.0249024,56.32493 41.9045122,62.27043 44.6992927,68.04113 C48.4592927,75.80823 52.3476829,83.84213 55.4542683,87.99823 C57.430561,90.63863 59.5650488,91.41603 61.0117317,91.60233 C63.7767073,91.95883 66.6379756,90.47303 68.3001707,87.81423 C69.9852927,85.11863 70.0426098,81.91933 68.4469024,79.46753 C65.1637805,74.42133 17.104561,10.94363 9.89865854,2.22893 C8.89904878,1.01913 7.70685366,1.39863 7.26207317,1.84023" id="Fill-1" fill="#4D4C4C"></path>
                            <path d="M65.3609512,85.96503 C64.4163659,87.47613 62.882561,88.33403 61.4542195,88.15003 C60.3330976,88.00513 59.216561,87.23003 58.2284146,85.90753 C55.3212927,82.02053 51.508561,74.14073 47.8196341,66.52083 C44.4493902,59.56103 41.2648537,52.98533 38.6626585,49.12363 C38.3714878,48.69353 37.922122,48.43363 37.4452439,48.37153 C37.0531951,48.32093 36.6428049,48.40373 36.2851463,48.63603 C35.1204634,49.39043 32.2798293,51.09013 30.0352927,52.62653 C29.932122,52.69783 29.7532927,52.85423 29.663878,52.84273 C28.8476829,53.66153 28.5175366,52.40343 26.5091463,49.67103 C23.2764634,45.26653 14.1447073,19.40303 11.5035366,10.90683 C10.4787073,7.61093 11.5700244,9.42793 12.3724634,10.46523 C21.0502683,21.66393 62.3529512,76.46833 65.5420732,81.37193 C66.555439,82.92443 66.1129512,84.76443 65.3609512,85.96503 L65.3609512,85.96503 Z M7.26207317,1.84023 C6.48714634,2.60613 6.02173171,3.72393 7.64495122,10.42383 C8.61704878,14.43733 16.2012439,36.81633 18.7873902,43.24713 C24.0468049,56.32723 27.4124634,55.89483 29.3406098,56.14323 C30.2829024,56.26513 31.1976829,56.04433 31.9909512,55.50153 C34.1483659,54.02493 34.8659756,53.59483 35.7005122,53.09573 C35.9916829,52.92093 36.3034878,52.73463 36.6955366,52.49313 C39.0249024,56.32493 41.9045122,62.27043 44.6992927,68.04113 C48.4592927,75.80823 52.3476829,83.84213 55.4542683,87.99823 C57.430561,90.63863 59.5650488,91.41603 61.0117317,91.60233 C63.7767073,91.95883 66.6379756,90.47303 68.3001707,87.81423 C69.9852927,85.11863 70.0426098,81.91933 68.4469024,79.46753 C65.1637805,74.42133 17.104561,10.94363 9.89865854,2.22893 C8.89904878,1.01913 7.70685366,1.39863 7.26207317,1.84023 L7.26207317,1.84023 Z" id="Stroke-3" stroke="#4D4C4C" stroke-width="0.3"></path>
                            <path d="M38.6718293,60.70942 C37.9565122,60.07002 36.8583171,60.13672 36.2232439,60.85432 C29.2443171,68.73182 16.5795366,82.64682 12.3059756,86.44872 C10.1829512,88.33932 6.83563415,87.57802 5.04504878,85.67822 C3.16963415,83.69332 3.45392683,81.17712 5.81997561,78.77592 C11.8290976,72.68322 20.683439,65.70732 27.3597317,60.65652 C28.1254878,60.07692 28.2768049,58.98672 27.7013415,58.21852 C27.1235854,57.45032 26.0368537,57.29852 25.2710976,57.87812 C18.5076829,62.99332 9.52265854,70.07502 3.35534146,76.32872 C-1.13831707,80.88502 0.0997317073,85.50112 2.52539024,88.07022 C3.89641463,89.52152 5.83831707,90.56572 7.89943902,90.90842 C10.192122,91.29022 12.636122,90.80722 14.6078293,89.05232 C19.5462683,84.65702 33.7586098,68.87442 38.8162683,63.16352 C39.4513415,62.44822 39.3871463,61.34652 38.6718293,60.70942" id="Fill-5" fill="#4D4C4C"></path>
                            <path d="M38.6718293,60.70942 C37.9565122,60.07002 36.8583171,60.13672 36.2232439,60.85432 C29.2443171,68.73182 16.5795366,82.64682 12.3059756,86.44872 C10.1829512,88.33932 6.83563415,87.57802 5.04504878,85.67822 C3.16963415,83.69332 3.45392683,81.17712 5.81997561,78.77592 C11.8290976,72.68322 20.683439,65.70732 27.3597317,60.65652 C28.1254878,60.07692 28.2768049,58.98672 27.7013415,58.21852 C27.1235854,57.45032 26.0368537,57.29852 25.2710976,57.87812 C18.5076829,62.99332 9.52265854,70.07502 3.35534146,76.32872 C-1.13831707,80.88502 0.0997317073,85.50112 2.52539024,88.07022 C3.89641463,89.52152 5.83831707,90.56572 7.89943902,90.90842 C10.192122,91.29022 12.636122,90.80722 14.6078293,89.05232 C19.5462683,84.65702 33.7586098,68.87442 38.8162683,63.16352 C39.4513415,62.44822 39.3871463,61.34652 38.6718293,60.70942 L38.6718293,60.70942 Z" id="Stroke-7" stroke="#4D4C4C" stroke-width="0.3"></path>
                            <path d="M91.2226439,19.00858 C90.5554732,18.31858 89.457278,18.30248 88.7694732,18.97178 C84.3445951,23.27968 80.2154732,27.48178 76.897961,30.85818 C76.0496683,31.72068 75.2724488,32.50958 74.5708878,33.22258 L72.1154244,35.68128 C72.0374732,35.75718 71.959522,35.83308 71.8861561,35.90438 C70.7466927,37.01298 68.8093756,37.55808 66.7024,37.36028 C64.2698634,37.13258 61.9290341,35.97568 60.1201073,34.10578 C56.6421073,30.50858 54.2668878,25.40028 57.6440098,21.56848 L57.6325463,21.55698 C57.6325463,21.55698 57.7976195,21.37988 57.8343024,21.34308 L60.317278,18.91198 L75.3824976,4.24718 C76.0703024,3.58018 76.0863512,2.47848 75.4191805,1.78848 C74.7520098,1.09848 73.6538146,1.08238 72.9683024,1.75168 L55.6310341,18.62678 C51.199278,22.93928 51.5408878,29.27348 56.369278,35.11548 L46.5084488,44.85828 C45.8206439,45.52758 45.8045951,46.62928 46.4717659,47.31698 C46.7400098,47.59528 47.0793268,47.76318 47.4301073,47.82298 C47.9551317,47.91038 48.5122537,47.75628 48.9249366,47.35608 L58.7926439,37.60408 C60.7345463,39.22788 63.0318146,40.30198 65.4437171,40.70448 C65.755522,40.75738 66.0696195,40.79648 66.3837171,40.82638 C69.5315707,41.11848 72.4180585,40.23528 74.3026439,38.40218 C75.5063024,37.23148 77.2097659,35.49728 79.3671805,33.30078 C82.6732293,29.93818 86.7863024,25.75218 91.185961,21.46958 C91.8737659,20.80028 91.8898146,19.69858 91.2226439,19.00858" id="Fill-9" fill="#4D4C4C"></path>
                            <path d="M91.2226439,19.00858 C90.5554732,18.31858 89.457278,18.30248 88.7694732,18.97178 C84.3445951,23.27968 80.2154732,27.48178 76.897961,30.85818 C76.0496683,31.72068 75.2724488,32.50958 74.5708878,33.22258 L72.1154244,35.68128 C72.0374732,35.75718 71.959522,35.83308 71.8861561,35.90438 C70.7466927,37.01298 68.8093756,37.55808 66.7024,37.36028 C64.2698634,37.13258 61.9290341,35.97568 60.1201073,34.10578 C56.6421073,30.50858 54.2668878,25.40028 57.6440098,21.56848 L57.6325463,21.55698 C57.6325463,21.55698 57.7976195,21.37988 57.8343024,21.34308 L60.317278,18.91198 L75.3824976,4.24718 C76.0703024,3.58018 76.0863512,2.47848 75.4191805,1.78848 C74.7520098,1.09848 73.6538146,1.08238 72.9683024,1.75168 L55.6310341,18.62678 C51.199278,22.93928 51.5408878,29.27348 56.369278,35.11548 L46.5084488,44.85828 C45.8206439,45.52758 45.8045951,46.62928 46.4717659,47.31698 C46.7400098,47.59528 47.0793268,47.76318 47.4301073,47.82298 C47.9551317,47.91038 48.5122537,47.75628 48.9249366,47.35608 L58.7926439,37.60408 C60.7345463,39.22788 63.0318146,40.30198 65.4437171,40.70448 C65.755522,40.75738 66.0696195,40.79648 66.3837171,40.82638 C69.5315707,41.11848 72.4180585,40.23528 74.3026439,38.40218 C75.5063024,37.23148 77.2097659,35.49728 79.3671805,33.30078 C82.6732293,29.93818 86.7863024,25.75218 91.185961,21.46958 C91.8737659,20.80028 91.8898146,19.69858 91.2226439,19.00858 L91.2226439,19.00858 Z" id="Stroke-11" stroke="#4D4C4C" stroke-width="0.3"></path>
                            <path d="M60.8338195,24.35493 C60.5266,24.67463 60.331722,25.10703 60.331722,25.58773 C60.331722,26.57213 61.1295756,27.37023 62.1108439,27.37023 C62.587722,27.37023 63.0187463,27.17703 63.3374293,26.86883 L63.3420146,26.87343 L63.3626488,26.85273 C63.3649415,26.85043 63.3672341,26.84583 63.3718195,26.84353 L79.6727951,10.85163 C80.3606,10.18233 80.3766488,9.08063 79.709478,8.39293 C79.0423073,7.70293 77.9441122,7.68683 77.2563073,8.35383 L60.8269415,24.34803 L60.8338195,24.35493 Z" id="Fill-13" fill="#4D4C4C"></path>
                            <path d="M60.8338195,24.35493 C60.5266,24.67463 60.331722,25.10703 60.331722,25.58773 C60.331722,26.57213 61.1295756,27.37023 62.1108439,27.37023 C62.587722,27.37023 63.0187463,27.17703 63.3374293,26.86883 L63.3420146,26.87343 L63.3626488,26.85273 C63.3649415,26.85043 63.3672341,26.84583 63.3718195,26.84353 L79.6727951,10.85163 C80.3606,10.18233 80.3766488,9.08063 79.709478,8.39293 C79.0423073,7.70293 77.9441122,7.68683 77.2563073,8.35383 L60.8269415,24.34803 L60.8338195,24.35493 L60.8338195,24.35493 Z" id="Stroke-15" stroke="#4D4C4C" stroke-width="0.3"></path>
                            <path d="M66.3507024,29.79903 L66.3025561,29.84503 L66.3117268,29.85653 C66.0159707,30.17853 65.825678,30.60173 65.825678,31.07553 C65.825678,32.07603 66.6327024,32.88563 67.6300195,32.88563 C68.1023122,32.88563 68.5241659,32.69473 68.8451415,32.39803 L68.8474341,32.40033 L68.8611902,32.38653 C68.8864098,32.36353 68.9093366,32.34053 68.9322634,32.31523 L85.1208976,16.48433 C85.8087024,15.81503 85.8247512,14.71333 85.1575805,14.02563 C84.4904098,13.33563 83.3922146,13.31953 82.7044098,13.98883 L66.3575805,29.79213 C66.3552878,29.79443 66.3529951,29.79673 66.3507024,29.79903" id="Fill-17" fill="#4D4C4C"></path>
                            <path d="M66.3507024,29.79903 L66.3025561,29.84503 L66.3117268,29.85653 C66.0159707,30.17853 65.825678,30.60173 65.825678,31.07553 C65.825678,32.07603 66.6327024,32.88563 67.6300195,32.88563 C68.1023122,32.88563 68.5241659,32.69473 68.8451415,32.39803 L68.8474341,32.40033 L68.8611902,32.38653 C68.8864098,32.36353 68.9093366,32.34053 68.9322634,32.31523 L85.1208976,16.48433 C85.8087024,15.81503 85.8247512,14.71333 85.1575805,14.02563 C84.4904098,13.33563 83.3922146,13.31953 82.7044098,13.98883 L66.3575805,29.79213 C66.3552878,29.79443 66.3529951,29.79673 66.3507024,29.79903 L66.3507024,29.79903 Z" id="Stroke-19" stroke="#4D4C4C" stroke-width="0.3"></path>
                        </g>
                    </g>
                </g>
            </g>
        </g>
    </g>
</svg>