<?xml version="1.0" encoding="UTF-8" standalone="no"?>
<svg width="107px" height="93px" viewBox="0 0 107 93" version="1.1" xmlns="http://www.w3.org/2000/svg" xmlns:xlink="http://www.w3.org/1999/xlink" xmlns:sketch="http://www.bohemiancoding.com/sketch/ns">
    <!-- Generator: Sketch 3.5.2 (25235) - http://www.bohemiancoding.com/sketch -->
    <title>button_logement</title>
    <desc>Created with Sketch.</desc>
    <defs>
        <path id="path-1" d="M0,1.82268293 L106.878638,1.82268293 L106.878638,94 L0,94 L0,1.82268293 Z"></path>
        <path id="path-3" d="M0,1.82268293 L106.878638,1.82268293 L106.878638,94 L0,94 L0,1.82268293 Z"></path>
    </defs>
    <g id="Page-1" stroke="none" stroke-width="1" fill="none" fill-rule="evenodd" sketch:type="MSPage">
        <g id="Conférence---Home" sketch:type="MSArtboardGroup" transform="translate(-1163.000000, -2002.000000)">
            <g id="More" sketch:type="MSLayerGroup" transform="translate(0.000000, 1861.000000)">
                <g id="Rectangle-9-+-Logement-+-LOGEMENT" transform="translate(1112.000000, 124.000000)">
                    <g id="button_logement">
                        <g id="Page-1" transform="translate(51.000000, 16.000000)">
                            <path d="M30.6196085,22.9268293 L26.9430128,22.9268293 L26.9430128,15.8561951 C26.9430128,8.11839024 33.2713532,1.82268293 41.0496511,1.82268293 L65.8276085,1.82268293 C73.6059064,1.82268293 79.9342468,8.11839024 79.9342468,15.8561951 L79.9342468,22.4866341 L76.2576511,22.4866341 L76.2576511,15.8561951 C76.2576511,10.1405366 71.579183,5.49097561 65.8276085,5.49097561 L41.0496511,5.49097561 C35.2980766,5.49097561 30.6196085,10.1405366 30.6196085,15.8561951 L30.6196085,22.9268293 Z" id="Fill-1" fill="#4D4C4C" sketch:type="MSShapeGroup"></path>
                            <path d="M71.9948681,22.7500634 L68.3182723,22.7500634 L68.3182723,15.8559659 C68.3182723,14.4918195 67.2015064,13.3844537 65.8273787,13.3844537 L41.0494213,13.3844537 C39.6775915,13.3844537 38.5585277,14.4918195 38.5585277,15.8559659 L38.5585277,22.7500634 L34.8842298,22.7500634 L34.8842298,15.8559659 C34.8842298,12.4719659 37.6508681,9.71616098 41.0494213,9.71616098 L65.8273787,9.71616098 C69.2282298,9.71616098 71.9948681,12.4719659 71.9948681,15.8559659 L71.9948681,22.7500634 Z" id="Fill-3" fill="#4D4C4C" sketch:type="MSShapeGroup"></path>
                            <g id="Group-7">
                                <mask id="mask-2" sketch:name="Clip 6" fill="white">
                                    <use xlink:href="#path-1"></use>
                                </mask>
                                <g id="Clip-6"></g>
                                <path d="M6.16886809,25.1053366 C4.79474043,25.1053366 3.6756766,26.2127024 3.6756766,27.5768488 L3.6756766,87.8606537 C3.6756766,89.2248 4.79474043,90.3321659 6.16886809,90.3321659 L19.6665702,90.3321659 L19.6665702,25.1053366 L6.16886809,25.1053366 Z M23.343166,94.0004585 L6.16886809,94.0004585 C2.76801702,94.0004585 -0.000919148936,91.2469463 -0.000919148936,87.8606537 L-0.000919148936,27.5768488 C-0.000919148936,24.1928488 2.76801702,21.4370439 6.16886809,21.4370439 L23.343166,21.4370439 L23.343166,94.0004585 Z" id="Fill-5" fill="#4D4C4C" sketch:type="MSShapeGroup" mask="url(#mask-2)"></path>
                            </g>
                            <path d="M37.8452681,42.804161 L55.5710553,60.4280146 L65.8080766,50.2485024 L48.089183,32.6269415 L39.6399064,34.4152341 L37.8452681,42.804161 Z M55.5710553,65.6071854 L33.833183,43.9917707 L36.5446723,31.3201122 L49.2748851,28.6262098 L71.0173532,50.2485024 L55.5710553,65.6071854 Z M29.1156511,90.331478 L77.7616085,90.331478 L77.7616085,25.1046488 L29.1156511,25.1046488 L29.1156511,90.331478 Z M81.4382043,93.9997707 L25.4413532,93.9997707 L25.4413532,21.4386488 L81.4382043,21.4386488 L81.4382043,93.9997707 Z" id="Fill-8" fill="#4D4C4C" sketch:type="MSShapeGroup"></path>
                            <path d="M44.1173106,40.7405171 C45.2823319,40.7405171 46.2290553,39.8005171 46.2290553,38.6404195 C46.2290553,37.4826146 45.2823319,36.5426146 44.1173106,36.5426146 C42.9522894,36.5426146 42.005566,37.4826146 42.005566,38.6404195 C42.005566,39.8005171 42.9522894,40.7405171 44.1173106,40.7405171" id="Fill-10" fill="#4D4C4C" sketch:type="MSShapeGroup"></path>
                            <g id="Group-14">
                                <mask id="mask-4" sketch:name="Clip 13" fill="white">
                                    <use xlink:href="#path-3"></use>
                                </mask>
                                <g id="Clip-13"></g>
                                <path d="M87.2113787,90.3326244 L100.709081,90.3326244 C102.083209,90.3326244 103.202272,89.2252585 103.202272,87.8611122 L103.202272,27.5773073 C103.199974,26.2154537 102.083209,25.1057951 100.709081,25.1057951 L87.2113787,25.1057951 L87.2113787,90.3326244 Z M100.709081,94.0009171 L83.534783,94.0009171 L83.534783,21.4375024 L100.709081,21.4375024 C104.107634,21.4375024 106.87657,24.1910146 106.878868,27.5750146 L106.878868,87.8611122 C106.878868,91.2451122 104.109932,94.0009171 100.709081,94.0009171 L100.709081,94.0009171 Z" id="Fill-12" fill="#4D4C4C" sketch:type="MSShapeGroup" mask="url(#mask-4)"></path>
                            </g>
                        </g>
                    </g>
                </g>
            </g>
        </g>
    </g>
</svg>