<?xml version="1.0" encoding="UTF-8" standalone="no"?>
<svg width="110px" height="90px" viewBox="0 0 110 90" version="1.1" xmlns="http://www.w3.org/2000/svg" xmlns:xlink="http://www.w3.org/1999/xlink" xmlns:sketch="http://www.bohemiancoding.com/sketch/ns">
    <!-- Generator: Sketch 3.5.2 (25235) - http://www.bohemiancoding.com/sketch -->
    <title>button_lieu</title>
    <desc>Created with Sketch.</desc>
    <defs>
        <path id="path-1" d="M0,0.0834146341 L109.1486,0.0834146341 L109.1486,90 L0,90 L0,0.0834146341 Z"></path>
    </defs>
    <g id="Page-1" stroke="none" stroke-width="1" fill="none" fill-rule="evenodd" sketch:type="MSPage">
        <g id="Conférence---Home" sketch:type="MSArtboardGroup" transform="translate(-417.000000, -2004.000000)">
            <g id="More" sketch:type="MSLayerGroup" transform="translate(0.000000, 1861.000000)">
                <g id="Rectangle-7-+-Lieux-+-LIEUX" transform="translate(368.000000, 124.000000)">
                    <g id="button_lieu">
                        <g id="Page-1" transform="translate(49.000000, 19.000000)">
                            <path d="M37.71458,44.6482488 C41.39066,44.6482488 44.37138,47.6317122 44.37138,51.3111756 C44.37138,54.990639 41.39066,57.9741024 37.71458,57.9741024 C34.0385,57.9741024 31.05778,54.990639 31.05778,51.3111756 C31.05778,47.6317122 34.0385,44.6482488 37.71458,44.6482488" id="Fill-1" fill="#4D4C4C" sketch:type="MSShapeGroup"></path>
                            <g id="Group-5">
                                <mask id="mask-2" sketch:name="Clip 4" fill="white">
                                    <use xlink:href="#path-1"></use>
                                </mask>
                                <g id="Clip-4"></g>
                                <path d="M97.02968,58.7043659 L83.55248,57.1063171 L86.02088,80.9585122 L75.22328,78.6426585 L72.16308,46.7321707 L72.47768,46.6816829 L100.74988,50.264122 L104.93208,85.3136341 L87.43548,81.2877805 L85.12548,58.6999756 L97.13748,60.0916829 L97.02968,58.7043659 Z M73.21468,25.209 L102.83328,32.6811951 L101.05788,46.6443659 L71.81108,43.1211951 L73.21468,25.209 Z M50.26648,83.3907073 C50.09708,80.4272927 50.34128,74.6168049 54.12968,70.0531463 C57.48028,66.0185122 62.88348,63.8409512 70.16108,63.5116829 L71.71208,79.3099756 L50.26648,83.3907073 Z M37.50428,85.8163171 L37.18528,85.7548537 L39.38748,64.8858293 C46.06448,63.7750976 51.17948,57.9843659 51.17948,51.0082683 C51.17948,50.6307073 51.15088,50.2619268 51.12228,49.8931463 L68.57048,47.2677805 L70.02688,62.1155854 C62.37088,62.4755854 56.65088,64.8221707 53.04948,69.1597317 C48.84968,74.2216829 48.65168,80.5326585 48.86728,83.654122 L37.50428,85.8163171 Z M25.74968,51.0126585 C25.74968,44.7850976 30.82508,39.7209512 37.06208,39.7209512 C43.30348,39.7209512 48.37888,44.7850976 48.37888,51.0126585 C48.37888,57.2358293 43.30348,62.2999756 37.06208,62.2999756 C30.82508,62.2999756 25.74968,57.2358293 25.74968,51.0126585 L25.74968,51.0126585 Z M33.60808,85.0875366 L17.12348,82.0011951 L19.50608,66.7297317 L26.92448,60.7853415 C29.20148,63.134122 32.28148,64.701439 35.72228,65.024122 L33.60808,85.0875366 Z M4.19628,79.5843659 L7.97148,47.9680244 L22.98428,50.2882683 C22.97328,50.5297317 22.94908,50.7668049 22.94908,51.0126585 C22.94908,54.3053415 24.09308,57.3302195 26.00268,59.733878 L18.20588,65.979 L15.74848,81.7443659 L4.19628,79.5843659 Z M4.39428,10.2755854 L19.74148,16.7402195 C19.69748,18.8760732 19.21348,21.9733902 17.11688,24.4977805 C14.93008,27.1297317 11.45188,28.6004634 6.76148,28.8968049 L4.39428,10.2755854 Z M33.47828,22.5309512 L35.12828,37.0758293 C29.70308,37.8199756 25.25248,41.643878 23.62228,46.7233902 L8.40048,44.3724146 L6.93748,30.284122 C11.98428,29.9526585 15.76828,28.3129024 18.19268,25.3911951 C20.37948,22.7592439 21.00868,19.646561 21.12968,17.3263171 L33.47828,22.5309512 Z M68.21848,43.6611951 L50.36768,46.3480244 C49.40628,43.6348537 47.64188,41.3036341 45.35168,39.6353415 C47.68808,35.9146098 49.79788,28.7080244 50.32808,26.8070488 L69.65288,24.3177805 L68.21848,43.6611951 Z M71.35788,6.03241463 L69.78708,22.9019268 L69.76288,22.8975366 L49.22368,25.5404634 L49.10048,25.9926585 C49.07408,26.0892439 46.69148,34.874122 44.18128,38.8692439 C42.55548,37.9143659 40.72728,37.2755854 38.77368,37.0407073 L37.11048,22.3509512 L71.35788,6.03241463 Z M75.29588,3.98656098 L105.05748,15.1772927 L103.00708,31.2894878 L73.34448,23.8019268 L75.29588,3.98656098 Z M104.33588,49.653878 L109.01968,12.806561 L75.41908,0.0836341463 L35.11508,19.2931463 L0.00088,4.49582927 L4.74188,43.8060732 L0.19668,82.5148537 L37.50868,89.4975366 L75.56428,82.2668049 L109.14948,90.0002195 L104.33588,49.653878 Z" id="Fill-3" fill="#4D4C4C" sketch:type="MSShapeGroup" mask="url(#mask-2)"></path>
                            </g>
                        </g>
                    </g>
                </g>
            </g>
        </g>
    </g>
</svg>