<?xml version="1.0" encoding="UTF-8" standalone="no"?>
<svg width="102px" height="92px" viewBox="0 0 102 92" version="1.1" xmlns="http://www.w3.org/2000/svg" xmlns:xlink="http://www.w3.org/1999/xlink" xmlns:sketch="http://www.bohemiancoding.com/sketch/ns">
    <!-- Generator: Sketch 3.5.2 (25235) - http://www.bohemiancoding.com/sketch -->
    <title>button_horaires</title>
    <desc>Created with Sketch.</desc>
    <defs></defs>
    <g id="Page-1" stroke="none" stroke-width="1" fill="none" fill-rule="evenodd" sketch:type="MSPage">
        <g id="Conférence---Home" sketch:type="MSArtboardGroup" transform="translate(-666.000000, -2006.000000)">
            <g id="More" sketch:type="MSLayerGroup" transform="translate(0.000000, 1861.000000)">
                <g id="Rectangle-10-+-Repas-+-REPAS-2" transform="translate(616.000000, 124.000000)" sketch:type="MSShapeGroup">
                    <g id="button_horaires">
                        <g id="Page-1" transform="translate(50.000000, 21.000000)">
                            <path d="M40.7814735,10.1381909 C42.0450245,10.1381909 43.0691878,9.10946364 43.0691878,7.84028182 L43.0691878,2.97473636 C43.0691878,1.70555455 42.0450245,0.678918182 40.7814735,0.678918182 C39.5179224,0.678918182 38.4937592,1.70555455 38.4937592,2.97473636 L38.4937592,7.84028182 C38.4937592,9.10946364 39.5179224,10.1381909 40.7814735,10.1381909 L40.7814735,10.1381909 Z M25.9956367,68.4578273 L23.4373102,68.4578273 L23.4373102,61.9132818 C23.4373102,60.6441 22.4131469,59.6153727 21.1516776,59.6153727 C19.8881265,59.6153727 18.8639633,60.6441 18.8639633,61.9132818 L18.8639633,70.7536455 C18.8639633,72.0228273 19.8881265,73.0515545 21.1516776,73.0515545 L25.9956367,73.0515545 C27.2591878,73.0515545 28.2812694,72.0228273 28.2812694,70.7536455 C28.2812694,69.4844636 27.2591878,68.4578273 25.9956367,68.4578273 L25.9956367,68.4578273 Z M18.616249,40.3016455 C19.8798,40.3016455 20.9039633,39.2729182 20.9039633,38.0058273 L20.9039633,8.0201 L29.4969429,8.0201 C29.5885347,9.20564545 30.5731469,10.1381909 31.7763306,10.1381909 C33.0398816,10.1381909 34.0640449,9.10946364 34.0640449,7.84028182 L34.0640449,2.97473636 C34.0640449,1.70555455 33.0398816,0.678918182 31.7763306,0.678918182 C30.5148612,0.678918182 29.490698,1.70555455 29.490698,2.97473636 L29.490698,3.42637273 L18.616249,3.42637273 C17.352698,3.42637273 16.3285347,4.4551 16.3285347,5.72219091 L16.3285347,38.0058273 C16.3285347,39.2729182 17.352698,40.3016455 18.616249,40.3016455 L18.616249,40.3016455 Z M21.1516776,54.3630091 C12.1548612,54.3630091 4.83375918,61.7167364 4.83375918,70.7536455 C4.83375918,79.7926455 12.1548612,87.1442818 21.1516776,87.1442818 C30.1484939,87.1442818 37.4695959,79.7905545 37.4695959,70.7536455 C37.4695959,61.7167364 30.1484939,54.3630091 21.1516776,54.3630091 L21.1516776,54.3630091 Z M42.1720041,52.3076455 C43.0650245,53.2046455 43.0650245,54.6599182 42.1720041,55.5569182 C41.2789837,56.4539182 39.8301673,56.4539182 38.9371469,55.5569182 L38.8413918,55.4607364 L37.0969837,57.2108273 C40.1819633,60.8699182 42.0429429,65.5974636 42.0429429,70.7536455 C42.0429429,82.3247364 32.6714327,91.7380091 21.1516776,91.7380091 C9.63192245,91.7380091 0.260412245,82.3247364 0.260412245,70.7536455 C0.260412245,60.7988273 7.19641224,52.4414636 16.4680041,50.3003727 C16.451351,50.1853727 16.4409429,50.0682818 16.4409429,49.9470091 C16.4409429,48.6799182 17.4651061,47.6511909 18.7286571,47.6511909 L23.574698,47.6511909 C24.8361673,47.6511909 25.8603306,48.6799182 25.8603306,49.9470091 C25.8603306,50.0682818 25.8520041,50.1853727 25.8332694,50.3003727 C28.7642082,50.9778273 31.4620041,52.2741909 33.7809429,54.0472818 L35.6065347,52.2114636 L35.5128612,52.1173727 C34.6198408,51.2182818 34.6198408,49.7651 35.5128612,48.8681 C36.4058816,47.9711 37.8526163,47.9711 38.7456367,48.8681 L40.4380041,50.5680091 C40.4463306,50.5742818 40.4525755,50.5805545 40.4588204,50.5889182 C40.4650653,50.5951909 40.4733918,50.6014636 40.4796367,50.6077364 L42.1720041,52.3076455 Z M98.9631061,3.42637273 L88.0907388,3.42637273 L88.0907388,2.97473636 C88.0907388,1.70555455 87.0665755,0.678918182 85.8030245,0.678918182 C84.5415551,0.678918182 83.5173918,1.70555455 83.5173918,2.97473636 L83.5173918,7.84028182 C83.5173918,9.10946364 84.5415551,10.1381909 85.8030245,10.1381909 C87.0062082,10.1381909 87.992902,9.20564545 88.0844939,8.0201 L96.6774735,8.0201 L96.6774735,67.9894636 L53.1401265,67.9894636 C51.8765755,67.9894636 50.8524122,69.0181909 50.8524122,70.2873727 C50.8524122,71.5565545 51.8765755,72.5852818 53.1401265,72.5852818 L98.9631061,72.5852818 C100.226657,72.5852818 101.25082,71.5565545 101.25082,70.2873727 L101.25082,5.72219091 C101.25082,4.4551 100.226657,3.42637273 98.9631061,3.42637273 L98.9631061,3.42637273 Z M42.7319633,19.5661 L31.7763306,19.5661 C30.5127796,19.5661 29.490698,20.5948273 29.490698,21.8640091 C29.490698,23.1331909 30.5127796,24.1619182 31.7763306,24.1619182 L42.7319633,24.1619182 C43.9955143,24.1619182 45.0196776,23.1331909 45.0196776,21.8640091 C45.0196776,20.5948273 43.9955143,19.5661 42.7319633,19.5661 L42.7319633,19.5661 Z M52.072249,7.84028182 L52.072249,2.97473636 C52.072249,1.70555455 51.0501673,0.678918182 49.7866163,0.678918182 C48.5230653,0.678918182 47.498902,1.70555455 47.498902,2.97473636 L47.498902,7.84028182 C47.498902,9.10946364 48.5230653,10.1381909 49.7866163,10.1381909 C51.0501673,10.1381909 52.072249,9.10946364 52.072249,7.84028182 L52.072249,7.84028182 Z M42.7319633,35.7079182 L31.7763306,35.7079182 C30.5127796,35.7079182 29.490698,36.7366455 29.490698,38.0058273 C29.490698,39.2729182 30.5127796,40.3016455 31.7763306,40.3016455 L42.7319633,40.3016455 C43.9955143,40.3016455 45.0196776,39.2729182 45.0196776,38.0058273 C45.0196776,36.7366455 43.9955143,35.7079182 42.7319633,35.7079182 L42.7319633,35.7079182 Z M74.8473918,56.4434636 L85.8030245,56.4434636 C87.0665755,56.4434636 88.0907388,55.4147364 88.0907388,54.1455545 C88.0907388,52.8784636 87.0665755,51.8497364 85.8030245,51.8497364 L74.8473918,51.8497364 C73.5838408,51.8497364 72.5596776,52.8784636 72.5596776,54.1455545 C72.5596776,55.4147364 73.5838408,56.4434636 74.8473918,56.4434636 L74.8473918,56.4434636 Z M67.7948204,10.1381909 C69.0583714,10.1381909 70.0825347,9.10946364 70.0825347,7.84028182 L70.0825347,2.97473636 C70.0825347,1.70555455 69.0583714,0.678918182 67.7948204,0.678918182 C66.5312694,0.678918182 65.5091878,1.70555455 65.5091878,2.97473636 L65.5091878,7.84028182 C65.5091878,9.10946364 66.5312694,10.1381909 67.7948204,10.1381909 L67.7948204,10.1381909 Z M74.8473918,40.3016455 L85.8030245,40.3016455 C87.0665755,40.3016455 88.0907388,39.2729182 88.0907388,38.0058273 C88.0907388,36.7366455 87.0665755,35.7079182 85.8030245,35.7079182 L74.8473918,35.7079182 C73.5838408,35.7079182 72.5596776,36.7366455 72.5596776,38.0058273 C72.5596776,39.2729182 73.5838408,40.3016455 74.8473918,40.3016455 L74.8473918,40.3016455 Z M74.8473918,24.1619182 L85.8030245,24.1619182 C87.0665755,24.1619182 88.0907388,23.1331909 88.0907388,21.8640091 C88.0907388,20.5948273 87.0665755,19.5661 85.8030245,19.5661 L74.8473918,19.5661 C73.5838408,19.5661 72.5596776,20.5948273 72.5596776,21.8640091 C72.5596776,23.1331909 73.5838408,24.1619182 74.8473918,24.1619182 L74.8473918,24.1619182 Z M76.7999633,10.1381909 C78.0635143,10.1381909 79.0855959,9.10946364 79.0855959,7.84028182 L79.0855959,2.97473636 C79.0855959,1.70555455 78.0635143,0.678918182 76.7999633,0.678918182 C75.5364122,0.678918182 74.512249,1.70555455 74.512249,2.97473636 L74.512249,7.84028182 C74.512249,9.10946364 75.5364122,10.1381909 76.7999633,10.1381909 L76.7999633,10.1381909 Z M64.2685347,35.7079182 L53.312902,35.7079182 C52.049351,35.7079182 51.0251878,36.7366455 51.0251878,38.0058273 C51.0251878,39.2729182 52.049351,40.3016455 53.312902,40.3016455 L64.2685347,40.3016455 C65.5320857,40.3016455 66.5541673,39.2729182 66.5541673,38.0058273 C66.5541673,36.7366455 65.5320857,35.7079182 64.2685347,35.7079182 L64.2685347,35.7079182 Z M51.0251878,21.8640091 C51.0251878,23.1331909 52.049351,24.1619182 53.312902,24.1619182 L64.2685347,24.1619182 C65.5320857,24.1619182 66.5541673,23.1331909 66.5541673,21.8640091 C66.5541673,20.5948273 65.5320857,19.5661 64.2685347,19.5661 L53.312902,19.5661 C52.049351,19.5661 51.0251878,20.5948273 51.0251878,21.8640091 L51.0251878,21.8640091 Z M58.7896776,10.1381909 C60.0532286,10.1381909 61.0773918,9.10946364 61.0773918,7.84028182 L61.0773918,2.97473636 C61.0773918,1.70555455 60.0532286,0.678918182 58.7896776,0.678918182 C57.5282082,0.678918182 56.5040449,1.70555455 56.5040449,2.97473636 L56.5040449,7.84028182 C56.5040449,9.10946364 57.5282082,10.1381909 58.7896776,10.1381909 L58.7896776,10.1381909 Z M66.5541673,54.1455545 C66.5541673,55.4147364 65.5320857,56.4434636 64.2685347,56.4434636 L53.312902,56.4434636 C52.049351,56.4434636 51.0251878,55.4147364 51.0251878,54.1455545 C51.0251878,52.8784636 52.049351,51.8497364 53.312902,51.8497364 L64.2685347,51.8497364 C65.5320857,51.8497364 66.5541673,52.8784636 66.5541673,54.1455545 L66.5541673,54.1455545 Z" id="Fill-1" fill="#4D4C4C"></path>
                            <path d="M40.7814735,10.1381909 C42.0450245,10.1381909 43.0691878,9.10946364 43.0691878,7.84028182 L43.0691878,2.97473636 C43.0691878,1.70555455 42.0450245,0.678918182 40.7814735,0.678918182 C39.5179224,0.678918182 38.4937592,1.70555455 38.4937592,2.97473636 L38.4937592,7.84028182 C38.4937592,9.10946364 39.5179224,10.1381909 40.7814735,10.1381909 L40.7814735,10.1381909 Z M25.9956367,68.4578273 L23.4373102,68.4578273 L23.4373102,61.9132818 C23.4373102,60.6441 22.4131469,59.6153727 21.1516776,59.6153727 C19.8881265,59.6153727 18.8639633,60.6441 18.8639633,61.9132818 L18.8639633,70.7536455 C18.8639633,72.0228273 19.8881265,73.0515545 21.1516776,73.0515545 L25.9956367,73.0515545 C27.2591878,73.0515545 28.2812694,72.0228273 28.2812694,70.7536455 C28.2812694,69.4844636 27.2591878,68.4578273 25.9956367,68.4578273 L25.9956367,68.4578273 Z M18.616249,40.3016455 C19.8798,40.3016455 20.9039633,39.2729182 20.9039633,38.0058273 L20.9039633,8.0201 L29.4969429,8.0201 C29.5885347,9.20564545 30.5731469,10.1381909 31.7763306,10.1381909 C33.0398816,10.1381909 34.0640449,9.10946364 34.0640449,7.84028182 L34.0640449,2.97473636 C34.0640449,1.70555455 33.0398816,0.678918182 31.7763306,0.678918182 C30.5148612,0.678918182 29.490698,1.70555455 29.490698,2.97473636 L29.490698,3.42637273 L18.616249,3.42637273 C17.352698,3.42637273 16.3285347,4.4551 16.3285347,5.72219091 L16.3285347,38.0058273 C16.3285347,39.2729182 17.352698,40.3016455 18.616249,40.3016455 L18.616249,40.3016455 Z M21.1516776,54.3630091 C12.1548612,54.3630091 4.83375918,61.7167364 4.83375918,70.7536455 C4.83375918,79.7926455 12.1548612,87.1442818 21.1516776,87.1442818 C30.1484939,87.1442818 37.4695959,79.7905545 37.4695959,70.7536455 C37.4695959,61.7167364 30.1484939,54.3630091 21.1516776,54.3630091 L21.1516776,54.3630091 Z M42.1720041,52.3076455 C43.0650245,53.2046455 43.0650245,54.6599182 42.1720041,55.5569182 C41.2789837,56.4539182 39.8301673,56.4539182 38.9371469,55.5569182 L38.8413918,55.4607364 L37.0969837,57.2108273 C40.1819633,60.8699182 42.0429429,65.5974636 42.0429429,70.7536455 C42.0429429,82.3247364 32.6714327,91.7380091 21.1516776,91.7380091 C9.63192245,91.7380091 0.260412245,82.3247364 0.260412245,70.7536455 C0.260412245,60.7988273 7.19641224,52.4414636 16.4680041,50.3003727 C16.451351,50.1853727 16.4409429,50.0682818 16.4409429,49.9470091 C16.4409429,48.6799182 17.4651061,47.6511909 18.7286571,47.6511909 L23.574698,47.6511909 C24.8361673,47.6511909 25.8603306,48.6799182 25.8603306,49.9470091 C25.8603306,50.0682818 25.8520041,50.1853727 25.8332694,50.3003727 C28.7642082,50.9778273 31.4620041,52.2741909 33.7809429,54.0472818 L35.6065347,52.2114636 L35.5128612,52.1173727 C34.6198408,51.2182818 34.6198408,49.7651 35.5128612,48.8681 C36.4058816,47.9711 37.8526163,47.9711 38.7456367,48.8681 L40.4380041,50.5680091 C40.4463306,50.5742818 40.4525755,50.5805545 40.4588204,50.5889182 C40.4650653,50.5951909 40.4733918,50.6014636 40.4796367,50.6077364 L42.1720041,52.3076455 L42.1720041,52.3076455 Z M98.9631061,3.42637273 L88.0907388,3.42637273 L88.0907388,2.97473636 C88.0907388,1.70555455 87.0665755,0.678918182 85.8030245,0.678918182 C84.5415551,0.678918182 83.5173918,1.70555455 83.5173918,2.97473636 L83.5173918,7.84028182 C83.5173918,9.10946364 84.5415551,10.1381909 85.8030245,10.1381909 C87.0062082,10.1381909 87.992902,9.20564545 88.0844939,8.0201 L96.6774735,8.0201 L96.6774735,67.9894636 L53.1401265,67.9894636 C51.8765755,67.9894636 50.8524122,69.0181909 50.8524122,70.2873727 C50.8524122,71.5565545 51.8765755,72.5852818 53.1401265,72.5852818 L98.9631061,72.5852818 C100.226657,72.5852818 101.25082,71.5565545 101.25082,70.2873727 L101.25082,5.72219091 C101.25082,4.4551 100.226657,3.42637273 98.9631061,3.42637273 L98.9631061,3.42637273 Z M42.7319633,19.5661 L31.7763306,19.5661 C30.5127796,19.5661 29.490698,20.5948273 29.490698,21.8640091 C29.490698,23.1331909 30.5127796,24.1619182 31.7763306,24.1619182 L42.7319633,24.1619182 C43.9955143,24.1619182 45.0196776,23.1331909 45.0196776,21.8640091 C45.0196776,20.5948273 43.9955143,19.5661 42.7319633,19.5661 L42.7319633,19.5661 Z M52.072249,7.84028182 L52.072249,2.97473636 C52.072249,1.70555455 51.0501673,0.678918182 49.7866163,0.678918182 C48.5230653,0.678918182 47.498902,1.70555455 47.498902,2.97473636 L47.498902,7.84028182 C47.498902,9.10946364 48.5230653,10.1381909 49.7866163,10.1381909 C51.0501673,10.1381909 52.072249,9.10946364 52.072249,7.84028182 L52.072249,7.84028182 Z M42.7319633,35.7079182 L31.7763306,35.7079182 C30.5127796,35.7079182 29.490698,36.7366455 29.490698,38.0058273 C29.490698,39.2729182 30.5127796,40.3016455 31.7763306,40.3016455 L42.7319633,40.3016455 C43.9955143,40.3016455 45.0196776,39.2729182 45.0196776,38.0058273 C45.0196776,36.7366455 43.9955143,35.7079182 42.7319633,35.7079182 L42.7319633,35.7079182 Z M74.8473918,56.4434636 L85.8030245,56.4434636 C87.0665755,56.4434636 88.0907388,55.4147364 88.0907388,54.1455545 C88.0907388,52.8784636 87.0665755,51.8497364 85.8030245,51.8497364 L74.8473918,51.8497364 C73.5838408,51.8497364 72.5596776,52.8784636 72.5596776,54.1455545 C72.5596776,55.4147364 73.5838408,56.4434636 74.8473918,56.4434636 L74.8473918,56.4434636 Z M67.7948204,10.1381909 C69.0583714,10.1381909 70.0825347,9.10946364 70.0825347,7.84028182 L70.0825347,2.97473636 C70.0825347,1.70555455 69.0583714,0.678918182 67.7948204,0.678918182 C66.5312694,0.678918182 65.5091878,1.70555455 65.5091878,2.97473636 L65.5091878,7.84028182 C65.5091878,9.10946364 66.5312694,10.1381909 67.7948204,10.1381909 L67.7948204,10.1381909 Z M74.8473918,40.3016455 L85.8030245,40.3016455 C87.0665755,40.3016455 88.0907388,39.2729182 88.0907388,38.0058273 C88.0907388,36.7366455 87.0665755,35.7079182 85.8030245,35.7079182 L74.8473918,35.7079182 C73.5838408,35.7079182 72.5596776,36.7366455 72.5596776,38.0058273 C72.5596776,39.2729182 73.5838408,40.3016455 74.8473918,40.3016455 L74.8473918,40.3016455 Z M74.8473918,24.1619182 L85.8030245,24.1619182 C87.0665755,24.1619182 88.0907388,23.1331909 88.0907388,21.8640091 C88.0907388,20.5948273 87.0665755,19.5661 85.8030245,19.5661 L74.8473918,19.5661 C73.5838408,19.5661 72.5596776,20.5948273 72.5596776,21.8640091 C72.5596776,23.1331909 73.5838408,24.1619182 74.8473918,24.1619182 L74.8473918,24.1619182 Z M76.7999633,10.1381909 C78.0635143,10.1381909 79.0855959,9.10946364 79.0855959,7.84028182 L79.0855959,2.97473636 C79.0855959,1.70555455 78.0635143,0.678918182 76.7999633,0.678918182 C75.5364122,0.678918182 74.512249,1.70555455 74.512249,2.97473636 L74.512249,7.84028182 C74.512249,9.10946364 75.5364122,10.1381909 76.7999633,10.1381909 L76.7999633,10.1381909 Z M64.2685347,35.7079182 L53.312902,35.7079182 C52.049351,35.7079182 51.0251878,36.7366455 51.0251878,38.0058273 C51.0251878,39.2729182 52.049351,40.3016455 53.312902,40.3016455 L64.2685347,40.3016455 C65.5320857,40.3016455 66.5541673,39.2729182 66.5541673,38.0058273 C66.5541673,36.7366455 65.5320857,35.7079182 64.2685347,35.7079182 L64.2685347,35.7079182 Z M51.0251878,21.8640091 C51.0251878,23.1331909 52.049351,24.1619182 53.312902,24.1619182 L64.2685347,24.1619182 C65.5320857,24.1619182 66.5541673,23.1331909 66.5541673,21.8640091 C66.5541673,20.5948273 65.5320857,19.5661 64.2685347,19.5661 L53.312902,19.5661 C52.049351,19.5661 51.0251878,20.5948273 51.0251878,21.8640091 L51.0251878,21.8640091 Z M58.7896776,10.1381909 C60.0532286,10.1381909 61.0773918,9.10946364 61.0773918,7.84028182 L61.0773918,2.97473636 C61.0773918,1.70555455 60.0532286,0.678918182 58.7896776,0.678918182 C57.5282082,0.678918182 56.5040449,1.70555455 56.5040449,2.97473636 L56.5040449,7.84028182 C56.5040449,9.10946364 57.5282082,10.1381909 58.7896776,10.1381909 L58.7896776,10.1381909 Z M66.5541673,54.1455545 C66.5541673,55.4147364 65.5320857,56.4434636 64.2685347,56.4434636 L53.312902,56.4434636 C52.049351,56.4434636 51.0251878,55.4147364 51.0251878,54.1455545 C51.0251878,52.8784636 52.049351,51.8497364 53.312902,51.8497364 L64.2685347,51.8497364 C65.5320857,51.8497364 66.5541673,52.8784636 66.5541673,54.1455545 L66.5541673,54.1455545 Z" id="Stroke-3" stroke="#F5F5F5" stroke-width="0.25"></path>
                        </g>
                    </g>
                </g>
            </g>
        </g>
    </g>
</svg>