<?xml version="1.0" encoding="UTF-8" standalone="no"?>
<svg width="123px" height="95px" viewBox="0 0 123 95" version="1.1" xmlns="http://www.w3.org/2000/svg" xmlns:xlink="http://www.w3.org/1999/xlink" xmlns:sketch="http://www.bohemiancoding.com/sketch/ns">
    <!-- Generator: Sketch 3.5.2 (25235) - http://www.bohemiancoding.com/sketch -->
    <title>button_partenaires</title>
    <desc>Created with Sketch.</desc>
    <defs>
        <path id="path-1" d="M0,2.388625 L122.925235,2.388625 L122.925235,97 L0,97 L0,2.388625 Z"></path>
    </defs>
    <g id="Page-1" stroke="none" stroke-width="1" fill="none" fill-rule="evenodd" sketch:type="MSPage">
        <g id="Conférence---Home" sketch:type="MSArtboardGroup" transform="translate(-1215.000000, -1797.000000)">
            <g id="More" sketch:type="MSLayerGroup" transform="translate(0.000000, 1779.000000)">
                <g id="Rectangle-9-+-Logement-+-LOGEMENT-Copy" transform="translate(1172.000000, 0.000000)">
                    <g id="button_partenaires">
                        <g id="Page-1" transform="translate(43.000000, 16.000000)">
                            <g id="Group-3">
                                <mask id="mask-2" sketch:name="Clip 2" fill="white">
                                    <use xlink:href="#path-1"></use>
                                </mask>
                                <g id="Clip-2"></g>
                                <path d="M47.7543882,9.160195 C47.8942706,9.160195 48.0293294,9.145645 48.1595647,9.116545 C48.6877412,9.228095 49.2593294,9.121395 49.7223882,8.767345 C54.9028588,4.81217 62.4155059,6.327795 69.6797412,7.79492 C73.5699176,8.58062 77.2888588,9.33237 80.7449176,9.33237 C81.2248588,9.33237 81.6975647,9.31782 82.1678588,9.286295 C82.7466824,12.555195 83.2121529,19.597395 81.9122118,28.30557 L81.3695647,27.02032 C81.2007412,26.620195 80.9016824,26.28797 80.5230353,26.07942 C79.9707412,25.776295 66.7952706,18.69772 45.3522706,21.40402 C44.7228,21.43797 44.1222706,21.77747 43.7846235,22.366745 C43.6616235,22.580145 41.9902706,25.514395 40.5432118,29.268295 C39.8872118,25.69142 39.2842706,21.668345 39.2842706,18.94022 C39.2842706,12.18417 43.5386235,9.160195 47.7543882,9.160195 L47.7543882,9.160195 Z M74.9108588,57.228545 C71.2039765,61.73177 66.4359176,64.212545 61.4893882,64.212545 C56.5380353,64.212545 51.7627412,61.729345 48.0438,57.22127 C44.3610353,52.75927 42.2507412,46.854395 42.2507412,41.02227 L42.2507412,38.70397 C42.2507412,33.929145 45.4415059,27.434995 46.6522118,25.14337 C63.9252706,23.157295 75.4872706,27.953945 78.1112706,29.18827 L80.6846235,35.287145 L80.6846235,41.03197 C80.6846235,46.868945 78.5815647,52.771395 74.9108588,57.228545 L74.9108588,57.228545 Z M38.4088,41.019845 C38.4088,47.73952 40.8422706,54.541645 45.0869765,59.687495 C49.5487412,65.095245 55.3731529,68.07557 61.4893882,68.07557 C67.6032118,68.07557 73.4203882,65.09767 77.8700941,59.692345 C82.1003294,54.55377 84.5265647,47.751645 84.5265647,41.03197 L84.5265647,35.11497 C86.2365059,27.70902 86.5958588,21.299745 86.5934471,17.211195 C86.5886235,11.93197 86.0170353,8.28477 85.4840353,6.633345 C85.2018588,5.755495 84.3529176,5.221995 83.4750353,5.30687 C83.3303294,5.294745 83.1808,5.294745 83.0312706,5.31657 C79.4594471,5.83067 75.0772706,4.945545 70.4370353,4.009495 C62.9195647,2.491445 54.4253294,0.779395 47.9304471,5.30687 C47.8725647,5.30202 47.8122706,5.29717 47.7543882,5.29717 C44.1078,5.29717 40.8712118,6.76187 38.6403294,9.422095 C36.5782706,11.87862 35.4423294,15.25907 35.4423294,18.94022 C35.4423294,24.971195 37.9939765,36.111645 38.4088,37.886745 L38.4088,41.019845 L38.4088,41.019845 Z" id="Fill-1" fill="#4D4C4C" sketch:type="MSShapeGroup" mask="url(#mask-2)"></path>
                            </g>
                            <path d="M101.765859,91.22268 C101.765859,92.26058 100.644388,93.13843 99.3179176,93.13843 L70.3140353,93.13843 L70.3140353,93.13843 L63.4887412,93.13843 L59.4369765,93.13843 L51.6928,93.13843 L51.6928,93.136005 L23.6078,93.136005 C22.2789176,93.13843 21.1598588,92.26058 21.1598588,91.22268 L21.1598588,87.592455 C21.1598588,83.03588 23.9671529,77.63298 29.3357412,76.088255 L40.2562118,73.79178 L51.1742706,88.88498 C51.5022706,89.34088 52.0159765,89.629455 52.5755059,89.673105 C52.6261529,89.677955 52.6768,89.68038 52.7274471,89.68038 C53.2339176,89.68038 53.7235059,89.47668 54.0852706,89.11293 L61.4628588,81.219555 L68.8404471,89.115355 C69.2022118,89.479105 69.6918,89.68038 70.1982706,89.68038 C70.2489176,89.68038 70.2995647,89.677955 70.3478,89.673105 C70.9097412,89.629455 71.4210353,89.34088 71.7514471,88.88498 L82.6695059,73.79178 L93.5899765,76.088255 C98.9585647,77.63298 101.765859,83.03588 101.765859,87.592455 L101.765859,91.22268 Z M45.7984471,67.954805 L58.6410941,79.071005 L52.9565647,84.784305 L43.4132118,71.58988 L45.7984471,67.954805 Z M77.1272706,67.954805 L79.5100941,71.592305 L69.9667412,84.784305 L64.2846235,79.071005 L77.1272706,67.954805 Z M102.742624,78.34108 C100.716741,75.35833 97.8901529,73.28738 94.5667412,72.35133 C94.5257412,72.339205 94.4847412,72.329505 94.4413294,72.319805 L83.0143882,69.91663 L79.9924471,65.311555 C79.9731529,65.277605 79.9490353,65.24608 79.9273294,65.214555 C79.3774471,64.47978 78.5405647,63.992355 77.6313294,63.88323 C76.7245059,63.77168 75.7959765,64.040855 75.0869176,64.62528 C75.0748588,64.63498 75.0628,64.64468 75.0507412,64.656805 L61.4628588,76.41563 L47.8749765,64.656805 C47.8629176,64.64468 47.8508588,64.63498 47.8388,64.62528 C47.1297412,64.040855 46.2012118,63.77168 45.2919765,63.88323 C44.3851529,63.992355 43.5482706,64.47978 42.9983882,65.214555 C42.9766824,65.24608 42.9525647,65.277605 42.9332706,65.311555 L39.9113294,69.91663 L28.4843882,72.319805 C28.4409765,72.329505 28.3999765,72.339205 28.3589765,72.35133 C25.0355647,73.28738 22.2089765,75.35833 20.1830941,78.34108 C18.3356824,81.06193 17.3179176,84.347805 17.3179176,87.592455 L17.3179176,91.22268 C17.3179176,94.40913 20.1396824,96.99903 23.6078,96.99903 L57.0903294,96.99903 L57.0975647,96.99903 L57.1048,96.99903 L65.8209176,96.99903 L65.8281529,96.99903 L65.8353882,96.99903 L99.3179176,96.99903 C102.786035,96.99903 105.6078,94.40913 105.6078,91.22268 L105.6078,87.592455 C105.6078,84.347805 104.590035,81.06193 102.742624,78.34108 L102.742624,78.34108 Z" id="Fill-4" fill="#4D4C4C" sketch:type="MSShapeGroup"></path>
                            <path d="M15.4053882,44.6435225 C15.4053882,49.3358975 16.9923294,53.7396975 19.8768,57.0425475 C22.8022706,60.3963225 26.7117412,62.2417475 30.8816824,62.2417475 C34.0073294,62.2417475 37.0172118,61.1917225 39.5857412,59.2080725 C40.4250353,58.5581725 40.5842118,57.3456725 39.9378588,56.4993475 C39.2915059,55.6554475 38.0856235,55.4953975 37.2439176,56.1452975 C35.3530941,57.6075725 33.1535647,58.3787225 30.8816824,58.3787225 C24.4663882,58.3787225 19.2473294,52.2167975 19.2473294,44.6435225 L19.2473294,43.5086225 C19.2473294,40.4555475 20.5014471,36.4154975 21.1598588,34.5070225 C25.3056824,34.1384225 29.0077412,34.6840475 32.0296824,35.1326725 L32.3721529,35.1835975 C32.4686235,35.1981475 32.5626824,35.2054225 32.6543294,35.2054225 C33.5925059,35.2054225 34.4125059,34.5142975 34.5523882,33.5539975 C34.7067412,32.4991225 33.9808,31.5169975 32.9316824,31.3617975 L32.5916235,31.3108725 C29.0608,30.7870725 24.6689765,30.1347475 19.5391529,30.7967725 C19.5343294,30.7967725 19.5270941,30.7967725 19.5198588,30.7991975 L19.5198588,30.7991975 C19.5126235,30.7991975 19.5053882,30.8016225 19.4981529,30.8016225 C19.4426824,30.8088975 19.3896235,30.8185975 19.3341529,30.8331475 C19.3052118,30.8379975 19.2762706,30.8476975 19.2449176,30.8573975 C19.2159765,30.8646725 19.1870353,30.8719475 19.1580941,30.8816475 C19.1195059,30.8937725 19.0833294,30.9107475 19.0471529,30.9252975 C19.0254471,30.9325725 19.0061529,30.9398475 18.9844471,30.9495475 C18.9482706,30.9665225 18.9120941,30.9834975 18.8759176,31.0028975 C18.8566235,31.0125975 18.8373294,31.0222975 18.8180353,31.0344225 C18.7866824,31.0513975 18.7553294,31.0732225 18.7239765,31.0926225 C18.7022706,31.1071725 18.6805647,31.1192975 18.6588588,31.1362725 C18.6323294,31.1532475 18.6082118,31.1750725 18.5816824,31.1944725 C18.5575647,31.2138725 18.5334471,31.2308475 18.5093294,31.2526725 C18.4900353,31.2696475 18.4707412,31.2890475 18.4514471,31.3060225 C18.4249176,31.3326975 18.3983882,31.3569475 18.3718588,31.3836225 C18.3573882,31.4005975 18.3429176,31.4175725 18.3284471,31.4345475 C18.3019176,31.4636475 18.2753882,31.4927475 18.2512706,31.5266975 C18.2368,31.5436725 18.2247412,31.5630725 18.2102706,31.5824725 C18.1885647,31.6139975 18.1644471,31.6455225 18.1451529,31.6770475 C18.1258588,31.7037225 18.1113882,31.7328225 18.0969176,31.7594975 C18.0824471,31.7861725 18.0655647,31.8104225 18.0535059,31.8395225 C18.0269765,31.8904475 18.0028588,31.9437975 17.9811529,31.9971475 C17.9787412,32.0019975 17.9763294,32.0044225 17.9763294,32.0092725 L17.9739176,32.0116975 C17.9739176,32.0165475 17.9715059,32.0213975 17.9690941,32.0238225 C17.9353294,32.1111225 17.7978588,32.4724475 17.6000941,33.0350475 C17.4457412,31.8079975 17.3468588,30.6512725 17.3468588,29.7249225 C17.3468588,25.5490725 19.3486235,23.6818225 21.3359176,23.6818225 C21.4299765,23.6818225 21.5216235,23.6721225 21.6108588,23.6599975 C21.7025059,23.6721225 21.7941529,23.6818225 21.8858,23.6818225 C22.2909765,23.6818225 22.6985647,23.5532975 23.0458588,23.2889725 C24.8378,21.9188475 27.1506824,21.4580975 30.5440353,21.7951725 C31.5979765,21.9018725 32.5409765,21.1258725 32.6446824,20.0637225 C32.7483882,19.0015725 31.9766235,18.0582475 30.9226824,17.9515475 C28.3179765,17.6944975 24.5508,17.6241725 21.2732118,19.8212225 C16.6956824,19.8575975 13.5049176,23.9194725 13.5049176,29.7249225 C13.5049176,33.7916475 15.0990941,41.2048725 15.4053882,42.5871225 L15.4053882,44.6435225" id="Fill-6" fill="#4D4C4C" sketch:type="MSShapeGroup"></path>
                            <path d="M90.2347294,19.75405 C93.0589059,19.809825 96.1797294,20.319075 99.1992588,20.81135 C101.480788,21.182375 103.665847,21.534 105.563906,21.65525 C105.498788,26.2288 105.199729,30.3416 104.862082,33.65415 C104.857259,33.6493 104.852435,33.646875 104.850024,33.64445 C104.818671,33.622625 104.787318,33.603225 104.755965,33.5814 C104.741494,33.5717 104.729435,33.562 104.712553,33.5523 C104.698082,33.5426 104.678788,33.5329 104.661906,33.5232 C104.661906,33.520775 104.659494,33.520775 104.657082,33.51835 C100.812729,31.192775 96.1556118,29.849325 90.4156118,29.41525 C89.3568471,29.335225 88.4379647,30.13305 88.3583765,31.197625 C88.2787882,32.2622 89.0722588,33.18855 90.1286118,33.268575 C95.0244941,33.637175 98.9870235,34.7163 102.2212,36.56415 C102.677024,37.643275 103.677906,40.373825 103.677906,43.50935 L103.677906,44.64425 C103.677906,52.217525 98.4588471,58.37945 92.0435529,58.37945 C89.7716706,58.37945 87.5721412,57.605875 85.6813176,56.146025 C84.8396118,55.496125 83.6337294,55.65375 82.9873765,56.500075 C82.3410235,57.3464 82.5002,58.5589 83.3394941,59.2088 C85.9080235,61.19245 88.9179059,62.242475 92.0435529,62.242475 C96.2134941,62.242475 100.122965,60.394625 103.048435,57.043275 C105.930494,53.738 107.519847,49.336625 107.519847,44.64425 L107.519847,42.556325 C107.789965,41.11345 109.374494,32.12155 109.417906,20.23905 C109.466141,20.0499 109.487847,19.848625 109.475788,19.640075 C109.415494,18.60945 108.561729,17.8189 107.546376,17.826175 C107.531906,17.826175 107.515024,17.82375 107.498141,17.82375 C107.461965,17.82375 107.425788,17.826175 107.389612,17.8286 C105.530141,17.9256 102.7542,17.47455 99.8142588,16.996825 C96.8092,16.5094 93.4062,15.954075 90.3119059,15.89345 C89.2434941,15.866775 88.3728471,16.71795 88.3535529,17.78495 C88.3318471,18.85195 89.1735529,19.732225 90.2347294,19.75405" id="Fill-8" fill="#4D4C4C" sketch:type="MSShapeGroup"></path>
                            <path d="M114.960865,65.4941575 C114.919865,65.4820325 114.878865,65.4723325 114.835453,65.4626325 L107.303512,63.8791075 L105.383747,60.9545575 C105.364453,60.9230325 105.340335,60.8915075 105.318629,60.8599825 C104.843512,60.2246325 104.122394,59.8051075 103.338571,59.7105325 C102.574041,59.6159575 101.792629,59.8366325 101.187276,60.3167825 L92.9655706,66.4884075 C92.1166294,67.1261825 91.9405706,68.3362575 92.5748647,69.1898575 C93.2115706,70.0458825 94.4150412,70.2204825 95.2639824,69.5827075 L102.754924,63.9591325 L103.8161,65.5790325 C103.8161,65.5790325 104.209218,66.1828575 105.410276,66.9418825 C106.611335,67.7009075 107.773806,67.9240075 107.773806,67.9240075 L113.981688,69.2286575 C117.331629,70.2059325 119.082571,73.5985075 119.082571,76.4624325 L119.082571,78.9359325 C119.082571,79.2608825 118.633982,79.6222075 118.031041,79.6222075 L109.478924,79.6222075 C108.420159,79.6222075 107.559159,80.4879325 107.559159,81.5549325 C107.559159,82.6195075 108.420159,83.4852325 109.478924,83.4852325 L118.031041,83.4852325 C120.729806,83.4852325 122.924512,81.4433825 122.924512,78.9359325 L122.924512,76.4624325 C122.924512,72.1265325 120.189571,66.9661325 114.960865,65.4941575" id="Fill-10" fill="#4D4C4C" sketch:type="MSShapeGroup"></path>
                            <path d="M29.9596647,66.488165 L21.7379588,60.31654 C21.1326059,59.83639 20.3511941,59.615715 19.5866647,59.71029 C18.8028412,59.804865 18.0817235,60.22439 17.6066059,60.85974 C17.5849,60.891265 17.5607824,60.92279 17.5414882,60.954315 L15.6217235,63.878865 L8.08978235,65.464815 C8.04637059,65.47209 8.00537059,65.48179 7.96437059,65.493915 C2.73566471,66.96589 0.000723529412,72.12629 0.000723529412,76.464615 L0.000723529412,78.93569 C0.000723529412,81.445565 2.19542941,83.48499 4.89419412,83.48499 L13.4439,83.48499 C14.5050765,83.48499 15.3660765,82.62169 15.3660765,81.55469 C15.3660765,80.48769 14.5050765,79.621965 13.4439,79.621965 L4.89419412,79.621965 C4.29125294,79.621965 3.84266471,79.26064 3.84266471,78.93569 L3.84266471,76.464615 C3.84266471,73.598265 5.59360588,70.20569 8.94354706,69.23084 L15.0043118,67.95529 C18.2071353,67.49454 19.1091353,65.57879 19.1091353,65.57879 L20.1703118,63.95889 L27.6612529,69.582465 C28.5126059,70.22024 29.7160765,70.04564 30.3503706,69.19204 C30.9846647,68.336015 30.8086059,67.12594 29.9596647,66.488165" id="Fill-12" fill="#4D4C4C" sketch:type="MSShapeGroup"></path>
                        </g>
                    </g>
                </g>
            </g>
        </g>
    </g>
</svg>