<?xml version="1.0" encoding="UTF-8" standalone="no"?>
<svg width="94px" height="86px" viewBox="0 0 94 86" version="1.1" xmlns="http://www.w3.org/2000/svg" xmlns:xlink="http://www.w3.org/1999/xlink" xmlns:sketch="http://www.bohemiancoding.com/sketch/ns">
    <!-- Generator: Sketch 3.5.2 (25235) - http://www.bohemiancoding.com/sketch -->
    <title>button_transports</title>
    <desc>Created with Sketch.</desc>
    <defs>
        <path id="path-1" d="M0,0.531052505 L93.5275,0.531052505 L93.5275,85.2061856 L0,85.2061856 L0,0.531052505 Z"></path>
    </defs>
    <g id="Page-1" stroke="none" stroke-width="1" fill="none" fill-rule="evenodd" sketch:type="MSPage">
        <g id="Conférence---Home" sketch:type="MSArtboardGroup" transform="translate(-177.000000, -2006.000000)">
            <g id="More" sketch:type="MSLayerGroup" transform="translate(0.000000, 1861.000000)">
                <g id="Rectangle-9-+-Transports-+-TRANSPORTS" transform="translate(120.000000, 124.000000)">
                    <g id="button_transports">
                        <g id="Page-1" transform="translate(57.000000, 21.396907)">
                            <g id="Group-3">
                                <mask id="mask-2" sketch:name="Clip 2" fill="white">
                                    <use xlink:href="#path-1"></use>
                                </mask>
                                <g id="Clip-2"></g>
                                <path d="M7.81652083,81.6532858 L12.3013125,78.7681647 L81.2277708,78.7681647 L85.7125625,81.6532858 L7.81652083,81.6532858 Z M22.7612083,72.0408391 L23.0343333,72.238993 C24.1248542,73.0296272 25.3004792,73.7132582 26.5275625,74.2680892 L28.6017292,75.2172465 L17.8271458,75.2172465 L22.7612083,72.0408391 Z M18.137875,56.1449317 L16.9187083,18.6898777 C16.8138125,15.4540242 17.995375,12.3885831 20.2437083,10.058293 C22.4940208,7.72998442 25.5142292,6.44991009 28.7521458,6.44991009 L64.7749583,6.44991009 C68.012875,6.44991009 71.0330833,7.72998442 73.2833958,10.058293 C75.5337083,12.38462 76.7152708,15.4500611 76.610375,18.6898777 L75.3912083,56.1449317 C75.0923542,65.3531443 67.6487083,72.5679286 58.4455833,72.5679286 L35.0835,72.5679286 C25.8823542,72.5679286 18.4367292,65.3531443 18.137875,56.1449317 L18.137875,56.1449317 Z M75.7039167,75.2172465 L64.925375,75.2172465 L66.9995417,74.2700707 C68.226625,73.7132582 69.40225,73.0296272 70.4927708,72.238993 L70.767875,72.0408391 L75.7039167,75.2172465 Z M92.7148542,81.9366459 L83.0090208,75.6947974 C82.8249583,75.5422189 82.6804792,75.447105 82.5261042,75.3757696 L73.5011042,69.5777859 L73.8811042,69.1458104 C76.9844375,65.5988552 78.7795417,61.0234812 78.9358958,56.2618425 L80.1550625,18.804807 C80.2936042,14.5960177 78.75975,10.613124 75.8325625,7.58929513 C72.9073542,4.56348478 68.9806875,2.89701031 64.7749583,2.89701031 L56.506,2.89701031 L56.541625,2.28273316 C56.5277708,1.31376049 55.7380833,0.531052505 54.7682917,0.531052505 L38.7627708,0.531052505 C37.7850625,0.531052505 36.9874583,1.32763126 36.9874583,2.30651163 L36.9874583,2.7246164 L36.496625,2.89701031 L28.7521458,2.89701031 C24.5483958,2.89701031 20.6237083,4.56348478 17.6965208,7.58929513 C14.7732917,10.613124 13.2354792,14.5960177 13.3740208,18.804807 L14.5931875,56.263824 C14.7495417,61.0234812 16.5446458,65.5988552 19.6479792,69.1477919 L20.026,69.5777859 L19.5450625,69.8888876 L0.81225,81.9366459 C0.157145833,82.3567322 -0.147645833,83.179071 0.0700625,83.9280928 C0.28975,84.6810777 0.990375,85.2061856 1.77214583,85.2061856 L91.7569375,85.2061856 C92.5387083,85.2061856 93.2373542,84.6810777 93.4570417,83.9280928 C93.6767292,83.179071 93.3719375,82.3567322 92.7148542,81.9366459 L92.7148542,81.9366459 Z" id="Fill-1" fill="#4D4C4C" sketch:type="MSShapeGroup" mask="url(#mask-2)"></path>
                            </g>
                            <path d="M27.4864688,59.4965071 C26.6512604,59.4965071 25.9704271,58.8148576 25.9704271,57.9766665 C25.9704271,57.1424385 26.6512604,56.460789 27.4864688,56.460789 C28.3236563,56.460789 29.0044896,57.1424385 29.0044896,57.9766665 C29.0044896,58.8148576 28.3236563,59.4965071 27.4864688,59.4965071 M27.4864688,52.9078892 C24.6938646,52.9078892 22.4217813,55.1807147 22.4217813,57.9766665 C22.4217813,60.7745999 24.6938646,63.0474253 27.4864688,63.0474253 C30.2790729,63.0474253 32.5511563,60.7745999 32.5511563,57.9766665 C32.5511563,55.1807147 30.2790729,52.9078892 27.4864688,52.9078892" id="Fill-4" fill="#4D4C4C" sketch:type="MSShapeGroup"></path>
                            <path d="M66.041625,59.4965071 C65.2064167,59.4965071 64.5255833,58.8148576 64.5255833,57.978648 C64.5255833,57.1424385 65.2064167,56.460789 66.041625,56.460789 C66.8788125,56.460789 67.5596458,57.1424385 67.5596458,57.978648 C67.5596458,58.8148576 66.8788125,59.4965071 66.041625,59.4965071 M66.041625,52.9078892 C63.2490208,52.9078892 60.9769375,55.1807147 60.9769375,57.9766665 C60.9769375,60.7745999 63.2490208,63.0474253 66.041625,63.0474253 C68.8342292,63.0474253 71.1063125,60.7745999 71.1063125,57.9766665 C71.1063125,55.1807147 68.8342292,52.9078892 66.041625,52.9078892" id="Fill-6" fill="#4D4C4C" sketch:type="MSShapeGroup"></path>
                            <path d="M66.1981771,36.5869416 L27.3293229,36.5869416 L27.2956771,36.1292061 L26.4228646,23.4691521 C26.3298437,22.0860378 26.7989062,20.7663327 27.7390104,19.7557477 C28.6870313,18.7411996 29.9695312,18.1843871 31.3529687,18.1843871 L62.1765104,18.1843871 C63.5599479,18.1843871 64.8424479,18.7411996 65.7884896,19.7557477 C66.7325521,20.7683142 67.1996354,22.0880193 67.1066146,23.4691521 L66.1981771,36.5869416 Z M70.6414062,23.7128814 C70.8036979,21.3726836 69.9783854,19.0443751 68.3792187,17.3283621 C66.7840104,15.6143307 64.5218229,14.6314873 62.1765104,14.6314873 L31.3529687,14.6314873 C29.0056771,14.6314873 26.7434896,15.6143307 25.1502604,17.3283621 C23.5491146,19.0423936 22.7238021,21.3707021 22.8860937,23.7128814 L23.9053646,38.4852562 C23.9667187,39.4145981 24.7445312,40.1398414 25.6707812,40.1398414 L67.8567187,40.1398414 C68.7849479,40.1398414 69.5607812,39.4126165 69.6241146,38.4852562 L70.6414062,23.7128814 Z" id="Fill-8" fill="#4D4C4C" sketch:type="MSShapeGroup"></path>
                        </g>
                    </g>
                </g>
            </g>
        </g>
    </g>
</svg>