<?xml version="1.0" encoding="UTF-8" standalone="no"?>
<svg width="50px" height="50px" viewBox="0 0 50 50" version="1.1" xmlns="http://www.w3.org/2000/svg" xmlns:xlink="http://www.w3.org/1999/xlink" xmlns:sketch="http://www.bohemiancoding.com/sketch/ns">
    <!-- Generator: Sketch 3.3.3 (12081) - http://www.bohemiancoding.com/sketch -->
    <title>facebook</title>
    <desc>Created with Sketch.</desc>
    <defs></defs>
    <g id="Page-1" stroke="none" stroke-width="1" fill="none" fill-rule="evenodd" sketch:type="MSPage">
        <g id="facebook" sketch:type="MSArtboardGroup" fill="#434343">
            <g id="Link---Facebook" sketch:type="MSLayerGroup" transform="translate(1.000000, 1.000000)">
                <path d="M45.2597015,0.107462687 L2.74029851,0.107462687 C1.28955224,0.107462687 0.107462687,1.28955224 0.107462687,2.74029851 L0.107462687,45.2597015 C0.107462687,46.7104478 1.28955224,47.8925373 2.74029851,47.8925373 L25.6298507,47.8925373 L25.6298507,29.3910448 L19.3970149,29.3910448 L19.3970149,22.1731343 L25.6298507,22.1731343 L25.6298507,16.8537313 C25.6298507,10.6746269 29.4089552,7.32537313 34.9074627,7.32537313 C37.5402985,7.32537313 39.8149254,7.52238806 40.4776119,7.6119403 L40.4776119,14.0597015 L36.6626866,14.0597015 C33.6716418,14.0597015 33.080597,15.4746269 33.080597,17.5701493 L33.080597,22.1731343 L40.2268657,22.1731343 L39.2955224,29.3910448 L33.080597,29.3910448 L33.080597,47.9104478 L45.2597015,47.9104478 C46.7104478,47.9104478 47.8925373,46.7283582 47.8925373,45.2776119 L47.8925373,2.74029851 C47.8925373,1.27164179 46.7283582,0.107462687 45.2597015,0.107462687 L45.2597015,0.107462687 Z" id="Blue_1_" sketch:type="MSShapeGroup"></path>
            </g>
        </g>
    </g>
</svg>