<?xml version="1.0" encoding="UTF-8" standalone="no"?>
<svg width="40px" height="30px" viewBox="0 0 40 30" version="1.1" xmlns="http://www.w3.org/2000/svg" xmlns:xlink="http://www.w3.org/1999/xlink" xmlns:sketch="http://www.bohemiancoding.com/sketch/ns">
    <!-- Generator: Sketch 3.5.2 (25235) - http://www.bohemiancoding.com/sketch -->
    <title>iahm_simple</title>
    <desc>Created with Sketch.</desc>
    <defs></defs>
    <g id="AIMG" stroke="none" stroke-width="1" fill="none" fill-rule="evenodd" sketch:type="MSPage">
        <g id="iahm_simple" sketch:type="MSArtboardGroup" fill-opacity="0.95" fill="#FFFFFF">
            <g id="Group" sketch:type="MSLayerGroup" transform="translate(1.000000, 0.000000)">
                <path d="M2.29370491,20.6261278 C2.36309814,20.4111786 2.41936894,20.1551067 2.36309814,19.9314884 C1.92071626,18.8327356 1.59843806,17.6813013 1.30996682,16.5160854 C1.25436326,16.1804357 1.29617714,15.7945496 1.19853729,15.4920203 L1.13314751,15.408219 C1.03484043,15.3982161 1.04462666,15.5380332 0.983685159,15.5940489 C0.871810807,16.4322841 0.717455339,17.2527366 0.587343021,18.0816359 C0.414527173,18.7238162 0.195226753,19.3488805 0.0459868125,20.0057315 C0.0648920211,20.2580245 -0.0142874409,20.5701121 0.157861165,20.7890624 C0.396289207,21.2218506 0.898945342,21.333882 1.35645139,21.3165438 C1.78126255,21.3103198 2.02814233,20.9148755 2.29370491,20.6261278" id="Fill-49" sketch:type="MSShapeGroup"></path>
                <path d="M2.90645608,22.3306062 C2.85641288,22.0254094 2.8942233,21.6746443 2.80570244,21.4007897 L2.74587302,21.3247683 C2.65690733,21.3156547 2.66602631,21.4423569 2.61109,21.4932601 C2.5094467,22.2541403 2.36932574,22.9983491 2.25077896,23.750338 C2.09464418,24.3333905 1.89580587,24.9004385 1.76035561,25.4957167 C1.77703668,25.724003 1.7054193,26.0074159 1.86155408,26.2063606 C2.07796312,26.5995821 2.53368985,26.700277 2.94871478,26.6838279 C3.33393621,26.6787154 3.55835216,26.3201703 3.79900434,26.058319 C3.86261481,25.8647091 3.91354766,25.6315326 3.86261481,25.4279199 C3.46071231,24.4309734 3.16823762,23.3873472 2.90645608,22.3306062" id="Fill-50" sketch:type="MSShapeGroup"></path>
                <path d="M34.2955524,10.642437 L34.0342157,12.0695042 C34.0406657,12.941749 33.7432979,14.3892663 33.9841725,14.6126623 C34.1403073,14.592879 34.7223653,14.8480617 35.2210179,14.8160528 C35.2610525,14.8069391 35.5675393,14.8411709 35.6064618,14.8293898 C35.4454339,15.391103 34.952564,15.9203627 34.7348205,16.4278384 C34.1447555,16.5852159 33.5813803,16.6007759 32.9001256,16.6963583 C31.9430772,16.8130577 31.3063053,16.8841887 29.4696087,16.861738 C28.7356417,16.956209 27.5884292,16.6590144 26.9167383,16.4565132 C26.418308,16.3055819 26.1227195,16.1513164 25.610722,16.0501769 C25.1561073,16.2086658 24.7751117,16.6627933 24.4510542,17.0231166 C23.9899895,17.5559328 23.7159752,18.1741063 23.2831572,18.7367087 C22.8071907,19.3050904 22.4346469,19.9181513 21.8995183,20.4651938 C21.7996543,20.4858662 21.6699868,20.4576361 21.6699868,20.3418258 C21.6995679,19.7518825 22.0730014,19.3050904 22.2455948,18.7722742 C22.5838869,17.6215068 23.0385015,16.5183083 23.1465948,15.2657345 C23.1038913,15.2157205 23.1038913,15.122361 23.0816499,15.0494516 C22.8654633,14.8549526 22.6132455,14.7691507 22.3757071,14.6548964 C21.1150634,14.0918495 19.8686541,13.5021285 18.572424,13.0346639 C18.0028212,12.9199651 17.8053174,12.712129 17.1707696,12.7701452 C17.3945183,12.394262 17.4859305,12.1619746 17.7018948,11.7943158 L17.8907244,11.3679739 C18.7479088,11.4833397 19.2567926,11.8527767 20.077501,12.0621688 C20.3946637,12.0326049 20.7765489,12.1406352 21.0358839,11.9683647 C21.5109607,11.5442456 21.7122455,10.9171808 22.1532929,10.4265986 C22.2389224,10.4346009 22.3109846,10.5281827 22.3403433,10.6004252 C22.3979486,11.3424112 22.3474605,12.1693099 22.4555539,12.9117405 C22.8220925,13.4232174 23.4270592,13.5174661 23.9319394,13.7757608 C25.5964874,14.3583688 27.3110787,14.8347247 29.0258923,15.3157486 C30.0345408,15.3604278 31.1459446,15.2812944 31.6574973,14.6940185 C32.0967654,13.6428346 32.8449668,12.5665325 33.1396657,11.449997 C33.7446324,10.0173727 34.4143216,8.13951231 34.7310394,7.25570871 C34.8727173,6.81669662 34.9572347,6.39124388 35.0355245,6.20252425 C35.1135919,6.0140269 35.2392559,6.17629466 35.2392559,6.17629466 C35.0119486,7.60002757 34.6189427,8.85815844 34.2955524,10.642437 L34.2955524,10.642437 Z M24.1487933,12.73947 C24.4846388,12.4676159 24.7048288,12.5054043 25.2025919,12.2315496 L25.3295904,12.184203 C25.4227819,12.1619746 25.5088562,12.0695042 25.5813633,12.0117102 C25.9636933,11.1183483 25.7114756,10.0389343 25.6756669,9.05910373 L25.6756669,6.92917263 C25.7410567,6.9209481 25.6683272,6.80624924 25.7410567,6.79980298 C25.8558224,6.79202302 25.7477291,6.59796856 25.8484828,6.58240864 C26.2732939,7.92811965 26.7192344,9.34007147 27.3395477,10.6502169 C27.6429207,11.0323242 27.9084833,11.6440514 28.4929878,11.6227121 C29.60884,11.6227121 30.5859056,11.3424112 31.6219111,11.4626672 C31.8894754,11.4951207 32.187288,11.5020116 32.434835,11.554693 C32.289821,11.9292426 32.0798619,12.591873 31.8423235,12.9299679 C31.4584366,12.9568643 31.2166723,12.9175199 30.9126321,12.8995149 C30.5649987,12.8899566 30.1995721,12.9404152 29.9833855,13.070674 C29.7164884,13.4732315 29.2854497,13.8413348 28.8962248,14.0856255 C28.8170453,14.0636194 28.7734522,14.0058254 28.7734522,13.913355 C28.7807918,13.6386112 28.8230505,13.2787324 28.737421,13.0051001 C28.3559807,12.73169 27.7863778,12.933969 27.3110787,12.8984035 C26.965447,13.0264394 26.5764445,13.0411102 26.258837,13.2429446 C25.8907415,13.4292191 25.6698841,13.4410002 25.2813265,13.5785944 C24.7989101,13.3207442 24.259778,13.1964871 23.7548977,12.9877619 C23.7333235,12.8432769 24.0700587,12.7883726 24.1487933,12.73947 L24.1487933,12.73947 Z M37.2836874,12.5431927 C37.4129101,11.8858971 37.4727395,11.2741698 37.4727395,10.6004252 C37.4727395,4.79190613 34.1910177,0.08258445 27.1320352,0.08258445 C23.9839844,0.08258445 20.8450525,1.56299993 18.8764642,3.11654705 C17.0188607,1.65080235 14.1194689,0.252187605 11.1542426,0.0985889417 L11.1542426,0.0974775187 C11.1451236,0.0970329495 11.1346701,0.0968106649 11.1253287,0.0963660957 C11.1224373,0.0961438111 11.1193235,0.0956992418 11.1164321,0.0956992418 L11.1164321,0.0959215264 C10.9582956,0.088808419 10.7734694,0.08258445 10.6200036,0.08258445 C3.56102113,0.08258445 0.279521742,4.79190613 0.279521742,10.6004252 C0.279521742,11.2039279 0.337794268,11.8016512 0.442551365,12.39115 C0.821990022,12.2128777 1.20476489,12.0374952 1.59109839,11.874116 C2.40513443,11.6440514 3.21983772,11.3917584 3.99717541,11.1183483 C4.38573305,10.9676394 4.26340523,10.5352958 4.31433809,10.240991 C4.11928082,9.3469623 3.71604384,8.57763527 3.38486907,7.74184515 C3.06147879,7.30261077 3.03923737,6.76290374 2.74275922,6.33056018 C2.72185228,6.18674204 2.4985484,5.99313215 2.69271602,5.90599658 L5.89970664,9.11045147 C6.24511592,9.54835215 6.65635981,9.82331821 7.05203471,10.2547726 L7.67835315,10.3334614 L11.4327052,10.412817 C11.7089436,10.4550511 12.0098701,10.4939509 12.291224,10.528405 L12.2914465,10.5286273 C12.2943378,10.5290718 12.2974516,10.5292941 12.3005654,10.5297387 C12.3052361,10.5304055 12.3101293,10.5308501 12.3148,10.531517 L12.3145775,10.5312947 C13.3563657,10.6562186 14.3703522,10.7206812 15.4074697,10.8609428 C15.4515077,10.8820598 15.4655198,10.9545246 15.5449217,10.926739 L14.7024166,12.3131281 C14.5487284,12.4662822 14.2784951,12.3282434 14.0262774,12.2853425 L12.030777,12.2853425 C11.3815499,12.9404152 10.9865422,13.6966275 10.3949204,14.4166073 C10.2645857,14.5679831 10.0641905,14.6253326 9.91228156,14.761593 C9.85400904,14.7838215 9.81152792,14.7473668 9.797071,14.7044659 L9.78261407,12.580981 C9.71766912,12.3069041 9.51616184,11.9830354 9.22124058,11.9174615 L5.91394115,11.9536939 C4.98358247,12.0912881 4.12706531,12.4362738 3.34194312,12.876175 C2.90223021,13.1562536 2.10465282,13.6254964 2.10465282,13.6254964 L1.06175255,14.3092439 C1.06175255,14.3092439 2.38178094,17.5663802 4.2393845,19.7552167 C4.45890733,19.2690803 4.6617491,18.7711628 4.91218751,18.3112559 L5.51048176,16.8504015 C5.46666616,16.5976639 5.56074737,16.3011362 5.30096756,16.1153063 C4.71001298,15.4393388 4.02097373,15.3608723 3.2572033,15.1090239 L3.25075329,15.1034668 L2.13779254,14.5953241 C2.13779254,14.5953241 2.20585129,14.3110221 2.96472861,13.8851248 L3.49429686,13.7775391 L6.77757556,14.8267224 C7.64966171,15.0643447 8.48504952,15.4024396 9.47323589,15.374654 L9.47323589,15.3959933 C10.7338797,15.5044682 12.1889135,15.6611788 13.226031,14.9492012 C13.4620125,14.8140522 13.7229044,14.646005 13.9575514,14.4695111 L13.9575514,14.4699556 C13.9599979,14.4681774 13.9624445,14.4659545 13.964891,14.4641762 C13.9682273,14.4615088 13.9720083,14.4590637 13.9755669,14.4563963 C13.9753445,14.456174 13.9753445,14.4559517 13.9753445,14.4559517 C14.3260917,14.1880987 14.6505941,13.8742329 14.8756773,13.5096861 C15.8925551,11.6582776 17.0660125,9.8162051 18.1607353,8.00880896 C18.1894267,8.00880896 18.2612665,8.01592207 18.2403596,7.96501889 L18.4636634,7.96501889 C18.456991,7.97946739 18.456991,8.00058443 18.4792324,8.00880896 L18.5217136,8.00880896 C18.5786516,8.22420275 18.434972,8.37580085 18.3847064,8.51206131 C18.2256802,8.67099481 18.2118906,8.9079502 18.0808886,9.11045147 C17.9163021,9.61348154 17.6138187,10.1396292 17.3767252,10.6146514 C16.8349241,11.8676697 16.201266,13.070674 15.6316632,14.3092439 C15.5598234,14.6548964 15.4450577,15.1441448 15.8060359,15.3959933 L17.0302038,15.3604278 C17.9590056,15.0854617 19.0670732,14.732696 19.9820853,14.4079382 C20.7821093,14.6866831 21.2209325,14.9240831 21.7106886,15.2406164 L21.6043746,15.3377547 C21.0067476,15.3813225 20.3228239,15.7845468 19.767678,15.9276981 C19.7398762,16.1079709 19.7536659,16.3175853 19.7469935,16.5038598 C19.7398762,17.001555 20.567702,17.030452 20.409343,17.6061691 C20.2294099,17.6784116 20.1851495,17.4839126 20.049032,17.4472357 C19.2632426,17.123367 18.607343,16.5552075 17.6927758,16.5829931 C16.8871915,16.6334517 16.0733778,16.7354803 15.2391021,16.7792704 C14.8754549,16.7979423 14.4764437,16.8079451 14.1052344,16.7921629 C13.5136126,16.8348416 12.8078923,16.7565974 12.2396239,16.9146417 C12.1671169,16.9651003 12.1671169,17.0586822 12.1749014,17.1515971 C12.1386479,17.1455954 12.1386479,17.1884964 12.1386479,17.2176157 C11.8719732,17.8789124 11.9722821,18.750268 12.1749014,19.4271246 L12.1749014,19.9181513 C12.1593324,19.9099268 12.1457651,19.9245976 12.1386479,19.931933 C12.203148,19.9537169 12.1593324,20.0401856 12.1749014,20.0904219 C12.1386479,20.1477713 12.0365598,20.1126504 11.9649424,20.1190966 C11.3103773,18.8874176 10.3239703,17.5768276 9.09023861,16.7921629 C8.54977206,16.6054438 7.81580513,16.5903285 7.28201101,16.8066114 C6.22420898,17.7222017 5.48156791,18.8943084 4.87682365,19.9961732 C4.81543732,20.0866431 4.74982513,20.1755569 4.68265603,20.2658045 C10.1811804,26.4655444 18.8764642,29.9227369 18.8764642,29.9227369 C18.8764642,29.9227369 20.9406906,29.0491584 23.6743838,27.4713823 C23.6779424,27.4693817 23.6812786,27.4673812 23.6848372,27.4653806 C23.6875062,27.4638246 23.6899528,27.4624909 23.6926217,27.4609349 C27.5944344,25.206969 32.879441,21.5054857 35.6327067,16.7799373 C35.6327067,16.7799373 36.3717891,15.602718 36.7870365,14.3323615 C36.7652399,14.3145787 36.3744581,14.0167173 36.3477684,14.003158 C35.6389343,13.6546157 35.3773751,13.6086028 35.3773751,13.6086028 C35.3773751,13.6086028 34.8128879,13.4132146 34.8135551,13.4132146 C34.6605341,13.4167712 34.4917217,13.3723142 34.4592492,13.3089631 C34.4439027,13.1531416 34.5626719,12.8241604 34.5146304,12.4662822 C34.4603613,12.0648362 34.5551098,11.7511926 34.5551098,11.7511926 C35.8973796,11.928798 36.5999861,12.2791185 37.2836874,12.5431927 L37.2836874,12.5431927 Z" id="Fill-51" sketch:type="MSShapeGroup"></path>
            </g>
        </g>
    </g>
</svg>