<?xml version="1.0" encoding="utf-8"?>
<!-- Generator: Adobe Illustrator 19.1.0, SVG Export Plug-In . SVG Version: 6.00 Build 0)  -->
<svg version="1.1" id="Calque_1" xmlns="http://www.w3.org/2000/svg" xmlns:xlink="http://www.w3.org/1999/xlink" x="0px" y="0px"
	 viewBox="0 0 1080 388.6" enable-background="new 0 0 1080 388.6" xml:space="preserve">
<g>
	<g>
		<g>
			<path fill="#434343" d="M490.2,244.6c-3.6,0.5-6.3,0.5-9.3,0.5c-4.1,0-8.5-0.3-11-0.5v-207c3-0.3,7.4-0.5,9.9-0.5
				c3.8,0,7.7,0.3,10.4,0.5V244.6z"/>
			<path fill="#434343" d="M649.6,244.6c-3.3-20.8-8.2-43.3-12.6-63.8h-76.7c-4.4,20.5-9,43-12.3,63.8c0,0-6.8,0.5-11.8,0.5
				c-2.2,0-4.9-0.3-7.4-0.5c23.8-139.7,57.5-207,57.5-207c4.9-0.5,9.6-0.5,13.4-0.5c7.4,0,12.3,0.5,12.3,0.5s34.5,76.4,57.2,207
				c-2.7,0.3-5.2,0.5-7.4,0.5C657,245.1,652.9,244.8,649.6,244.6z M598.1,53.4c0,0-20.5,52.3-33.7,110.6h68.2
				C620,105.7,599.5,53.4,599.5,53.4H598.1z"/>
			<path fill="#434343" d="M837.5,244.6c0,0-6.3,0.5-9.6,0.5c-3.3,0-6.3,0-9.9-0.5V146h-93.9v98.6c-3.8,0.5-5.7,0.5-9,0.5
				c-3.8,0-7.9-0.3-10.4-0.5v-207c3-0.3,6.6-0.5,9-0.5c4.1,0,7.7,0.3,10.4,0.5v91.2H818V37.5c3.6-0.5,6.6-0.5,9.9-0.5
				c3.8,0,7.1,0.3,9.6,0.5V244.6z"/>
			<path fill="#434343" d="M975.5,167.9L940.7,106c-27.4-49-30.1-56.4-30.1-56.4h-1.4c0,0,0.5,7.1,0.5,56.7v138.3
				c-3,0.3-6.8,0.5-9.3,0.5c-4.1,0-7.7-0.3-10.1-0.5v-207c6-0.3,12-0.3,17-0.3c10.1,0,17,0.3,17,0.3l37.2,68.2
				c13.7,24.9,14.5,29.6,14.5,29.6h1.1c0,0,0.8-4.4,14.5-29.6l37.2-68.2c5.5-0.3,11.2-0.3,16.2-0.3c10.1,0,17.8,0.3,17.8,0.3v207
				c-2.5,0.3-6,0.5-10.1,0.5c-2.5,0-6.3-0.3-9.3-0.5V106.3c0-49,0.5-56.7,0.5-56.7h-1.4c0,0-2.2,6.8-30.1,56.4l-34.8,61.9H975.5z"/>
		</g>
	</g>
	<g>
		<g>
			<path fill="#434343" d="M469.8,272.2h2.2v37.3h-2.2V272.2z"/>
			<path fill="#434343" d="M483.1,272.2l16.2,33.8h0.1v-33.8h2.2v37.3h-2.9l-16.3-33.8h-0.1v33.8h-2.2v-37.3H483.1z"/>
			<path fill="#434343" d="M516.7,274.2h-9.9v-2h22v2h-9.9v35.3h-2.2V274.2z"/>
			<path fill="#434343" d="M534.3,272.2H552v2h-15.6v14.9H551v2h-14.6v16.4h16.1v2h-18.3V272.2z"/>
			<path fill="#434343" d="M558.7,272.2h10.9c5.2,0,9.2,3,9.2,9.8c0,4.9-2.6,8.7-7.5,9.2v0.1c6.1,0.4,7.2,4.1,7.2,9.2v3.9
				c0,2.1,0.3,3.5,1.3,5h-2.5c-0.6-1.1-0.9-2.9-0.9-5.1v-3.8c0-5.3-1.5-8.4-7.5-8.4h-8v17.3h-2.2V272.2z M567.9,290.5
				c4.1,0,8.8-1.4,8.8-8.5c0-5-2.8-8-7.4-8h-8.4v16.4H567.9z"/>
			<path fill="#434343" d="M589.5,272.2l16.2,33.8h0.1v-33.8h2.2v37.3h-2.9l-16.3-33.8h-0.1v33.8h-2.2v-37.3H589.5z"/>
			<path fill="#434343" d="M632.6,297.9h-14l-3.5,11.6h-2.2l11.6-37.3h2.8l11.2,37.3h-2.2L632.6,297.9z M625.8,274.4h-0.1l-6.6,21.7
				h13.1L625.8,274.4z"/>
			<path fill="#434343" d="M647.5,274.2h-9.9v-2h22v2h-9.9v35.3h-2.2V274.2z"/>
			<path fill="#434343" d="M665.1,272.2h2.2v37.3h-2.2V272.2z"/>
			<path fill="#434343" d="M698.7,290.9c0,16.3-6.7,19.3-12,19.3c-7.1,0-12.1-4.8-12.1-19.3c0-14.5,5.2-19.3,12.1-19.3
				C694.1,271.6,698.7,276.4,698.7,290.9z M676.8,290.9c0,10.2,2.1,17.5,9.9,17.5c6.8,0,9.8-5.6,9.8-17.5c0-10.1-2.2-17.5-9.8-17.5
				C679.4,273.4,676.8,280.6,676.8,290.9z"/>
			<path fill="#434343" d="M708.6,272.2l16.2,33.8h0.1v-33.8h2.2v37.3h-2.9L708,275.7h-0.1v33.8h-2.2v-37.3H708.6z"/>
			<path fill="#434343" d="M751.7,297.9h-14l-3.6,11.6h-2.2l11.6-37.3h2.8l11.2,37.3h-2.2L751.7,297.9z M744.8,274.4h-0.1l-6.6,21.7
				h13.1L744.8,274.4z"/>
			<path fill="#434343" d="M762.6,272.2h2.2v35.3h15.6v2h-17.8V272.2z"/>
			<path fill="#434343" d="M816.2,297.9h-14l-3.5,11.6h-2.2l11.6-37.3h2.8l11.2,37.3h-2.2L816.2,297.9z M809.3,274.4h-0.1l-6.6,21.7
				h13.1L809.3,274.4z"/>
			<path fill="#434343" d="M827.9,300c0,4.7,3.1,8.4,8.5,8.4c5.2,0,8.6-3.7,8.6-8.5c0-4.9-2.6-6.5-6.8-8l-4.2-1.5
				c-4.9-1.7-7.6-4.1-7.6-9.1c0-6,4.1-9.7,10-9.7c6.9,0,10,3.9,10,10.1h-2.2c0-5-2.3-8.3-7.6-8.3c-4.2,0-8,1.9-8,7.7
				c0,4.1,2.2,6.1,5.5,7.2l5.5,1.9c4.8,1.7,7.6,4,7.6,9.5c0,6.6-4.9,10.4-10.8,10.4c-8.6,0-10.7-6.1-10.7-9.7V298h2.2V300z"/>
			<path fill="#434343" d="M855.2,300c0,4.7,3.1,8.4,8.5,8.4c5.2,0,8.6-3.7,8.6-8.5c0-4.9-2.6-6.5-6.8-8l-4.2-1.5
				c-4.9-1.7-7.6-4.1-7.6-9.1c0-6,4.1-9.7,10-9.7c6.9,0,10,3.9,10,10.1h-2.2c0-5-2.3-8.3-7.6-8.3c-4.2,0-8,1.9-8,7.7
				c0,4.1,2.2,6.1,5.5,7.2l5.5,1.9c4.8,1.7,7.6,4,7.6,9.5c0,6.6-4.9,10.4-10.8,10.4c-8.6,0-10.7-6.1-10.7-9.7V298h2.2V300z"/>
			<path fill="#434343" d="M904.5,290.9c0,16.3-6.7,19.3-12,19.3c-7.2,0-12.1-4.8-12.1-19.3c0-14.5,5.2-19.3,12.1-19.3
				C899.9,271.6,904.5,276.4,904.5,290.9z M882.6,290.9c0,10.2,2.1,17.5,9.9,17.5c6.8,0,9.8-5.6,9.8-17.5c0-10.1-2.2-17.5-9.8-17.5
				C885.2,273.4,882.6,280.6,882.6,290.9z"/>
			<path fill="#434343" d="M930.9,282.9c0-5-2.7-9.6-8.1-9.6c-7.4,0-9.9,6.9-9.9,17.4c0,10,2,17.5,9.6,17.5c7.2,0,8.9-8.5,8.9-11.4
				h2.2c0,4.4-2.2,13.2-11.5,13.2c-8.1,0-11.4-7.1-11.4-19.2c0-11.7,3.3-19.3,12-19.3c8.7,0,10.4,7.7,10.4,11.3H930.9z"/>
			<path fill="#434343" d="M940.1,272.2h2.2v37.3h-2.2V272.2z"/>
			<path fill="#434343" d="M967.3,297.9h-14l-3.5,11.6h-2.2l11.6-37.3h2.8l11.2,37.3h-2.2L967.3,297.9z M960.4,274.4h-0.1l-6.6,21.7
				h13.1L960.4,274.4z"/>
			<path fill="#434343" d="M982.1,274.2h-9.9v-2h22v2h-9.9v35.3h-2.2V274.2z"/>
			<path fill="#434343" d="M999.7,272.2h2.2v37.3h-2.2V272.2z"/>
			<path fill="#434343" d="M1033.3,290.9c0,16.3-6.7,19.3-12,19.3c-7.1,0-12.1-4.8-12.1-19.3c0-14.5,5.2-19.3,12.1-19.3
				C1028.7,271.6,1033.3,276.4,1033.3,290.9z M1011.5,290.9c0,10.2,2.1,17.5,9.9,17.5c6.8,0,9.8-5.6,9.8-17.5
				c0-10.1-2.2-17.5-9.8-17.5C1014,273.4,1011.5,280.6,1011.5,290.9z"/>
			<path fill="#434343" d="M1043.2,272.2l16.2,33.8h0.1v-33.8h2.2v37.3h-2.9l-16.3-33.8h-0.1v33.8h-2.2v-37.3H1043.2z"/>
			<path fill="#434343" d="M491.6,344.3c0,16.7-6.9,19.7-12.3,19.7c-7.3,0-12.3-4.9-12.3-19.7c0-14.8,5.3-19.7,12.3-19.7
				C486.9,324.7,491.6,329.6,491.6,344.3z M469.2,344.3c0,10.5,2.1,17.9,10.1,17.9c7,0,10-5.8,10-17.9c0-10.3-2.3-17.9-10-17.9
				C471.8,326.5,469.2,333.9,469.2,344.3z"/>
			<path fill="#434343" d="M502.9,325.3h18.2v2h-16v15.2H520v2h-14.9v18.8h-2.2V325.3z"/>
			<path fill="#434343" d="M571.7,363.4H567V345H554v18.4h-4.7v-38.1h4.7v15.6H567v-15.6h4.7V363.4z"/>
			<path fill="#434343" d="M583.9,325.3h19.7v4.2h-15v11.9h14.1v4.2h-14.1v13.7h15.6v4.2h-20.3V325.3z"/>
			<path fill="#434343" d="M622.1,325.3h6.3l10.2,38.1h-4.9l-2.7-10.5h-12.2l-2.8,10.5h-4.9L622.1,325.3z M619.8,349.1h10.2
				l-4.8-18.4h-0.1L619.8,349.1z"/>
			<path fill="#434343" d="M647.4,325.3h4.7v33.9h15.5v4.2h-20.2V325.3z"/>
			<path fill="#434343" d="M677.1,325.3h4.7v38.1h-4.7V325.3z"/>
			<path fill="#434343" d="M694,325.3h6.1l12.6,31.8h0.1v-31.8h4.7v38.1H711l-12.2-30.8h-0.1v30.8H694V325.3z"/>
			<path fill="#434343" d="M747.7,335.9c-0.2-4-1.7-7.5-6.4-7.5c-6.5,0-7.4,7.1-7.4,15.9c0,8.8,0.9,16,7.4,16c6.5,0,7-7.8,7-12.9
				h-7.5v-3.8h11.8v19.8h-3.5v-5.2H749c-1,3.3-4.1,5.9-8.2,5.9c-9.9,0-11.7-9.5-11.7-19.8c0-9.6,1.8-19.8,12.3-19.8
				c10.9,0,11.2,9.3,11.3,11.3H747.7z"/>
			<path fill="#434343" d="M783.3,325.3h7.9l7.6,30.2h0.1l7.6-30.2h7.9v38.1h-4.7v-33.3h-0.1l-8.4,33.3h-4.7l-8.4-33.3H788v33.3
				h-4.7V325.3z"/>
			<path fill="#434343" d="M826.7,325.3h4.7v38.1h-4.7V325.3z"/>
			<path fill="#434343" d="M843.6,325.3h6.1l12.6,31.8h0.1v-31.8h4.7v38.1h-6.5l-12.2-30.8h-0.1v30.8h-4.7V325.3z"/>
			<path fill="#434343" d="M879.3,325.3h4.7v38.1h-4.7V325.3z"/>
			<path fill="#434343" d="M912.4,335.2c0-4-1.4-6.8-5.9-6.8c-3.9,0-6.3,2.1-6.3,6.2c0,10.7,18,4.3,18,18.2
				c0,8.8-6.5,11.3-11.8,11.3c-8.9,0-11.5-4.6-11.5-12.7h4.7c0,4.3,0.3,8.9,7.1,8.9c3.7,0,6.6-2.7,6.6-6.7c0-10.8-18-4.5-18-18.5
				c0-3.5,1.5-10.5,11.2-10.5c7.3,0,10.6,3.6,10.7,10.6H912.4z"/>
			<path fill="#434343" d="M940.5,363.4h-4.7v-33.9h-9.6v-4.2h23.8v4.2h-9.6V363.4z"/>
			<path fill="#434343" d="M959.7,325.3H972c6,0,9.8,3.5,9.8,9.6c0,4.2-1.4,8.5-5.9,9.6v0.1c3.3,0.4,5.2,3.1,5.4,6.4l0.3,6.5
				c0.2,4.2,0.9,5.3,2,6H978c-0.8-0.8-1.2-3.6-1.3-5.5l-0.3-5.9c-0.4-5.2-3.3-5.5-5.7-5.5h-6.3v17h-4.7V325.3z M964.4,342.6h4.6
				c2.8,0,7.8,0,7.8-7.4c0-3.7-2.5-6.1-6.9-6.1h-5.6V342.6z"/>
			<path fill="#434343" d="M993.4,325.3h4.7v38.1h-4.7V325.3z"/>
			<path fill="#434343" d="M1010.3,325.3h19.7v4.2h-15v11.9h14.1v4.2H1015v13.7h15.6v4.2h-20.3V325.3z"/>
			<path fill="#434343" d="M1057.2,335.2c0-4-1.4-6.8-5.9-6.8c-3.9,0-6.3,2.1-6.3,6.2c0,10.7,18,4.3,18,18.2
				c0,8.8-6.5,11.3-11.8,11.3c-8.9,0-11.5-4.6-11.5-12.7h4.7c0,4.3,0.3,8.9,7.2,8.9c3.7,0,6.6-2.7,6.6-6.7c0-10.8-18-4.5-18-18.5
				c0-3.5,1.5-10.5,11.2-10.5c7.3,0,10.6,3.6,10.7,10.6H1057.2z"/>
		</g>
	</g>
	<g>
		<path fill="#434343" d="M42,251.8c0.8-2.4,1.4-5.2,0.8-7.7c-4.9-12.2-8.5-24.9-11.6-37.8c-0.6-3.7-0.2-8-1.2-11.3l-0.7-0.9
			c-1.1-0.1-1,1.4-1.7,2.1c-1.2,9.3-2.9,18.4-4.4,27.5c-1.9,7.1-4.3,14-6,21.3c0.2,2.8-0.7,6.2,1.2,8.7c2.6,4.8,8.2,6,13.3,5.8
			C36.3,259.4,39,255,42,251.8z"/>
		<path fill="#434343" d="M48.7,270.6c-0.6-3.4-0.1-7.3-1.1-10.3l-0.7-0.8c-1-0.1-0.9,1.3-1.5,1.9c-1.1,8.4-2.7,16.7-4,25
			c-1.7,6.5-3.9,12.7-5.4,19.3c0.2,2.5-0.6,5.7,1.1,7.9c2.4,4.4,7.4,5.5,12,5.3c4.3-0.1,6.7-4,9.4-6.9c0.7-2.1,1.3-4.7,0.7-7
			C54.9,293.9,51.6,282.3,48.7,270.6z"/>
		<path fill="#434343" d="M428.9,162.3c1.4-7.3,2.1-14,2.1-21.5c0-64.3-36.3-116.4-114.4-116.4c-34.8,0-69.5,16.4-91.3,33.6
			c-20.5-16.2-52.6-31.7-85.4-33.4c0,0,0,0,0,0c-0.1,0-0.2,0-0.3,0c0,0-0.1,0-0.1,0l0,0c-1.7-0.1-3.8-0.1-5.5-0.1
			C56,24.5,19.7,76.6,19.7,140.8c0,6.7,0.6,13.3,1.8,19.8c4.2-2,8.4-3.9,12.7-5.7c9-2.5,18-5.3,26.6-8.4c4.3-1.7,2.9-6.5,3.5-9.7
			c-2.2-9.9-6.6-18.4-10.3-27.7c-3.6-4.9-3.8-10.8-7.1-15.6c-0.2-1.6-2.7-3.7-0.6-4.7l35.5,35.5c3.8,4.8,8.4,7.9,12.7,12.7l6.9,0.9
			l41.5,0.9c3.1,0.5,6.4,0.9,9.5,1.3l0,0c0,0,0.1,0,0.1,0c0.1,0,0.1,0,0.2,0l0,0c11.5,1.4,22.7,2.1,34.2,3.6c0.5,0.2,0.6,1,1.5,0.7
			l-9.3,15.3c-1.7,1.7-4.7,0.2-7.5-0.3h-11.6h-0.2h-10.2c-7.2,7.2-11.5,15.6-18.1,23.6c-1.4,1.7-3.7,2.3-5.3,3.8
			c-0.6,0.2-1.1-0.2-1.3-0.6l-0.2-23.5c-0.7-3-2.9-6.6-6.2-7.3L82,155.8c-10.3,1.5-19.8,5.3-28.4,10.2c-4.9,3.1-13.7,8.3-13.7,8.3
			l-11.5,7.6c0,0,14.6,36,35.1,60.3c2.4-5.4,4.7-10.9,7.4-16l6.6-16.2c-0.5-2.8,0.6-6.1-2.3-8.1c-6.5-7.5-14.2-8.3-22.6-11.1
			l-0.1-0.1L40.2,185c0,0,0.8-3.1,9.1-7.9l5.9-1.2l36.3,11.6c9.6,2.6,18.9,6.4,29.8,6.1v0.2c13.9,1.2,30,2.9,41.5-4.9
			c2.6-1.5,5.5-3.4,8.1-5.3c0,0,0,0,0,0c0,0,0.1,0,0.1-0.1c0,0,0.1-0.1,0.1-0.1c0,0,0,0,0,0c3.9-3,7.5-6.4,10-10.5
			c11.2-20.5,24.2-40.9,36.3-60.9c0.3,0,1.1,0.1,0.9-0.5h2.5c-0.1,0.2-0.1,0.4,0.2,0.5h0.5c0.6,2.4-1,4.1-1.5,5.6
			c-1.8,1.8-1.9,4.4-3.4,6.6c-1.8,5.6-5.2,11.4-7.8,16.6c-6,13.9-13,27.2-19.3,40.9c-0.8,3.8-2.1,9.2,1.9,12l13.5-0.4
			c10.3-3,22.5-6.9,32.6-10.5c8.8,3.1,13.7,5.7,19.1,9.2l-1.2,1.1c-6.6,0.5-14.2,4.9-20.3,6.5c-0.3,2-0.2,4.3-0.2,6.4
			c-0.1,5.5,9.1,5.8,7.3,12.2c-2,0.8-2.5-1.4-4-1.8c-8.7-3.6-15.9-9.9-26.1-9.6c-8.9,0.6-17.9,1.7-27.1,2.2c-4,0.2-8.4,0.3-12.5,0.1
			c-6.5,0.5-14.3-0.4-20.6,1.4c-0.8,0.6-0.8,1.6-0.7,2.6c-0.4-0.1-0.4,0.4-0.4,0.7c-3,7.3-1.8,17,0.4,24.4v5.4
			c-0.2-0.1-0.3,0.1-0.4,0.2c0.7,0.2,0.2,1.2,0.4,1.8c-0.4,0.6-1.5,0.2-2.3,0.3c-7.2-13.6-18.1-28.1-31.8-36.8
			c-6-2.1-14.1-2.2-20,0.2c-11.7,10.1-19.9,23.1-26.6,35.3c-0.7,1-1.4,2-2.1,3c60.8,68.6,157,106.9,157,106.9s22.8-9.7,53.1-27.1
			c0,0,0,0,0,0c0,0,0.1,0,0.1-0.1c0,0,0.1,0,0.1,0l0,0c43.2-24.9,101.6-65.9,132-118.2c0,0,8.2-13,12.8-27.1
			c-0.2-0.2-4.6-3.5-4.9-3.6c-7.8-3.9-10.7-4.4-10.7-4.4s-6.2-2.2-6.2-2.2c-1.7,0-3.6-0.5-3.9-1.2c-0.2-1.7,1.1-5.4,0.6-9.3
			c-0.6-4.4,0.4-7.9,0.4-7.9C413.6,155.5,421.4,159.4,428.9,162.3z M283.7,164.5c3.7-3,6.1-2.6,11.7-5.6l1.4-0.5
			c1-0.2,2-1.3,2.8-1.9c4.2-9.9,1.4-21.8,1-32.7v-23.6c0.7-0.1-0.1-1.4,0.7-1.4c1.3-0.1,0.1-2.2,1.2-2.4c4.7,14.9,9.6,30.5,16.5,45
			c3.4,4.2,6.3,11,12.8,10.8c12.3,0,23.1-3.1,34.6-1.8c3,0.4,6.3,0.4,9,1c-1.6,4.1-3.9,11.5-6.6,15.2c-4.2,0.3-6.9-0.1-10.3-0.3
			c-3.8-0.1-7.9,0.5-10.3,1.9c-3,4.5-7.7,8.5-12,11.2c-0.9-0.2-1.4-0.9-1.4-1.9c0.1-3,0.5-7-0.4-10.1c-4.2-3-10.5-0.8-15.8-1.2
			c-3.8,1.4-8.1,1.6-11.6,3.8c-4.1,2.1-6.5,2.2-10.8,3.7c-5.3-2.9-11.3-4.2-16.9-6.5C279.1,165.7,282.8,165.1,283.7,164.5z
			 M395.9,141.3l-2.9,15.8c0.1,9.7-3.2,25.7-0.6,28.1c1.7-0.2,8.2,2.6,13.7,2.2c0.4-0.1,3.8,0.3,4.3,0.1c-1.8,6.2-7.2,12.1-9.6,17.7
			c-6.5,1.7-12.8,1.9-20.3,3c-10.6,1.3-17.6,2.1-37.9,1.8c-8.1,1-20.8-2.2-28.2-4.5c-5.5-1.7-8.8-3.4-14.4-4.5
			c-5,1.8-9.2,6.8-12.8,10.8c-5.1,5.9-8.1,12.7-12.9,19c-5.3,6.3-9.4,13.1-15.3,19.1c-1.1,0.2-2.5-0.1-2.5-1.4
			c0.3-6.5,4.5-11.5,6.4-17.4c3.7-12.7,8.8-24.9,10-38.8c-0.5-0.6-0.5-1.6-0.7-2.4c-2.4-2.2-5.2-3.1-7.8-4.4
			c-13.9-6.2-27.7-12.8-42.1-17.9c-6.3-1.3-8.5-3.6-15.5-2.9c2.5-4.2,3.5-6.7,5.9-10.8l2.1-4.7c9.5,1.3,15.1,5.4,24.2,7.7
			c3.5-0.3,7.7,0.9,10.6-1c5.3-4.7,7.5-11.6,12.4-17.1c0.9,0.1,1.7,1.1,2.1,1.9c0.6,8.2,0.1,17.4,1.3,25.6
			c4.1,5.7,10.7,6.7,16.3,9.6c18.4,6.4,37.4,11.7,56.3,17c11.2,0.5,23.4-0.4,29.1-6.9c4.9-11.6,13.1-23.5,16.4-35.9
			c6.7-15.9,14.1-36.6,17.6-46.4c1.6-4.9,2.5-9.6,3.4-11.7c0.9-2.1,2.3-0.3,2.3-0.3C403.8,107.6,399.4,121.6,395.9,141.3z"/>
	</g>
</g>
</svg>
