<?xml version="1.0" encoding="UTF-8" standalone="no"?>
<svg width="50px" height="50px" viewBox="0 0 50 50" version="1.1" xmlns="http://www.w3.org/2000/svg" xmlns:xlink="http://www.w3.org/1999/xlink" xmlns:sketch="http://www.bohemiancoding.com/sketch/ns">
    <!-- Generator: Sketch 3.3.3 (12081) - http://www.bohemiancoding.com/sketch -->
    <title>instagram</title>
    <desc>Created with Sketch.</desc>
    <defs></defs>
    <g id="Page-1" stroke="none" stroke-width="1" fill="none" fill-rule="evenodd" sketch:type="MSPage">
        <g id="instagram" sketch:type="MSArtboardGroup" fill="#434343">
            <g id="Group" sketch:type="MSLayerGroup" transform="translate(1.000000, 1.000000)">
                <path d="M35.10912,23.38896 C35.10912,29.52336 30.13536,34.49808 24,34.49808 C17.86512,34.49808 12.89232,29.52384 12.89232,23.38896 C12.89232,22.00032 13.15824,20.6784 13.6224,19.45248 L0,19.45248 L0,36.00048 C0,42.6288 5.37312,48 12,48 L36.00048,48 C42.62784,48 48,42.6288 48,36.00048 L48,19.45248 L34.37712,19.45248 C34.84224,20.67792 35.10912,22.00032 35.10912,23.38896 L35.10912,23.38896 Z" id="Shape" sketch:type="MSShapeGroup"></path>
                <circle id="Oval" sketch:type="MSShapeGroup" cx="24" cy="23.38848" r="6.66672"></circle>
                <path d="M36.00048,0.00096 L12.63216,0.00096 L12.63216,12.51408 L10.008,12.51408 L10.008,0.18 C9.09504,0.33168 8.21424,0.57792 7.38384,0.924 L7.38384,12.51456 L4.76016,12.51456 L4.76016,2.44704 C1.872,4.63824 0,8.09712 0,12.00144 L0,15.51504 L16.16544,15.51504 C18.17472,13.5168 20.94288,12.2808 24,12.2808 C27.05712,12.2808 29.8248,13.5168 31.8336,15.51504 L48,15.51504 L48,12.00144 C48,5.37408 42.62784,0.00096 36.00048,0.00096 L36.00048,0.00096 Z M41.3616,11.3496 C41.3616,12.09312 40.7568,12.6984 40.01232,12.6984 L35.96688,12.6984 C35.22096,12.6984 34.6176,12.09504 34.6176,11.3496 L34.6176,7.3032 C34.6176,6.55872 35.22096,5.95392 35.96688,5.95392 L40.01232,5.95392 C40.7568,5.95392 41.3616,6.55728 41.3616,7.3032 L41.3616,11.3496 L41.3616,11.3496 Z" id="Shape" sketch:type="MSShapeGroup"></path>
            </g>
        </g>
    </g>
</svg>