<?xml version="1.0" encoding="utf-8"?>
<!-- Generator: Adobe Illustrator 19.1.0, SVG Export Plug-In . SVG Version: 6.00 Build 0)  -->
<svg version="1.1" id="Calque_1" xmlns="http://www.w3.org/2000/svg" xmlns:xlink="http://www.w3.org/1999/xlink" x="0px" y="0px"
	 viewBox="0 0 778 322" enable-background="new 0 0 778 322" xml:space="preserve">
<g>
	<g>
		<path fill="#FFFFFF" d="M746.5,133.4c-9.3-13.5-19.5-26-32-36.5c-1.4-1.2-3.5-2.1-5.3-2.2c-5.3,0-10.7,0.1-15.9,0.9
			c-6.8,1.1-13.5,2.8-20.1,4.5c-1,0.3-1.7,1.8-2.5,2.7c1.2,0.4,2.5,1.4,3.6,1.1c8.8-2.1,17.7-1.8,26.5-0.1
			c13.6,2.5,25.6,7.7,31.8,21.6c6.8,15.2,3.9,30.4-0.4,45.6c-3.5,12.3-9.9,23.1-17.7,33.1c-14.8,19-31.8,28.5-52.3,29.6
			c0,0,0-0.1,0-0.1c-0.3,0.1-0.6,0.1-0.9,0.1c-1.1,0-2.3,0.1-3.4,0.1c-2.9-0.2-6.2-0.8-8.5-1c-0.7-0.1-1.4-0.2-2.1-0.3
			c-4.7-1.4-6.2-3.4-6.2-3.4l0,0c-0.4-0.6-0.7-1.3-0.9-2.1c-1.4-6.8-1.4-13.9-1.9-20.9c0.5-0.1,1.1-0.3,1.6-0.4
			c0.6,0.8,1.2,1.7,1.8,2.5c1.5,2,2.6,3.3,3.5,4c7.6-4.6,14.8-10.4,20.4-17.9c2-4.5,3.8-8.2,5.3-12.1c1.6-4.1,3-8.2,4.1-12.4
			c3.6-14.2,3.3-14.9-8.6-23c-6-4.1-8.8-3.8-14.1,1.3c-8.3,8.1-14.4,17.9-18.9,28.5c-5.4,12.5-11.5,24.5-20.1,35.1
			c-5.1,6.3-14.8,15.9-23.5,19.7c-0.2,0.3-0.4,0.6-0.5,0.9c-5.3,2-10.8,3.4-16.7,2.8c-4.1-0.4-8.4-1.9-9.2-5.8
			c-1.4-6.8-4.1-19,0.2-31.7c4.4-16,11.8-24.7,25.8-33.9c-0.2,3.2,0.5,4.4-0.7,7.7c3.3,1.5,7.6,2.7,11.5,0.7
			c2-5.6,4.4-13.6,2.3-17.2c-1.5-2.5-4.2-3.9-11-6.7c-6.7-2.8-10.7-2.9-16,2.2c-8.3,8.1-14.4,17.9-18.9,28.5
			c-5.4,12.5-11.5,24.5-20.1,35.1c-5.1,6.3-12.7,17.9-19.4,19.5c-3.1,0.8-6.8-1.3-9.4-6c-0.6-2.2-0.7-4.9-0.2-8
			c3.6-22.7,12.6-43.1,28.1-60.3c1.2-1.4,2.9-2.3,4.1-3.7c3-3.5,2.2-6.3-2.1-7.7c-5.6-1.8-11.1-3.6-16.8-4.8
			c-1.7-0.4-4.4,0.5-5.6,1.8c-11.2,12.2-22.3,24.5-33,37.1c-0.7,0.8-1.4,1.7-2,2.5c2.8-10.2,6-22,9.2-33.8c1.3-4.6,0.1-8-4-10.8
			c-4.6-3.1-8.7-6.9-13.2-10.1c-1.1-0.7-4.2-0.6-4.4,0c-0.9,2.2-1.5,4.8-1.3,7.2c0.5,10.2-1.9,19.7-5.4,28.8
			c-0.8,2.2-1.8,4.3-2.7,6.5c-0.9,1.8-3.1,5.6-3.9,7.2c-10.4,19.5-24.5,35-44.9,43.9c-6.8,2.9-13.7,5.5-21.4,4.7
			c-4.1-0.4-8.4-1.9-9.2-5.8c-1.4-6.8-1.4-13.9-1.9-20.9c0.5-0.1,1.1-0.3,1.6-0.4c0.6,0.8,1.2,1.7,1.8,2.5c2.8,3.5,3.9,4.9,5.8,4.9
			c7.6-3,13.5-11.2,17.9-18.3l0,0c2-4.7,3.9-8.6,5.5-12.6c1.6-4.1,3-8.2,4.1-12.4c3.6-14.2,3.3-14.9-8.6-23
			c-6.1-4.1-8.8-3.8-14.1,1.3c-8.3,8.1-14.4,17.9-18.9,28.5c-5.4,12.5-11.5,24.5-20.1,35.1c-1.1,1.4-5.8,3.9-12.4,6.9
			c3.1-8.6,3.1-20.5-0.5-38.4c-3.1-15.6,6.9-33.3,4.5-36.8c-0.4-0.5-14.5-7.2-21.7-7.2c-7.2,0,0.1,17.4-15.7,38.3
			c-14.9,20-25.4,33-41.7,47c-3.7,1.9-7.9,3.7-12.5,5.7c-6.8,2.9-13.7,5.5-21.4,4.7c-4.1-0.4-8.4-1.9-9.2-5.8
			c-1.4-6.8-1.4-13.9-1.9-20.9c0.5-0.1,1.1-0.3,1.6-0.4c0.6,0.8,1.2,1.7,1.8,2.5c1.9,2.4,3,3.8,4.1,4.4c9.2-4.3,15.9-12.6,20.8-21.7
			c1-2.1,1.4-2.7,2.7-5c0.5-1.2,1-2.5,1.5-3.7c1.6-4.1,3-8.2,4.1-12.4c3.6-14.2,3.3-14.9-8.6-23c-6-4.1-8.8-3.8-14.1,1.3
			c-8.3,8.1-14.4,17.9-18.9,28.5c-5.4,12.5-11.5,24.5-20.1,35.1c-0.9,1.1-2,2.4-3.2,3.8c-3.5,3.4-7.2,6.8-11.1,10
			c-6.1,5-13,9.1-19.5,13.6c-0.4-0.4-0.8-0.8-1.2-1.2c1.4-3.5,2.3-7.4,4.3-10.5c8.1-12.5,16.4-24.8,24.8-37
			c6.5-9.4,5.1-16.5-4.8-22.3c-2.2-1.3-4.5-2.4-7-3.8c1.6-2.6,3.1-4.7,4.3-7c3.7-6.8,7.4-13.6,10.7-20.6c0.6-1.3,0.3-3.8-0.6-4.9
			c-3.4-4.2-7.1-8.2-11-12c-1.2-1.1-3.7-2-5.1-1.5c-12.5,4.9-23.3,12.1-29.8,24.5c-3.7,7-2,15.8,4.3,20.5c3.5,2.6,7.6,4.6,11.4,6.9
			c-14,21.4-30,40.9-50.6,57.3c-0.6,4.9-1.8,9.7-2.9,14.4c0.6-0.1,1.2-0.3,1.5-0.6c10.7-10.7,21.6-21.3,31.7-32.6
			c10.3-11.5,19.8-23.7,29.8-35.6c3.9,1.7,7.5,3.1,11.3,4.7c-6.3,7.6-12.4,14.3-17.8,21.4c-6,7.9-11.6,16.1-17,24.4
			c-1.4,2.1-2.6,6.1-1.6,7.7c3.8,5.7,8.5,10.9,13.1,16.1c2.1,2.4,4.6,1.7,6.9-0.3c11.9-10.3,27.3-20.7,38.3-37.6c0,0,0,0,0,0
			c1-1.1,2-2.2,3-3.3c-0.1,1.1-0.3,3-0.4,4.8c-0.5,9.1,1.3,17.1,10,21.9c2.1,1.2,4.1,2.8,6.1,4.2c9,6.7,18.5,8.7,28.7,2.8
			c0.6-0.1,3.9-2.3,4.3-2.5c13.8-6.2,22-12.1,32.2-23.3c16-17.7,23.6-30.6,33.5-42.5c-0.7,21.6,3.7,24.9,1.1,39.8
			c-2.7,15.1-8.3,16-18,20.5c-17.4,8.1-36,2.7-38.9,5.4c-2.1,1.9-5.2,9.7-3.1,13.2c0.7,1.1,4.4,1.2,9.4,0.8
			c11.1,2.7,40.5-1,58.1-10.6c11.6-6.3,25.6-23.7,34.3-33.7c-0.1,1.1-0.3,3-0.4,4.8c-0.5,9.1,1.3,17.1,10,21.9
			c2.1,1.2,4.1,2.8,6.1,4.2c6.8,5,13.9,7.4,21.3,5.8c0,0,0,0,0,0c0,0,0,0,0,0c2.4-0.5,4.9-1.5,7.4-3c0.3-0.2,0.6-0.3,0.8-0.5
			c4.8-2.2,10.6-5.2,15-8.5c12.2-9.2,23.3-18.8,30.7-32.9c3.3-6.4,7.5-12.4,11.4-18.9c0,0.8,0.2,1.3,0.1,1.7
			c-4.9,12.9-9.9,25.8-14.6,38.8c-0.6,1.6-0.7,4.3,0.2,5.3c3.6,4,7.7,7.6,11.7,11.3c2.2,2,3.9,1.4,4.9-1.3c0.4-1.2,0.6-2.4,1-3.6
			c0.5-1.8,1.1-3.6,1.7-5.4c0.2-0.9,0.4-1.8,0.6-2.7c4.6-9.5,9.1-19.1,14.3-28.3c4.6-8.1,11-14.8,19.6-20.8
			c-0.9,2.2-1.4,3.4-1.9,4.6c-6.1,12.7-8.6,26.3-7.9,40.3c0.1,2.5,0.6,4.9,1.3,7.1c0,0,0,0,0,0c2.7,11.7,10.6,24.5,20.8,20.9
			c0.1,0.1,0.3,0.1,0.4,0.2c0-0.1,0-0.2,0-0.4c0.8-0.3,1.5-0.7,2.3-1.2c11.2-6.9,19.4-22.7,28.1-32.6c-0.1,1.1-0.3,3-0.4,4.8
			c-0.5,9.1,1.3,17.1,10,21.9c2.1,1.2,4.1,2.8,6.1,4.2c9,6.7,18.5,8.7,28.7,2.8c0.9-0.5,2.2-1.9,3.5-3.5c0.8-0.7,1.6-1.6,2.7-2.8
			c1.1-1.2,2.2-2.4,3.3-3.6c0,0,0,0,0.1,0c0,0,0,0,0,0c7.7-8.6,15.3-17.4,22.9-26.1c-0.1,1.1-0.3,3-0.4,4.8
			c-0.4,7.5,0.8,14.3,6.1,19.2c0,0,0,0,0,0c0,0,0,0,0.1,0c0.5,0.5,1.1,1,1.8,1.4c2.9,2.6,8.6,7.6,17.1,10.4c0.2,0.1,0.5,0.2,0.7,0.2
			c0,0,0,0,0,0c0,0,0,0,0,0c1.6,0.5,3.1,0.8,4.7,1c9.2,1.3,20.6-0.7,28.9-2.4c17.4-3.5,31.1-13.6,42.7-26.1
			c13.6-14.6,21.5-32.6,25-52.7C754.2,151.5,752.6,142.2,746.5,133.4z M669,159.4c-1.1,14.1-11.6,29.7-27.7,38.4
			C645.5,181.3,654.7,168.8,669,159.4z M407.5,154.9c-1.1,14.1-11.6,29.7-27.7,38.4C384.1,176.8,393.3,164.3,407.5,154.9z
			 M250.1,154.1c-1.1,14.1-11.6,29.7-27.7,38.4C226.6,176,235.8,163.5,250.1,154.1z M167.5,154.9c-5.4-3.4-10-6.3-15.2-9.5
			c7-7.9,14.9-12.5,25.3-14.4C174.4,138.7,171.1,146.5,167.5,154.9z"/>
		<path fill="#FFFFFF" d="M133.9,146.2c4.5-10.7,11.5-29.2,11.1-64.4c-0.2-21.5-7.8-22.5-21.1-32.1c-6.9-5-13-5.2-18.2,1.6
			c-4.9,6.3-9.2,13.2-13.1,20.1c-12.5,21.9-21.6,45.4-29,69.1c-2.1,6.9-4.1,13.7-6.2,20.6c-0.8-2.5,0.4-4.8,1-6.9
			c4.6-15.8,9.5-31.5,13.9-47.4c6-21.2,13.9-43.5,19.3-64.9c2.6-10.3,1.4-12.4-8.3-17.2c-6.2-3-8.1-5.6-14.6-8
			c-1.4-0.5-3.9,0.1-5.1,1.1c-0.7,0.5-0.2,2.9,0.2,4.4c1,3.9,2.7,7.7,3.3,11.7c2.6,17.7-3,36.1-6.8,53.3
			c-3.9,17.9-21.5,58-21.2,61.9c0,0-0.4,3.9-0.7,5.8c-3.6,21.5-10.8,38.7-12.7,60.3c-2.1,24.3-0.2,53.6,10.2,76.1
			c5.2,11.3,12.9,15.9,23.5,13.3c-27.1-31-13-65.3-10.2-102.1c3.1,2.7,3.7,2.9,5.9,3.7c1.8,0.7,5.7,0.8,7.4,0.4
			c13.5-3,26.5-11.9,35.4-18.4C128.6,166.3,129.3,156.9,133.9,146.2z M56.3,192C68.2,153.6,87.2,97,119.6,66.4
			c19.1,15.3,3.1,48.4,1,61.7C115,163.2,57.4,191.9,56.3,192z"/>
	</g>
	<rect x="107.6" y="256.7" fill="#FFFFFF" width="618.9" height="5.8"/>
	<g>
		<path fill="#FFFFFF" d="M469.8,298.2h2.2l0.1-16.7h-2.3v-2.6h8.1v2.6h-2.2l-0.1,16.7h6.5l0.3-3.7h2.9l-0.3,6.2h-15.1V298.2z"/>
		<path fill="#FFFFFF" d="M487.5,298.2h1.9l7.9-19.3h3.9l7.3,19.3h1.9v2.6h-8v-2.6h2l-1.9-5.4h-7.7l-2,5.4h2.2v2.6h-7.6V298.2z
			 M499.5,283.8c-0.2-0.5-0.3-0.9-0.4-1.2c-0.1-0.3-0.1-0.6-0.2-0.8h-0.1c0,0.2-0.1,0.5-0.2,0.8c-0.1,0.3-0.2,0.7-0.4,1.2l-2.4,6.2
			h5.8L499.5,283.8z"/>
		<path fill="#FFFFFF" d="M510.3,278.9h8v2.6h-2.2l0,11c0,0.4,0,0.8,0,1.3s0.1,0.8,0.1,1.2s0.2,0.8,0.4,1.1c0.2,0.4,0.4,0.7,0.7,0.9
			c0.5,0.5,1,0.8,1.6,1c0.6,0.2,1.3,0.2,2.3,0.2c1.1,0,1.9-0.1,2.5-0.2c0.6-0.2,1.2-0.5,1.7-1s0.8-1.1,1-1.8
			c0.2-0.7,0.2-1.6,0.3-2.6l0.1-11.1h-2.6v-2.6h8v2.6h-2.1l-0.1,11.7c0,1.5-0.2,2.7-0.7,3.7c-0.4,1-1,1.8-1.8,2.5
			c-0.7,0.6-1.6,1.1-2.8,1.3s-2.3,0.4-3.6,0.4c-1.6,0-3-0.2-4-0.5c-1-0.3-1.9-0.8-2.6-1.4c-0.8-0.7-1.3-1.5-1.6-2.5
			s-0.4-2.2-0.4-3.6c0-2.1,0-4.1,0-6s0-3.8,0-5.7h-2.3V278.9z"/>
		<path fill="#FFFFFF" d="M538.3,294.7v2.9c0.3,0.2,0.9,0.3,1.6,0.5c0.7,0.2,1.5,0.3,2.4,0.3c1.4,0,2.5-0.3,3.4-0.9
			c0.8-0.6,1.3-1.5,1.3-2.7c0-0.9-0.3-1.5-0.8-2c-0.6-0.4-1.4-0.8-2.6-1.1l-3.9-1.1c-0.6-0.2-1.2-0.4-1.8-0.7
			c-0.6-0.3-1.1-0.6-1.5-1.1c-0.4-0.4-0.8-1-1-1.6c-0.3-0.6-0.4-1.4-0.4-2.3c0-1.1,0.2-2,0.6-2.8c0.4-0.8,1-1.5,1.8-2
			c0.7-0.5,1.6-0.9,2.6-1.2c1-0.3,2.1-0.4,3.2-0.4c1.4,0,2.7,0.1,3.8,0.4s2,0.5,2.9,0.7v4.8h-3.3v-2.6c-0.2-0.1-0.6-0.2-1.2-0.3
			c-0.6-0.1-1.3-0.2-2.1-0.2c-0.8,0-1.5,0.1-2.1,0.2c-0.6,0.2-1.1,0.4-1.4,0.7c-0.4,0.3-0.6,0.6-0.8,1c-0.2,0.4-0.3,0.8-0.3,1.2
			c0,0.5,0.1,0.9,0.2,1.2c0.2,0.3,0.4,0.6,0.7,0.8c0.3,0.2,0.7,0.4,1.1,0.6c0.4,0.2,0.9,0.3,1.4,0.4l3.4,0.9
			c0.6,0.2,1.2,0.4,1.9,0.7c0.6,0.3,1.2,0.6,1.7,1.1c0.5,0.5,0.9,1,1.2,1.7c0.3,0.7,0.5,1.5,0.5,2.4c0,2.2-0.7,3.9-2.2,5.1
			c-1.5,1.2-3.5,1.8-6.2,1.8c-0.4,0-0.9,0-1.6-0.1c-0.6-0.1-1.3-0.1-2-0.2c-0.7-0.1-1.4-0.2-2.1-0.4c-0.7-0.1-1.3-0.3-1.7-0.5v-5.3
			H538.3z"/>
		<path fill="#FFFFFF" d="M552.6,298.2h1.9l7.9-19.3h3.9l7.3,19.3h1.9v2.6h-8v-2.6h2l-1.9-5.4H560l-2,5.4h2.2v2.6h-7.6V298.2z
			 M564.6,283.8c-0.2-0.5-0.3-0.9-0.4-1.2c-0.1-0.3-0.1-0.6-0.2-0.8H564c0,0.2-0.1,0.5-0.2,0.8c-0.1,0.3-0.2,0.7-0.4,1.2L561,290
			h5.8L564.6,283.8z"/>
		<path fill="#FFFFFF" d="M577.2,298.2h2.1l0.1-16.7h-2.7v-2.6h5.7l10.1,13.2c0.2,0.2,0.3,0.5,0.5,0.7c0.2,0.3,0.4,0.6,0.6,0.9
			c0.2,0.3,0.4,0.6,0.6,0.9c0.2,0.3,0.4,0.5,0.5,0.8h0.1l-0.1-13.9h-2.4v-2.6h7.6v2.6h-2.1l-0.1,19.3h-2.8l-10.9-14.2
			c-0.3-0.4-0.6-0.8-0.9-1.2c-0.3-0.4-0.5-0.8-0.7-1.1l-0.1,0.1l0.1,13.9h2.4v2.6h-7.6V298.2z"/>
		<path fill="#FFFFFF" d="M602.1,298.2h2.1l0.1-16.7h-2.7v-2.6h5.7l10.1,13.2c0.2,0.2,0.3,0.5,0.5,0.7c0.2,0.3,0.4,0.6,0.6,0.9
			c0.2,0.3,0.4,0.6,0.6,0.9c0.2,0.3,0.4,0.5,0.5,0.8h0.1l-0.1-13.9h-2.4v-2.6h7.6v2.6h-2.1l-0.1,19.3h-2.8l-10.9-14.2
			c-0.3-0.4-0.6-0.8-0.9-1.2c-0.3-0.4-0.5-0.8-0.7-1.1l-0.1,0.1l0.1,13.9h2.4v2.6h-7.6V298.2z"/>
		<path fill="#FFFFFF" d="M627,298.2h2.2l0.1-16.7h-2.5v-2.6h15.4l0.1,5.7h-2.9l-0.2-3.2h-6.4l-0.1,6.7h6.2v2.7h-6.2l-0.1,7.2h6.7
			l0.2-3.6h2.9l-0.2,6.1H627V298.2z"/>
		<path fill="#FFFFFF" d="M654.8,298.2l0.8-0.7c0.5-0.4,1.1-0.9,1.8-1.5s1.5-1.2,2.2-1.9c0.8-0.7,1.5-1.4,2.3-2.2
			c0.8-0.8,1.4-1.6,2-2.4c0.6-0.8,1.1-1.6,1.5-2.5c0.4-0.8,0.5-1.6,0.5-2.4c0-1-0.3-1.8-0.8-2.4c-0.6-0.6-1.5-1-2.8-1
			c-0.8,0-1.4,0.2-2,0.5c-0.5,0.3-0.9,0.7-1.2,1.1c-0.3,0.4-0.5,0.9-0.6,1.3c-0.1,0.4-0.2,0.8-0.2,1.1h-3.5c0-0.6,0.1-1.2,0.3-2
			c0.2-0.8,0.6-1.5,1.2-2.3c0.6-0.7,1.4-1.3,2.3-1.8c1-0.5,2.2-0.7,3.7-0.7c1,0,1.9,0.1,2.7,0.4c0.9,0.3,1.6,0.7,2.2,1.2
			c0.6,0.5,1.1,1.2,1.5,2c0.4,0.8,0.5,1.7,0.5,2.7c0,1.3-0.3,2.6-1,3.8s-1.5,2.5-2.5,3.6c-1,1.1-2,2.2-3.2,3.2
			c-1.1,1-2.1,1.9-3.1,2.6v0.1c0.3,0,0.6-0.1,1-0.1c0.3,0,0.8,0,1.4,0h8.1v2.9h-15.5V298.2z"/>
		<path fill="#FFFFFF" d="M673.2,290.3c0-1.4,0.1-2.9,0.4-4.3s0.7-2.7,1.4-3.8c0.6-1.1,1.5-2,2.5-2.7s2.3-1,3.8-1
			c1.6,0,2.8,0.4,3.9,1.1c1,0.7,1.8,1.6,2.4,2.7c0.6,1.1,1,2.3,1.2,3.5c0.2,1.3,0.3,2.5,0.3,3.7c0,1.6-0.1,3.1-0.4,4.5
			c-0.3,1.4-0.7,2.7-1.4,3.8c-0.6,1.1-1.5,2-2.5,2.6c-1.1,0.6-2.3,1-3.9,1c-1.4,0-2.5-0.2-3.5-0.7c-1-0.5-1.7-1.2-2.4-2.1
			c-0.6-0.9-1.1-2.1-1.4-3.5C673.3,293.5,673.2,292,673.2,290.3z M676.8,290.2c0,1.1,0.1,2.2,0.2,3.2c0.1,1,0.4,1.9,0.7,2.6
			c0.3,0.7,0.8,1.3,1.3,1.8c0.5,0.4,1.2,0.6,2,0.6c0.8,0,1.5-0.2,2-0.7c0.6-0.5,1-1.1,1.3-1.9s0.6-1.7,0.7-2.8
			c0.1-1.1,0.2-2.2,0.2-3.3c0-2.9-0.3-5-1-6.5c-0.7-1.4-1.7-2.2-3.1-2.2c-0.8,0-1.5,0.2-2,0.7c-0.6,0.5-1,1.1-1.3,1.9
			c-0.3,0.8-0.6,1.8-0.8,2.9C676.9,287.7,676.8,288.9,676.8,290.2z"/>
		<path fill="#FFFFFF" d="M694.5,298.2h4.2l0.1-16c-0.2,0.2-0.4,0.4-0.6,0.6c-0.2,0.2-0.4,0.3-0.6,0.5l-4,2.6l-1.4-2.4l7.4-4.6h2.7
			l-0.1,19.3h4.6v2.6h-12.3V298.2z"/>
		<path fill="#FFFFFF" d="M725,281.8c-0.3-0.1-0.7-0.2-1.3-0.4c-0.6-0.1-1.3-0.2-2.2-0.2c-1.2,0-2.3,0.2-3.2,0.5
			c-0.9,0.4-1.6,0.9-2.2,1.6c-0.6,0.7-1.1,1.6-1.4,2.6c-0.3,1-0.6,2.1-0.8,3.4l0.1,0.1c0.2-0.2,0.5-0.5,0.8-0.8
			c0.3-0.3,0.7-0.5,1.1-0.8c0.4-0.2,0.9-0.4,1.4-0.6c0.5-0.2,1.1-0.2,1.8-0.2c1,0,1.9,0.2,2.7,0.5s1.5,0.7,2.1,1.3
			c0.6,0.6,1.1,1.3,1.4,2.1c0.3,0.8,0.5,1.7,0.5,2.7c0,1.2-0.2,2.3-0.5,3.2s-0.9,1.7-1.5,2.4c-0.7,0.7-1.4,1.2-2.4,1.5
			s-1.9,0.5-3.1,0.5c-1.5,0-2.8-0.3-3.8-0.9c-1-0.6-1.8-1.4-2.4-2.4c-0.6-1-1-2.1-1.3-3.3c-0.3-1.2-0.4-2.4-0.4-3.6
			c0-1.6,0.2-3.2,0.6-4.7c0.4-1.5,1-2.9,1.9-4c0.9-1.2,2-2.1,3.4-2.8c1.4-0.7,3.2-1.1,5.2-1.1c0.6,0,1.2,0,1.8,0.1
			c0.6,0.1,1.1,0.2,1.5,0.3l0.5,0.2L725,281.8z M713.9,291.9c0,0.9,0.1,1.8,0.3,2.6s0.5,1.5,0.8,2c0.4,0.6,0.8,1,1.4,1.3
			c0.6,0.3,1.2,0.5,2,0.5c0.6,0,1.2-0.1,1.7-0.4s0.9-0.6,1.2-1s0.6-0.9,0.8-1.4c0.2-0.5,0.2-1.1,0.2-1.7c0-0.5-0.1-1-0.2-1.5
			c-0.1-0.5-0.4-0.9-0.7-1.3s-0.8-0.7-1.3-0.9s-1.1-0.4-1.9-0.4c-0.6,0-1,0.1-1.5,0.2s-0.8,0.3-1.1,0.4c-0.3,0.2-0.6,0.4-0.8,0.6
			c-0.2,0.2-0.4,0.4-0.6,0.5L713.9,291.9z"/>
	</g>
</g>
</svg>
