<?xml version="1.0" encoding="UTF-8" standalone="no"?>
<svg width="272px" height="90px" viewBox="0 0 272 90" version="1.1" xmlns="http://www.w3.org/2000/svg" xmlns:xlink="http://www.w3.org/1999/xlink" xmlns:sketch="http://www.bohemiancoding.com/sketch/ns">
    <!-- Generator: Sketch 3.3.3 (12081) - http://www.bohemiancoding.com/sketch -->
    <title>logo_iahm</title>
    <desc>Created with Sketch.</desc>
    <defs></defs>
    <g id="Page-1" stroke="none" stroke-width="1" fill="none" fill-rule="evenodd" sketch:type="MSPage">
        <g id="logo_iahm" sketch:type="MSArtboardGroup" fill-opacity="0.95" fill="#434343">
            <g id="Group" sketch:type="MSLayerGroup" transform="translate(1.000000, 1.000000)">
                <path d="M122.029491,57.0811153 C121.114458,57.2215004 120.410635,57.2215004 119.635987,57.2215004 C118.579937,57.2215004 117.454326,57.1513078 116.820063,57.0811153 L116.820063,3.8574303 C117.594079,3.78660535 118.720954,3.71641276 119.353952,3.71641276 C120.340443,3.71641276 121.325668,3.78660535 122.029491,3.8574303 L122.029491,57.0811153" id="Fill-1" sketch:type="MSShapeGroup"></path>
                <path d="M149.769474,7.94061512 C149.769474,7.94061512 144.487956,21.3866053 141.108594,36.3831561 L158.638402,36.3831561 C155.40069,21.3866053 150.119172,7.94061512 150.119172,7.94061512 L149.769474,7.94061512 L149.769474,7.94061512 Z M163.003622,57.0811153 C162.158781,51.729405 160.892153,45.9565392 159.764645,40.6762863 L140.052544,40.6762863 C138.926933,45.9565392 137.729865,51.729405 136.885024,57.0811153 C136.885024,57.0811153 135.124519,57.2215004 133.85789,57.2215004 C133.294452,57.2215004 132.590629,57.1513078 131.956999,57.0811153 C138.082093,21.1753952 146.741075,3.8574303 146.741075,3.8574303 C148.007703,3.71641276 149.205404,3.71641276 150.190629,3.71641276 C152.091521,3.71641276 153.358781,3.8574303 153.358781,3.8574303 C153.358781,3.8574303 162.229606,23.4987065 168.072665,57.0811153 C167.369474,57.1513078 166.734579,57.2215004 166.171773,57.2215004 C164.904513,57.2215004 163.848462,57.1513078 163.003622,57.0811153 L163.003622,57.0811153 Z" id="Fill-2" sketch:type="MSShapeGroup"></path>
                <path d="M211.303708,57.0811153 C211.303708,57.0811153 209.68422,57.2215004 208.839379,57.2215004 C207.995171,57.2215004 207.219891,57.2215004 206.304858,57.0811153 L206.304858,31.7359011 L182.156079,31.7359011 L182.156079,57.0811153 C181.172118,57.2215004 180.678873,57.2215004 179.834033,57.2215004 C178.848807,57.2215004 177.792124,57.1513078 177.158494,57.0811153 L177.158494,3.8574303 C177.933142,3.78660535 178.848807,3.71641276 179.482437,3.71641276 C180.537223,3.71641276 181.452889,3.78660535 182.156079,3.8574303 L182.156079,27.3017534 L206.304858,27.3017534 L206.304858,3.8574303 C207.219891,3.71641276 207.995171,3.71641276 208.839379,3.71641276 C209.823972,3.71641276 210.668813,3.78660535 211.303708,3.8574303 L211.303708,57.0811153" id="Fill-3" sketch:type="MSShapeGroup"></path>
                <path d="M246.788272,37.3677494 L237.847887,21.4574303 C230.808393,8.85564817 230.103306,6.95475711 230.103306,6.95475711 L229.752975,6.95475711 C229.752975,6.95475711 229.89336,8.78545559 229.89336,21.5276229 L229.89336,57.0811153 C229.118712,57.1513078 228.133487,57.2215004 227.498592,57.2215004 C226.444438,57.2215004 225.528773,57.1513078 224.89451,57.0811153 L224.89451,3.8574303 C226.444438,3.78660535 227.991837,3.78660535 229.25973,3.78660535 C231.864444,3.78660535 233.623685,3.8574303 233.623685,3.8574303 L243.198965,21.3866053 C246.718712,27.7943662 246.930555,28.9901696 246.930555,28.9901696 L247.211957,28.9901696 C247.211957,28.9901696 247.422535,27.8645588 250.942915,21.3866053 L260.517563,3.8574303 C261.925841,3.78660535 263.404312,3.78660535 264.67094,3.78660535 C267.275654,3.78660535 269.248002,3.8574303 269.248002,3.8574303 L269.248002,57.0811153 C268.613107,57.1513078 267.698074,57.2215004 266.642656,57.2215004 C266.009026,57.2215004 265.022535,57.1513078 264.249152,57.0811153 L264.249152,21.5276229 C264.249152,8.92584076 264.388905,6.95475711 264.388905,6.95475711 L264.037942,6.95475711 C264.037942,6.95475711 263.473872,8.71463064 256.293993,21.4574303 L247.352975,37.3677494 L246.788272,37.3677494" id="Fill-4" sketch:type="MSShapeGroup"></path>
                <path d="M116.77643,64.1964932 L117.339868,64.1964932 L117.339868,73.7768324 L116.77643,73.7768324 L116.77643,64.1964932 Z" id="Fill-5" sketch:type="MSShapeGroup"></path>
                <path d="M120.196896,64.1964932 L124.369876,72.8915206 L124.397068,72.8915206 L124.397068,64.1964932 L124.959874,64.1964932 L124.959874,73.7768324 L124.221903,73.7768324 L120.035642,65.0805404 L120.009715,65.0805404 L120.009715,73.7768324 L119.445645,73.7768324 L119.445645,64.1964932 L120.196896,64.1964932" id="Fill-6" sketch:type="MSShapeGroup"></path>
                <path d="M128.822995,64.7074447 L126.272665,64.7074447 L126.272665,64.1964932 L131.935499,64.1964932 L131.935499,64.7074447 L129.385801,64.7074447 L129.385801,73.7768324 L128.822995,73.7768324 L128.822995,64.7074447" id="Fill-7" sketch:type="MSShapeGroup"></path>
                <path d="M133.343145,64.1964932 L137.917045,64.1964932 L137.917045,64.7074447 L133.906582,64.7074447 L133.906582,68.5300949 L137.649554,68.5300949 L137.649554,69.0404139 L133.906582,69.0404139 L133.906582,73.2665134 L138.037827,73.2665134 L138.037827,73.7768324 L133.343145,73.7768324 L133.343145,64.1964932" id="Fill-8" sketch:type="MSShapeGroup"></path>
                <path d="M141.983156,68.879793 C143.042368,68.879793 144.236275,68.5300949 144.236275,66.7044553 C144.236275,65.4175913 143.510951,64.6517965 142.344869,64.6517965 L140.184076,64.6517965 L140.184076,68.879793 L141.983156,68.879793 L141.983156,68.879793 Z M139.62127,64.1964932 L142.425812,64.1964932 C143.753147,64.1964932 144.799713,64.9610233 144.799713,66.7044553 C144.799713,67.9653924 144.130037,68.9449267 142.881748,69.0796206 L142.881748,69.1068123 C144.451279,69.2010348 144.732682,70.1679218 144.732682,71.4819776 L144.732682,72.4887037 C144.732682,73.0394941 144.812992,73.3866628 145.055188,73.7768324 L144.410175,73.7768324 C144.264099,73.494165 144.169244,73.0394941 144.169244,72.4747916 L144.169244,71.4958896 C144.169244,70.1255533 143.792986,69.3350963 142.251279,69.3350963 L140.184076,69.3350963 L140.184076,73.7768324 L139.62127,73.7768324 L139.62127,64.1964932 L139.62127,64.1964932 Z" id="Fill-9" sketch:type="MSShapeGroup"></path>
                <path d="M147.549238,64.1964932 L151.722851,72.8915206 L151.748146,72.8915206 L151.748146,64.1964932 L152.312216,64.1964932 L152.312216,73.7768324 L151.574245,73.7768324 L147.387353,65.0805404 L147.362058,65.0805404 L147.362058,73.7768324 L146.797988,73.7768324 L146.797988,64.1964932 L147.549238,64.1964932" id="Fill-10" sketch:type="MSShapeGroup"></path>
                <path d="M156.873469,64.7592986 L156.845645,64.7592986 L155.155332,70.3418224 L158.522047,70.3418224 L156.873469,64.7592986 L156.873469,64.7592986 Z M158.630181,70.797758 L155.020006,70.797758 L154.108767,73.7768324 L153.544697,73.7768324 L156.523771,64.1964932 L157.23455,64.1964932 L160.106122,73.7768324 L159.542052,73.7768324 L158.630181,70.797758 L158.630181,70.797758 Z" id="Fill-11" sketch:type="MSShapeGroup"></path>
                <path d="M162.452831,64.7074447 L159.903133,64.7074447 L159.903133,64.1964932 L165.565967,64.1964932 L165.565967,64.7074447 L163.016269,64.7074447 L163.016269,73.7768324 L162.452831,73.7768324 L162.452831,64.7074447" id="Fill-12" sketch:type="MSShapeGroup"></path>
                <path d="M166.973613,64.1964932 L167.535786,64.1964932 L167.535786,73.7768324 L166.973613,73.7768324 L166.973613,64.1964932 Z" id="Fill-13" sketch:type="MSShapeGroup"></path>
                <path d="M169.991262,68.9860305 C169.991262,71.6166715 170.527508,73.4815177 172.52768,73.4815177 C174.285024,73.4815177 175.049554,72.0315033 175.049554,68.9860305 C175.049554,66.3971256 174.472837,64.4911756 172.52768,64.4911756 C170.648922,64.4911756 169.991262,66.3579189 169.991262,68.9860305 L169.991262,68.9860305 Z M175.61236,68.9860305 C175.61236,73.1849382 173.881575,73.9374533 172.52768,73.9374533 C170.689394,73.9374533 169.427192,72.7024432 169.427192,68.9860305 C169.427192,65.2696177 170.769704,64.0358724 172.52768,64.0358724 C174.431733,64.0358724 175.61236,65.2696177 175.61236,68.9860305 L175.61236,68.9860305 Z" id="Fill-14" sketch:type="MSShapeGroup"></path>
                <path d="M178.160793,64.1964932 L182.333774,72.8915206 L182.360966,72.8915206 L182.360966,64.1964932 L182.924404,64.1964932 L182.924404,73.7768324 L182.185801,73.7768324 L177.99954,65.0805404 L177.972981,65.0805404 L177.972981,73.7768324 L177.409543,73.7768324 L177.409543,64.1964932 L178.160793,64.1964932" id="Fill-15" sketch:type="MSShapeGroup"></path>
                <path d="M187.483127,64.7592986 L187.4572,64.7592986 L185.766255,70.3418224 L189.135499,70.3418224 L187.483127,64.7592986 L187.483127,64.7592986 Z M189.241736,70.797758 L185.632826,70.797758 L184.720322,73.7768324 L184.156884,73.7768324 L187.135326,64.1964932 L187.846738,64.1964932 L190.718942,73.7768324 L190.154872,73.7768324 L189.241736,70.797758 L189.241736,70.797758 Z" id="Fill-16" sketch:type="MSShapeGroup"></path>
                <path d="M192.043748,64.1964932 L192.608451,64.1964932 L192.608451,73.2665134 L196.620178,73.2665134 L196.620178,73.7768324 L192.043748,73.7768324 L192.043748,64.1964932" id="Fill-17" sketch:type="MSShapeGroup"></path>
                <path d="M204.063754,64.7592986 L204.037827,64.7592986 L202.346881,70.3418224 L205.715493,70.3418224 L204.063754,64.7592986 L204.063754,64.7592986 Z M205.822363,70.797758 L202.21282,70.797758 L201.300949,73.7768324 L200.736246,73.7768324 L203.71532,64.1964932 L204.426732,64.1964932 L207.297672,73.7768324 L206.734234,73.7768324 L205.822363,70.797758 L205.822363,70.797758 Z" id="Fill-18" sketch:type="MSShapeGroup"></path>
                <path d="M208.839379,71.3213567 C208.839379,72.5418224 209.630469,73.4815177 211.012187,73.4815177 C212.34142,73.4815177 213.226099,72.5279103 213.226099,71.308077 C213.226099,70.0591549 212.55516,69.6291463 211.482035,69.2541535 L210.395631,68.879793 C209.134062,68.4497844 208.449842,67.8332279 208.449842,66.5318195 C208.449842,64.9875826 209.509687,64.0358724 211.012187,64.0358724 C212.784076,64.0358724 213.575165,65.0407014 213.575165,66.6380569 L213.010463,66.6380569 C213.010463,65.3499281 212.42173,64.4911756 211.065938,64.4911756 C209.992182,64.4911756 209.012647,64.9875826 209.012647,66.477436 C209.012647,67.5372808 209.591262,68.0457028 210.422823,68.3302673 L211.845013,68.8241449 C213.078758,69.2541535 213.79017,69.8593274 213.79017,71.2669733 C213.79017,72.9711986 212.529233,73.9374533 211.012187,73.9374533 C208.797643,73.9374533 208.274677,72.3799368 208.274677,71.4560506 L208.274677,70.8249497 L208.839379,70.8249497 L208.839379,71.3213567" id="Fill-19" sketch:type="MSShapeGroup"></path>
                <path d="M215.854843,71.3213567 C215.854843,72.5418224 216.645933,73.4815177 218.028916,73.4815177 C219.356884,73.4815177 220.242828,72.5279103 220.242828,71.308077 C220.242828,70.0591549 219.570624,69.6291463 218.498132,69.2541535 L217.410463,68.879793 C216.148893,68.4497844 215.465306,67.8332279 215.465306,66.5318195 C215.465306,64.9875826 216.525151,64.0358724 218.028916,64.0358724 C219.800172,64.0358724 220.591262,65.0407014 220.591262,66.6380569 L220.027192,66.6380569 C220.027192,65.3499281 219.437195,64.4911756 218.081403,64.4911756 C217.008278,64.4911756 216.028744,64.9875826 216.028744,66.477436 C216.028744,67.5372808 216.606726,68.0457028 217.437654,68.3302673 L218.860477,68.8241449 C220.094222,69.2541535 220.805634,69.8593274 220.805634,71.2669733 C220.805634,72.9711986 219.544064,73.9374533 218.028916,73.9374533 C215.814372,73.9374533 215.290773,72.3799368 215.290773,71.4560506 L215.290773,70.8249497 L215.854843,70.8249497 L215.854843,71.3213567" id="Fill-20" sketch:type="MSShapeGroup"></path>
                <path d="M222.910779,68.9860305 C222.910779,71.6166715 223.447025,73.4815177 225.446565,73.4815177 C227.204542,73.4815177 227.969072,72.0315033 227.969072,68.9860305 C227.969072,66.3971256 227.392986,64.4911756 225.446565,64.4911756 C223.568439,64.4911756 222.910779,66.3579189 222.910779,68.9860305 L222.910779,68.9860305 Z M228.531877,68.9860305 C228.531877,73.1849382 226.801092,73.9374533 225.446565,73.9374533 C223.607646,73.9374533 222.346709,72.7024432 222.346709,68.9860305 C222.346709,65.2696177 223.689221,64.0358724 225.446565,64.0358724 C227.35125,64.0358724 228.531877,65.2696177 228.531877,68.9860305 L228.531877,68.9860305 Z" id="Fill-21" sketch:type="MSShapeGroup"></path>
                <path d="M235.30641,66.9466513 C235.30641,65.6585226 234.622823,64.4911756 233.21328,64.4911756 C231.307962,64.4911756 230.676861,66.2763438 230.676861,68.9721184 C230.676861,71.548376 231.201092,73.4815177 233.132969,73.4815177 C234.983903,73.4815177 235.426559,71.308077 235.426559,70.5555619 L235.990629,70.5555619 C235.990629,71.6830698 235.426559,73.9374533 233.038747,73.9374533 C230.958896,73.9374533 230.112791,72.0997988 230.112791,69.0005749 C230.112791,65.9943087 230.958896,64.0358724 233.18672,64.0358724 C235.426559,64.0358724 235.869848,66.006956 235.869848,66.9466513 L235.30641,66.9466513" id="Fill-22" sketch:type="MSShapeGroup"></path>
                <path d="M237.69359,64.1964932 L238.257028,64.1964932 L238.257028,73.7768324 L237.69359,73.7768324 L237.69359,64.1964932 Z" id="Fill-23" sketch:type="MSShapeGroup"></path>
                <path d="M242.911239,64.7592986 L242.88468,64.7592986 L241.194366,70.3418224 L244.562346,70.3418224 L242.911239,64.7592986 L242.911239,64.7592986 Z M244.669215,70.797758 L241.060305,70.797758 L240.148433,73.7768324 L239.584363,73.7768324 L242.563438,64.1964932 L243.274217,64.1964932 L246.145157,73.7768324 L245.581087,73.7768324 L244.669215,70.797758 L244.669215,70.797758 Z" id="Fill-24" sketch:type="MSShapeGroup"></path>
                <path d="M248.492498,64.7074447 L245.943432,64.7074447 L245.943432,64.1964932 L251.605634,64.1964932 L251.605634,64.7074447 L249.055936,64.7074447 L249.055936,73.7768324 L248.492498,73.7768324 L248.492498,64.7074447" id="Fill-25" sketch:type="MSShapeGroup"></path>
                <path d="M253.012015,64.1964932 L253.576085,64.1964932 L253.576085,73.7768324 L253.012015,73.7768324 L253.012015,64.1964932 Z" id="Fill-26" sketch:type="MSShapeGroup"></path>
                <path d="M256.030928,68.9860305 C256.030928,71.6166715 256.567807,73.4815177 258.566082,73.4815177 C260.324691,73.4815177 261.088589,72.0315033 261.088589,68.9860305 C261.088589,66.3971256 260.511871,64.4911756 258.566082,64.4911756 C256.688589,64.4911756 256.030928,66.3579189 256.030928,68.9860305 L256.030928,68.9860305 Z M261.652026,68.9860305 C261.652026,73.1849382 259.921242,73.9374533 258.566082,73.9374533 C256.728428,73.9374533 255.467491,72.7024432 255.467491,68.9860305 C255.467491,65.2696177 256.808738,64.0358724 258.566082,64.0358724 C260.4714,64.0358724 261.652026,65.2696177 261.652026,68.9860305 L261.652026,68.9860305 Z" id="Fill-27" sketch:type="MSShapeGroup"></path>
                <path d="M264.20046,64.1964932 L268.372176,72.8915206 L268.399368,72.8915206 L268.399368,64.1964932 L268.962805,64.1964932 L268.962805,73.7768324 L268.224202,73.7768324 L264.039839,65.0805404 L264.011383,65.0805404 L264.011383,73.7768324 L263.448577,73.7768324 L263.448577,64.1964932 L264.20046,64.1964932" id="Fill-28" sketch:type="MSShapeGroup"></path>
                <path d="M116.620236,82.7323944 C116.620236,85.421213 117.167864,87.3284277 119.212302,87.3284277 C121.008221,87.3284277 121.789825,85.8474274 121.789825,82.7323944 C121.789825,80.0878413 121.199828,78.1388905 119.212302,78.1388905 C117.291808,78.1388905 116.620236,80.0461052 116.620236,82.7323944 L116.620236,82.7323944 Z M122.36591,82.7323944 C122.36591,87.0267893 120.597183,87.7938488 119.212302,87.7938488 C117.332912,87.7938488 116.044151,86.531647 116.044151,82.7323944 C116.044151,78.9344064 117.415119,77.6734694 119.212302,77.6734694 C121.159356,77.6734694 122.36591,78.9344064 122.36591,82.7323944 L122.36591,82.7323944 Z" id="Fill-29" sketch:type="MSShapeGroup"></path>
                <path d="M125.272895,77.8378844 L129.96315,77.8378844 L129.96315,78.3589537 L125.84898,78.3589537 L125.84898,82.2669733 L129.674159,82.2669733 L129.674159,82.7880425 L125.84898,82.7880425 L125.84898,87.6306985 L125.272895,87.6306985 L125.272895,77.8378844" id="Fill-30" sketch:type="MSShapeGroup"></path>
                <path d="M142.97597,87.6306985 L141.770049,87.6306985 L141.770049,82.9126186 L138.41029,82.9126186 L138.41029,87.6306985 L137.203104,87.6306985 L137.203104,77.8378844 L138.41029,77.8378844 L138.41029,81.8432883 L141.770049,81.8432883 L141.770049,77.8378844 L142.97597,77.8378844 L142.97597,87.6306985" id="Fill-31" sketch:type="MSShapeGroup"></path>
                <path d="M146.116298,77.8378844 L151.175855,77.8378844 L151.175855,78.9084794 L147.324116,78.9084794 L147.324116,81.9792469 L150.958321,81.9792469 L150.958321,83.0485772 L147.324116,83.0485772 L147.324116,86.5588387 L151.342167,86.5588387 L151.342167,87.6306985 L146.116298,87.6306985 L146.116298,77.8378844" id="Fill-32" sketch:type="MSShapeGroup"></path>
                <path d="M155.345674,83.9541247 L157.978212,83.9541247 L156.731187,79.2221328 L156.702731,79.2221328 L155.345674,83.9541247 L155.345674,83.9541247 Z M155.935671,77.8378844 L157.553895,77.8378844 L160.187065,87.6306985 L158.925496,87.6306985 L158.226732,84.9418799 L155.098419,84.9418799 L154.371831,87.6306985 L153.109629,87.6306985 L155.935671,77.8378844 L155.935671,77.8378844 Z" id="Fill-33" sketch:type="MSShapeGroup"></path>
                <path d="M162.421213,77.8378844 L163.629031,77.8378844 L163.629031,86.5588387 L167.605346,86.5588387 L167.605346,87.6306985 L162.421213,87.6306985 L162.421213,77.8378844" id="Fill-34" sketch:type="MSShapeGroup"></path>
                <path d="M170.060822,77.8378844 L171.268008,77.8378844 L171.268008,87.6306985 L170.060822,87.6306985 L170.060822,77.8378844 Z" id="Fill-35" sketch:type="MSShapeGroup"></path>
                <path d="M174.407703,77.8378844 L175.970911,77.8378844 L179.207358,86.0105778 L179.233285,86.0105778 L179.233285,77.8378844 L180.441736,77.8378844 L180.441736,87.6306985 L178.781776,87.6306985 L175.641449,79.7039954 L175.614257,79.7039954 L175.614257,87.6306985 L174.407703,87.6306985 L174.407703,77.8378844" id="Fill-36" sketch:type="MSShapeGroup"></path>
                <path d="M188.229951,80.5538948 C188.174935,79.5237712 187.791722,78.6321357 186.597815,78.6321357 C184.925208,78.6321357 184.705145,80.4697902 184.705145,82.7323944 C184.705145,84.997528 184.925208,86.8339178 186.597815,86.8339178 C188.271055,86.8339178 188.393734,84.8305835 188.393734,83.5304398 L186.45996,83.5304398 L186.45996,82.5407876 L189.490888,82.5407876 L189.490888,87.6306985 L188.586605,87.6306985 L188.586605,86.2983041 L188.558781,86.2983041 C188.298879,87.1355562 187.516643,87.8210405 186.447945,87.8210405 C183.895717,87.8210405 183.443576,85.3668295 183.443576,82.7323944 C183.443576,80.2661684 183.895717,77.6462777 186.597815,77.6462777 C189.408681,77.6462777 189.478241,80.0461052 189.490888,80.5538948 L188.229951,80.5538948" id="Fill-37" sketch:type="MSShapeGroup"></path>
                <path d="M197.361943,77.8378844 L199.391837,77.8378844 L201.352803,85.6001725 L201.379994,85.6001725 L203.341592,77.8378844 L205.370854,77.8378844 L205.370854,87.6306985 L204.1643,87.6306985 L204.1643,79.0716298 L204.137108,79.0716298 L201.969991,87.6306985 L200.762805,87.6306985 L198.596321,79.0716298 L198.569129,79.0716298 L198.569129,87.6306985 L197.361943,87.6306985 L197.361943,77.8378844" id="Fill-38" sketch:type="MSShapeGroup"></path>
                <path d="M208.539005,77.8378844 L209.745559,77.8378844 L209.745559,87.6306985 L208.539005,87.6306985 L208.539005,77.8378844 Z" id="Fill-39" sketch:type="MSShapeGroup"></path>
                <path d="M212.885254,77.8378844 L214.449727,77.8378844 L217.684909,86.0105778 L217.712734,86.0105778 L217.712734,77.8378844 L218.91992,77.8378844 L218.91992,87.6306985 L217.25996,87.6306985 L214.119,79.7039954 L214.091808,79.7039954 L214.091808,87.6306985 L212.885254,87.6306985 L212.885254,77.8378844" id="Fill-40" sketch:type="MSShapeGroup"></path>
                <path d="M222.060247,77.8378844 L223.266801,77.8378844 L223.266801,87.6306985 L222.060247,87.6306985 L222.060247,77.8378844 Z" id="Fill-41" sketch:type="MSShapeGroup"></path>
                <path d="M230.561771,80.3755677 C230.561771,79.3473412 230.191837,78.6321357 229.040931,78.6321357 C228.025984,78.6321357 227.422075,79.1829261 227.422075,80.2237999 C227.422075,82.9809141 232.042771,81.334234 232.042771,84.9146881 C232.042771,87.1760276 230.384076,87.8210405 228.998563,87.8210405 C226.709399,87.8210405 226.036562,86.6429434 226.036562,84.5580339 L227.243748,84.5580339 C227.243748,85.6532912 227.312044,86.8339178 229.08077,86.8339178 C230.040701,86.8339178 230.781834,86.1484335 230.781834,85.1062949 C230.781834,82.3371659 226.159874,83.938948 226.159874,80.3490083 C226.159874,79.442196 226.544352,77.6462777 229.026387,77.6462777 C230.891865,77.6462777 231.742397,78.579017 231.769589,80.3755677 L230.561771,80.3755677" id="Fill-42" sketch:type="MSShapeGroup"></path>
                <path d="M237.789077,87.6306985 L236.582524,87.6306985 L236.582524,78.9084794 L234.12768,78.9084794 L234.12768,77.8378844 L240.257833,77.8378844 L240.257833,78.9084794 L237.789077,78.9084794 L237.789077,87.6306985" id="Fill-43" sketch:type="MSShapeGroup"></path>
                <path d="M243.918597,82.2815177 L245.111239,82.2815177 C245.82518,82.2815177 247.127853,82.2815177 247.127853,80.388215 C247.127853,79.428284 246.483472,78.8256396 245.358494,78.8256396 L243.918597,78.8256396 L243.918597,82.2815177 L243.918597,82.2815177 Z M242.710779,77.8378844 L245.880195,77.8378844 C247.415579,77.8378844 248.390687,78.7427997 248.390687,80.2933602 C248.390687,81.3614257 248.019488,82.4864041 246.880598,82.7608508 L246.880598,82.7880425 C247.73113,82.8841621 248.211095,83.5848232 248.266111,84.4208106 L248.347686,86.0934176 C248.403334,87.1760276 248.581661,87.4504743 248.869388,87.6306985 L247.415579,87.6306985 C247.21006,87.4232826 247.113941,86.6973268 247.086749,86.2179937 L247.004542,84.6952573 C246.908422,83.3502156 246.167922,83.2699051 245.550101,83.2699051 L243.918597,83.2699051 L243.918597,87.6306985 L242.710779,87.6306985 L242.710779,77.8378844 L242.710779,77.8378844 Z" id="Fill-44" sketch:type="MSShapeGroup"></path>
                <path d="M251.378615,77.8378844 L252.585801,77.8378844 L252.585801,87.6306985 L251.378615,87.6306985 L251.378615,77.8378844 Z" id="Fill-45" sketch:type="MSShapeGroup"></path>
                <path d="M255.726128,77.8378844 L260.786318,77.8378844 L260.786318,78.9084794 L256.932682,78.9084794 L256.932682,81.9792469 L260.566887,81.9792469 L260.566887,83.0485772 L256.932682,83.0485772 L256.932682,86.5588387 L260.950733,86.5588387 L260.950733,87.6306985 L255.726128,87.6306985 L255.726128,77.8378844" id="Fill-46" sketch:type="MSShapeGroup"></path>
                <path d="M267.780282,80.3755677 C267.780282,79.3473412 267.409715,78.6321357 266.258178,78.6321357 C265.242598,78.6321357 264.639954,79.1829261 264.639954,80.2237999 C264.639954,82.9809141 269.26065,81.334234 269.26065,84.9146881 C269.26065,87.1760276 267.601955,87.8210405 266.215809,87.8210405 C263.926646,87.8210405 263.254441,86.6429434 263.254441,84.5580339 L264.460995,84.5580339 C264.460995,85.6532912 264.529922,86.8339178 266.299914,86.8339178 C267.257948,86.8339178 267.998448,86.1484335 267.998448,85.1062949 C267.998448,82.3371659 263.37712,83.938948 263.37712,80.3490083 C263.37712,79.442196 263.762231,77.6462777 266.243633,77.6462777 C268.108479,77.6462777 268.959011,78.579017 268.986835,80.3755677 L267.780282,80.3755677" id="Fill-47" sketch:type="MSShapeGroup"></path>
                <path d="M6.78170666,58.969464 C6.97912152,58.3576045 7.13920472,57.6286881 6.97912152,56.9921517 C5.72060178,53.8645182 4.80376161,50.5869253 3.98309791,47.2701026 C3.82491293,46.3146652 3.94386803,45.2162287 3.6660952,44.3550697 L3.48006966,44.1165267 C3.20039861,44.0880534 3.22823916,44.4860468 3.05486842,44.6454973 C2.73660023,47.0315596 2.29747872,49.3670027 1.92732585,51.7264899 C1.43568692,53.5544756 0.811805341,55.3337403 0.387236842,57.2034868 C0.441019737,57.9216467 0.215764319,58.8100135 0.705505031,59.4332624 C1.38380224,60.665207 2.8137945,60.984108 4.11534056,60.9347543 C5.32387384,60.9170375 6.02621517,59.7913932 6.78170666,58.969464" id="Fill-49" sketch:type="MSShapeGroup"></path>
                <path d="M8.52490519,63.8213139 C8.3825387,62.9525619 8.49010449,61.9540983 8.23827399,61.1745627 L8.06806695,60.9581656 C7.81497098,60.9322233 7.84091331,61.2928851 7.68462655,61.4377825 C7.3954644,63.6036513 6.99683824,65.7220646 6.65958785,67.8626238 C6.21540441,69.5223007 5.64973491,71.1364203 5.26439628,72.8308978 C5.31185178,73.4807217 5.10810952,74.2874652 5.55229296,74.8537674 C6.16794892,75.9730844 7.46443305,76.2597156 8.64512577,76.2128928 C9.74103135,76.1983398 10.3794659,75.1777303 11.0640906,74.4323626 C11.2450542,73.8812461 11.3899516,73.2175019 11.2450542,72.6379122 C10.1016931,69.8000735 9.26964009,66.8293595 8.52490519,63.8213139" id="Fill-50" sketch:type="MSShapeGroup"></path>
                <path d="M97.8228599,30.5505824 L97.0793905,34.6127728 C97.0977399,37.0956443 96.2517666,41.2160468 96.937024,41.8519505 C97.3812074,41.7956366 99.0370878,42.5220221 100.455691,42.4309075 C100.569584,42.4049652 101.4415,42.5024071 101.552229,42.4688719 C101.094125,44.0678057 99.6919737,45.5743595 99.0725213,47.0189048 C97.3938622,47.4668847 95.791132,47.5111765 93.8530495,47.7832546 C91.1303696,48.1154431 89.3188351,48.3179199 84.0936687,48.2540132 C82.0056269,48.5229276 78.7419543,47.6769543 76.8310797,47.1005283 C75.4131095,46.6708978 74.5721981,46.2317763 73.1156308,45.9438796 C71.8223104,46.3950232 70.7384269,47.6877109 69.8165248,48.7133824 C68.5048549,50.23006 67.7253193,51.9897098 66.4940074,53.5911745 C65.1399439,55.2090906 64.0801045,56.9541873 62.5577322,58.5113603 C62.273632,58.5702051 61.9047446,58.4898471 61.9047446,58.1601896 C61.988899,56.4808978 63.0512693,55.2090906 63.5422755,53.6924129 C64.504673,50.4167183 65.7979934,47.27643 66.105505,43.7109404 C65.984019,43.5685739 65.984019,43.3028231 65.920745,43.0952844 C65.3057217,42.541637 64.5881947,42.2973994 63.9124284,41.9721711 C60.3260584,40.3694408 56.7801838,38.6907817 53.0925755,37.3601296 C51.4721285,37.0336358 50.9102554,36.442024 49.1050484,36.6071691 C49.7415848,35.5372059 50.0016409,34.8759926 50.6160313,33.8294408 L51.1532276,32.6158456 C53.5918073,32.9442376 55.0395163,33.9958514 57.3743266,34.5918924 C58.2766138,34.507738 59.3630283,34.8152496 60.100803,34.3248762 C61.4523355,33.1176084 62.0249652,31.332649 63.2796885,29.936192 C63.5232933,29.9589706 63.7283011,30.2253541 63.8118228,30.4309946 C63.9757024,32.5430805 63.8320704,34.8968731 64.139582,37.0102245 C65.1823375,38.4661591 66.9033901,38.7344408 68.3397098,39.4696846 C73.0751354,41.128096 77.9529276,42.4840577 82.8313526,43.8533069 C85.7008282,43.9804876 88.8626296,43.7552322 90.3179315,42.0835333 C91.5675929,39.0913061 93.69613,36.0275793 94.5345104,32.8493266 C96.2555631,28.7713177 98.160743,23.4259307 99.0617647,20.9101567 C99.46482,19.6604954 99.7052612,18.4494311 99.9279857,17.9122349 C100.150077,17.3756714 100.507575,17.8375716 100.507575,17.8375716 C99.8609152,21.8902709 98.7428638,25.4715789 97.8228599,30.5505824 L97.8228599,30.5505824 Z M68.9566312,36.519851 C69.9120685,35.7460101 70.538481,35.8535759 71.954553,35.0740402 L72.3158475,34.9392666 C72.5809656,34.8759926 72.8258359,34.6127728 73.0321091,34.4482604 C74.1197891,31.9052786 73.402262,28.8326935 73.3003909,26.0435759 L73.3003909,19.9806618 C73.4864164,19.9572504 73.2795104,19.6307566 73.4864164,19.6124071 C73.8129102,19.5902612 73.5053986,19.0378793 73.7920298,18.9935875 C75.0005631,22.824195 76.2692067,26.8433591 78.0339183,30.5727283 C78.8969756,31.6604083 79.6524671,33.4017086 81.3153077,33.3409656 C84.4897639,33.3409656 87.2693905,32.5430805 90.2166931,32.8853928 C90.9778793,32.9777728 91.825118,32.9973878 92.5293576,33.1473471 C92.1168111,34.2135139 91.5195046,36.0997117 90.8437384,37.0621091 C89.7516293,37.1386707 89.0638409,37.0266757 88.1988854,36.9754238 C87.2099129,36.9482159 86.1703212,37.0918479 85.555298,37.4626335 C84.7960101,38.6085255 83.5697601,39.6563429 82.4624652,40.3517241 C82.2372098,40.2890828 82.1131927,40.1245704 82.1131927,39.8613506 C82.1340731,39.0792841 82.2542937,38.0548781 82.0106889,37.2759752 C80.9255399,36.4977051 79.3050929,37.0734985 77.9529276,36.9722601 C76.9696498,37.3367183 75.8629876,37.3784791 74.959435,37.953007 C73.9122504,38.483243 73.2839396,38.5167783 72.178543,38.9084443 C70.80613,38.1744659 69.2723684,37.8207643 67.8360488,37.2266215 C67.774673,36.8153406 68.7326413,36.6590538 68.9566312,36.519851 L68.9566312,36.519851 Z M106.323721,35.9611416 C106.691343,34.0901296 106.86155,32.3488293 106.86155,30.4309946 C106.86155,13.8968673 97.5254721,0.491638932 77.443572,0.491638932 C68.4877709,0.491638932 59.5579122,4.70568692 53.957531,9.12790635 C48.672887,4.9556192 40.4244892,0.974419505 31.9888003,0.537196207 L31.9888003,0.534032508 C31.962858,0.532767028 31.9331192,0.532134288 31.9065441,0.530868808 C31.8983185,0.530236068 31.8894601,0.528970588 31.8812345,0.528970588 L31.8812345,0.529603328 C31.4313564,0.50935565 30.9055495,0.491638932 30.468959,0.491638932 C10.3870588,0.491638932 1.05161378,13.8968673 1.05161378,30.4309946 C1.05161378,32.1488835 1.21739164,33.8503212 1.51541215,35.5283475 C2.59486649,35.0208901 3.68381192,34.5216583 4.78288119,34.0565944 C7.09870937,33.4017086 9.41643576,32.6835488 11.6278618,31.9052786 C12.7332585,31.476281 12.3852515,30.2456018 12.530149,29.4078541 C11.9752361,26.8629741 10.8280786,24.6730611 9.88592879,22.293959 C8.96592492,21.0436649 8.90265093,19.5073723 8.05920859,18.2766931 C7.99973104,17.8673104 7.36446014,17.3161939 7.91684211,17.0681598 L17.0403193,26.1897388 C18.0229644,27.4362365 19.1929005,28.2189358 20.3185449,29.447084 L22.1003406,29.6710739 L32.7809907,29.8969621 C33.5668537,30.0171827 34.4229509,30.1279122 35.2233669,30.2259868 L35.2239996,30.2266196 C35.2322252,30.2278851 35.2410836,30.2285178 35.249942,30.2297833 C35.2632295,30.2316815 35.2771498,30.232947 35.2904373,30.2348452 L35.2898046,30.2342125 C38.2535584,30.5898123 41.1382198,30.7733069 44.0886861,31.1725658 C44.2139687,31.2326761 44.2538313,31.4389493 44.4797194,31.3598568 L42.0829005,35.3062558 C41.6456772,35.7422136 40.8768982,35.3492821 40.1593711,35.2271633 L34.4824284,35.2271633 C32.6354605,37.0918479 31.5117144,39.2444292 29.8286262,41.2938738 C29.4578406,41.7247697 28.8877419,41.8880166 28.4555805,42.2758862 C28.2898026,42.3391602 28.1689493,42.2353909 28.1278212,42.1132721 L28.0866931,36.0687074 C27.901933,35.2885391 27.3286707,34.366637 26.4896575,34.1799787 L17.0808146,34.2831153 C14.4340635,34.6747813 11.997382,35.6567937 9.76380998,36.9089861 C8.51288313,37.7062384 6.24387771,39.0419524 6.24387771,39.0419524 L3.27696014,40.9882604 C3.27696014,40.9882604 7.03227167,50.2597988 12.3169156,56.4903889 C12.94143,55.1065867 13.5184888,53.6892492 14.2309539,52.3801103 L15.9330244,48.2217434 C15.8083746,47.5023181 16.0760236,46.658243 15.3369834,46.1292724 C13.6557933,44.2051103 11.695565,43.9817531 9.52273607,43.2648587 L9.50438661,43.2490402 L6.33815596,41.8025967 C6.33815596,41.8025967 6.53177438,40.9933224 8.69068305,39.7809926 L10.1972368,39.4747465 L19.5377438,42.461279 C22.0187171,43.137678 24.3952883,44.1000755 27.2065519,44.020983 L27.2065519,44.081726 C30.7929218,44.3905031 34.9323065,44.8365848 37.8827728,42.8099187 C38.5541099,42.4252128 39.2963139,41.9468615 39.9638545,41.4444659 L39.9638545,41.4457314 C39.9708146,41.4406695 39.9777748,41.4343421 39.9847349,41.4292802 C39.994226,41.4216873 40.0049826,41.4147272 40.0151064,41.4071343 C40.0144737,41.4065015 40.0144737,41.4058688 40.0144737,41.4058688 C41.0123046,40.6434172 41.9354721,39.7499884 42.575805,38.7122949 C45.468692,33.4422039 48.8070279,28.1986881 51.9213738,23.0538796 C52.0029973,23.0538796 52.2073723,23.0741273 52.1478947,22.9292299 L52.7831656,22.9292299 C52.7641834,22.970358 52.7641834,23.0304683 52.8274574,23.0538796 L52.9483108,23.0538796 C53.1102922,23.6670046 52.7015422,24.0985333 52.558543,24.4864029 C52.1061339,24.9388119 52.066904,25.6133127 51.6942202,26.1897388 C51.2259926,27.6216293 50.3654663,29.1193247 49.6909656,30.4714899 C48.1496111,34.038245 46.346935,37.4626335 44.726488,40.9882604 C44.522113,41.9721711 44.1956192,43.3648317 45.2225561,44.081726 L48.7051567,43.9804876 C51.3474787,43.1977883 54.4997891,42.19363 57.1028812,41.269197 C59.3788467,42.0626529 60.6272426,42.7384191 62.020536,43.6394408 L61.7180863,43.9159481 C60.0179141,44.0399652 58.0722388,45.1877554 56.4929199,45.5952399 C56.4138274,46.108392 56.4530573,46.7050658 56.4340751,47.2353019 C56.4138274,48.6520066 58.7688854,48.7342628 58.3183746,50.3730592 C57.806488,50.5786997 57.6805728,50.0250522 57.2933359,49.9206502 C55.0578657,48.9987481 53.1919156,47.3814648 50.590089,47.4605573 C48.298305,47.6041892 45.9831095,47.8946169 43.609702,48.0192666 C42.5751722,48.0724168 41.4400368,48.1008901 40.3839938,48.0559656 C38.7009056,48.1774516 36.6932217,47.9547272 35.0765712,48.4046053 C34.870298,48.5482372 34.870298,48.8146207 34.8924439,49.079106 C34.7893073,49.0620221 34.7893073,49.1841409 34.7893073,49.2670298 C34.0306521,51.1494311 34.3160178,53.6297717 34.8924439,55.5564648 L34.8924439,56.9541873 C34.8481521,56.9307759 34.809555,56.9725368 34.7893073,56.9934172 C34.9728019,57.0554257 34.8481521,57.3015615 34.8924439,57.4445608 C34.7893073,57.6078077 34.4988796,57.5078348 34.2951374,57.5261842 C32.4329837,54.0201722 29.6267821,50.2895375 26.1169737,48.0559656 C24.5794156,47.524464 22.4913738,47.4814377 20.972798,48.0970937 C17.9634868,50.7033495 15.8507682,54.0397872 14.1303483,57.176279 C13.9557121,57.4338042 13.7690538,57.6869002 13.5779663,57.9437926 C29.2205631,75.5915422 53.957531,85.4325464 53.957531,85.4325464 C53.957531,85.4325464 59.8299903,82.9458785 67.6069969,78.4546904 C67.6171207,78.4489957 67.6266118,78.4433011 67.6367357,78.4376064 C67.6443286,78.4331772 67.6512887,78.4293808 67.6588816,78.4249516 C78.7590383,72.0089687 93.7942047,61.4725832 101.626892,48.0211649 C101.626892,48.0211649 103.729487,44.6701741 104.910813,41.0540654 C104.848804,41.0034462 103.73708,40.1555747 103.661151,40.1169776 C101.644609,39.1248413 100.900507,38.9938642 100.900507,38.9938642 C100.900507,38.9938642 99.294613,38.4376858 99.2965112,38.4376858 C98.8611861,38.4478096 98.3809365,38.3212616 98.2885565,38.1409307 C98.2448974,37.69738 98.5827806,36.7609249 98.4461087,35.7422136 C98.2917202,34.5994853 98.5612674,33.7066892 98.5612674,33.7066892 C102.379853,34.2122485 104.378678,35.2094466 106.323721,35.9611416 L106.323721,35.9611416 Z" id="Fill-51" sketch:type="MSShapeGroup"></path>
            </g>
        </g>
    </g>
</svg>