<?xml version="1.0" encoding="utf-8"?>
<!-- Generator: Adobe Illustrator 19.1.0, SVG Export Plug-In . SVG Version: 6.00 Build 0)  -->
<svg version="1.1" id="Calque_1" xmlns="http://www.w3.org/2000/svg" xmlns:xlink="http://www.w3.org/1999/xlink" x="0px" y="0px"
	 viewBox="0 0 232.5 185.5" enable-background="new 0 0 232.5 185.5" xml:space="preserve">
<g>
	<path fill="#FFFFFF" d="M26.4,123.4c0.4-1.2,0.7-2.6,0.4-3.8c-2.4-6-4.2-12.3-5.7-18.6c-0.3-1.8-0.1-3.9-0.6-5.6l-0.4-0.5
		c-0.5-0.1-0.5,0.7-0.8,1c-0.6,4.6-1.5,9.1-2.2,13.6c-0.9,3.5-2.1,6.9-3,10.5c0.1,1.4-0.3,3.1,0.6,4.3c1.3,2.4,4,3,6.5,2.9
		C23.6,127.2,25,125,26.4,123.4z"/>
	<path fill="#FFFFFF" d="M29.8,132.7c-0.3-1.7-0.1-3.6-0.5-5.1l-0.3-0.4c-0.5-0.1-0.4,0.6-0.7,0.9c-0.6,4.1-1.3,8.2-2,12.3
		c-0.9,3.2-1.9,6.3-2.7,9.5c0.1,1.2-0.3,2.8,0.6,3.9c1.2,2.1,3.7,2.7,5.9,2.6c2.1,0,3.3-2,4.6-3.4c0.3-1.1,0.6-2.3,0.3-3.4
		C32.8,144.2,31.2,138.5,29.8,132.7z"/>
	<path fill="#FFFFFF" d="M217.3,79.3c0.7-3.6,1-6.9,1-10.6c0-31.7-17.9-57.4-56.4-57.4c-17.2,0-34.3,8.1-45,16.6
		c-10.1-8-25.9-15.6-42-16.5l0,0c-0.1,0-0.2,0-0.2,0c0,0-0.1,0-0.1,0l0,0c-0.9,0-1.9-0.1-2.7-0.1c-38.5,0-56.4,25.7-56.4,57.4
		c0,3.3,0.3,6.6,0.9,9.8c2.1-1,4.2-1.9,6.3-2.8c4.4-1.3,8.9-2.6,13.1-4.1c2.1-0.8,1.4-3.2,1.7-4.8c-1.1-4.9-3.3-9.1-5.1-13.6
		c-1.8-2.4-1.9-5.3-3.5-7.7c-0.1-0.8-1.3-1.8-0.3-2.3l17.5,17.5c1.9,2.4,4.1,3.9,6.3,6.2l3.4,0.4l20.5,0.4c1.5,0.2,3.2,0.4,4.7,0.6
		l0,0c0,0,0,0,0.1,0c0.1,0,0.1,0,0.2,0l0,0c5.6,0.7,11.1,1,16.8,1.8c0.2,0.1,0.3,0.5,0.7,0.4l-4.6,7.6c-0.8,0.8-2.3,0.1-3.7-0.2
		h-5.6h-0.2h-5c-3.5,3.6-5.7,7.7-8.9,11.6c-0.7,0.8-1.8,1.1-2.6,1.9c-0.3,0.1-0.5-0.1-0.6-0.3l-0.1-11.6c-0.4-1.5-1.5-3.3-3.1-3.6
		l-18,0.2c-5.1,0.8-9.7,2.6-14,5c-2.4,1.5-6.7,4.1-6.7,4.1l-5.7,3.7c0,0,7.2,17.8,17.3,29.7c1.2-2.7,2.3-5.4,3.7-7.9l3.3-8
		c-0.2-1.4,0.3-3-1.1-4c-3.2-3.7-7-4.1-11.1-5.5l0,0l-6.1-2.8c0,0,0.4-1.6,4.5-3.9l2.9-0.6l17.9,5.7c4.8,1.3,9.3,3.1,14.7,3v0.1
		c6.9,0.6,14.8,1.5,20.5-2.4c1.3-0.7,2.7-1.7,4-2.6c0,0,0,0,0,0c0,0,0.1,0,0.1-0.1c0,0,0.1-0.1,0.1-0.1c0,0,0,0,0,0
		c1.9-1.4,3.6-3.1,4.8-5.1c5.5-10.1,11.9-20.2,17.9-30c0.2,0,0.5,0,0.4-0.2h1.2c0,0.1,0,0.2,0.1,0.2h0.2c0.3,1.2-0.5,2-0.7,2.8
		c-0.9,0.9-0.9,2.2-1.7,3.3c-0.9,2.8-2.6,5.6-3.8,8.2c-3,6.8-6.4,13.4-9.5,20.2c-0.4,1.9-1,4.6,1,5.9l6.7-0.2
		c5.1-1.5,11.1-3.4,16.1-5.2c4.4,1.5,6.8,2.8,9.4,4.5l-0.6,0.5c-3.3,0.2-7,2.4-10,3.2c-0.2,1-0.1,2.1-0.1,3.1c0,2.7,4.5,2.9,3.6,6
		c-1,0.4-1.2-0.7-2-0.9c-4.3-1.8-7.9-4.9-12.9-4.7c-4.4,0.3-8.8,0.8-13.4,1.1c-2,0.1-4.2,0.2-6.2,0.1c-3.2,0.2-7.1-0.2-10.2,0.7
		c-0.4,0.3-0.4,0.8-0.4,1.3c-0.2,0-0.2,0.2-0.2,0.4c-1.5,3.6-0.9,8.4,0.2,12.1v2.7c-0.1,0-0.2,0-0.2,0.1c0.4,0.1,0.1,0.6,0.2,0.9
		c-0.2,0.3-0.8,0.1-1.1,0.2c-3.6-6.7-8.9-13.9-15.7-18.2c-3-1-7-1.1-9.9,0.1c-5.8,5-9.8,11.4-13.1,17.4c-0.3,0.5-0.7,1-1.1,1.5
		c30,33.8,77.4,52.7,77.4,52.7s11.3-4.8,26.2-13.4l0,0c0,0,0,0,0.1,0c0,0,0,0,0,0l0,0c21.3-12.3,50.1-32.5,65.1-58.3
		c0,0,4-6.4,6.3-13.4c-0.1-0.1-2.2-1.7-2.4-1.8c-3.9-1.9-5.3-2.2-5.3-2.2s-3.1-1.1-3.1-1.1c-0.8,0-1.8-0.2-1.9-0.6
		c-0.1-0.9,0.6-2.6,0.3-4.6c-0.3-2.2,0.2-3.9,0.2-3.9C209.7,76,213.6,77.9,217.3,79.3z M145.6,80.4c1.8-1.5,3-1.3,5.7-2.8l0.7-0.3
		c0.5-0.1,1-0.6,1.4-0.9c2.1-4.9,0.7-10.8,0.5-16.1V48.7c0.4,0,0-0.7,0.4-0.7c0.6,0,0-1.1,0.6-1.2c2.3,7.3,4.8,15.1,8.1,22.2
		c1.7,2.1,3.1,5.4,6.3,5.3c6.1,0,11.4-1.5,17.1-0.9c1.5,0.2,3.1,0.2,4.4,0.5c-0.8,2-1.9,5.7-3.2,7.5c-2.1,0.1-3.4-0.1-5.1-0.2
		c-1.9-0.1-3.9,0.2-5.1,0.9c-1.5,2.2-3.8,4.2-5.9,5.5c-0.4-0.1-0.7-0.4-0.7-0.9c0-1.5,0.3-3.5-0.2-5c-2.1-1.5-5.2-0.4-7.8-0.6
		c-1.9,0.7-4,0.8-5.7,1.9c-2,1-3.2,1.1-5.3,1.8c-2.6-1.4-5.6-2.1-8.3-3.2C143.4,81,145.2,80.7,145.6,80.4z M201,68.9l-1.4,7.8
		c0,4.8-1.6,12.7-0.3,13.9c0.9-0.1,4,1.3,6.7,1.1c0.2-0.1,1.9,0.1,2.1,0.1c-0.9,3.1-3.6,6-4.8,8.7c-3.2,0.9-6.3,0.9-10,1.5
		c-5.2,0.6-8.7,1-18.7,0.9c-4,0.5-10.3-1.1-13.9-2.2c-2.7-0.8-4.3-1.7-7.1-2.2c-2.5,0.9-4.6,3.3-6.3,5.3c-2.5,2.9-4,6.3-6.4,9.4
		c-2.6,3.1-4.6,6.4-7.5,9.4c-0.5,0.1-1.3,0-1.3-0.7c0.2-3.2,2.2-5.7,3.1-8.6c1.8-6.3,4.3-12.3,4.9-19.1c-0.2-0.3-0.2-0.8-0.4-1.2
		c-1.2-1.1-2.6-1.5-3.9-2.2c-6.9-3.1-13.7-6.3-20.7-8.8c-3.1-0.6-4.2-1.8-7.6-1.4c1.2-2.1,1.7-3.3,2.9-5.3l1-2.3
		c4.7,0.6,7.5,2.6,11.9,3.8c1.7-0.2,3.8,0.4,5.2-0.5c2.6-2.3,3.7-5.7,6.1-8.4c0.5,0,0.9,0.6,1,1c0.3,4,0,8.6,0.6,12.6
		c2,2.8,5.3,3.3,8.1,4.7c9.1,3.2,18.4,5.8,27.8,8.4c5.5,0.2,11.6-0.2,14.4-3.4c2.4-5.7,6.5-11.6,8.1-17.7c3.3-7.8,7-18.1,8.7-22.9
		c0.8-2.4,1.2-4.7,1.7-5.7c0.4-1,1.1-0.1,1.1-0.1C204.9,52.3,202.8,59.2,201,68.9z"/>
</g>
</svg>
