<?xml version="1.0" encoding="UTF-8" standalone="no"?>
<svg width="50px" height="50px" viewBox="0 0 50 50" version="1.1" xmlns="http://www.w3.org/2000/svg" xmlns:xlink="http://www.w3.org/1999/xlink" xmlns:sketch="http://www.bohemiancoding.com/sketch/ns">
    <!-- Generator: Sketch 3.3.3 (12081) - http://www.bohemiancoding.com/sketch -->
    <title>twitter</title>
    <desc>Created with Sketch.</desc>
    <defs></defs>
    <g id="Page-1" stroke="none" stroke-width="1" fill="none" fill-rule="evenodd" sketch:type="MSPage">
        <g id="twitter" sketch:type="MSArtboardGroup" fill="#434343">
            <path d="M48.7964873,10.0075031 C48.5869578,9.74137654 48.2539986,9.60771118 47.9192331,9.65587888 C47.7205414,9.6841774 47.4694672,9.73354929 47.1443353,9.80459664 C46.842083,9.87022513 46.472998,9.95752908 46.0611642,10.0598854 C46.2189134,9.69862771 46.3519766,9.32291967 46.4705896,8.93095503 C46.6638625,8.28671207 46.8246222,7.60152657 46.9914028,6.87479643 C47.0756963,6.51052822 46.9384184,6.1312076 46.6397786,5.90481942 C46.3405368,5.67903334 45.9383365,5.65073482 45.609592,5.83136368 C44.1332521,6.64599987 43.0296097,7.16259843 42.0752872,7.50037441 C41.2702845,7.78456382 40.5652299,7.94652771 39.7891278,8.05671131 C38.8787584,7.1987242 37.8576032,6.53882674 36.7623901,6.08725458 C35.5262866,5.57487069 34.2016749,5.32500076 32.8487647,5.32500076 C31.2303301,5.32560286 29.5709529,5.68083963 27.9495078,6.36421884 L27.9495078,6.36421884 C27.1613638,6.69657595 26.4286127,7.18969276 25.7657048,7.79178898 C24.772246,8.6967396 23.9347302,9.84975386 23.3356444,11.1352293 C22.7365587,12.4207047 22.375301,13.8398455 22.3746989,15.2782534 C22.3746989,15.4293795 22.3801177,15.5811078 22.3873429,15.7316318 C22.3620548,15.7250088 22.3385731,15.7189878 22.3138871,15.7123648 C20.5924941,15.2559758 17.9414644,14.3528315 15.3103039,13.179346 C14.2313475,12.7000774 12.7393531,11.7427444 11.2840865,10.5096513 C9.82460525,9.27836455 8.38860577,7.76650094 7.35059188,6.1944277 C7.19404686,5.9565997 6.93936016,5.80306516 6.65637494,5.77416454 C6.37338972,5.74526392 6.09221078,5.8452119 5.89111064,6.04631203 C5.43953848,6.49547582 5.05780948,6.9121264 4.73026913,7.3269707 C4.24016281,7.94833399 3.87649669,8.57692245 3.63084143,9.26150585 C3.38398198,9.94608925 3.25513339,10.6686047 3.17686088,11.4958849 C3.12327432,12.0540281 3.08775064,12.6543181 3.08775064,13.2738751 C3.09015903,14.6412356 3.25814387,16.1073399 3.84458559,17.4367683 C3.3978302,17.4903549 3.04259343,17.8522147 3.01128442,18.3086037 C2.98659848,18.6656467 2.97455655,19.0148625 2.97455655,19.3574553 C2.97275026,22.4419942 3.95657549,24.9527354 5.5003502,26.695804 C5.65087425,26.8667993 5.80802137,27.0263548 5.96878106,27.1828998 C5.96817896,27.190125 5.96697477,27.196146 5.96697477,27.2045753 C5.96516848,27.2665912 5.96456638,27.3274029 5.96456638,27.3888168 C5.96396429,28.5659149 6.26862497,29.6707614 6.78462144,30.6479636 C7.55891717,32.1164763 8.78899975,33.3068205 10.2069364,34.1762474 C10.730158,34.4959605 11.2798718,34.7717206 11.8458423,35.0029256 C9.46093913,35.7639752 7.49449288,35.9385831 5.87425195,35.9403894 C5.15474697,35.9403894 4.50207466,35.9042636 3.90539731,35.869342 C3.30871996,35.8326141 2.76863965,35.7934779 2.26107253,35.7934779 C2.14005119,35.7934779 2.02143824,35.7964884 1.90402947,35.8013051 C1.61923796,35.8145513 1.3585303,35.9524313 1.18873916,36.1800237 C1.01834593,36.4082181 0.959340504,36.6966222 1.02617318,36.9735865 C1.30675002,38.115763 1.98531246,39.154379 2.92217418,40.0719736 C4.33348772,41.4471614 6.34569329,42.5803065 8.76310961,43.390728 C11.1799238,44.1975369 14.0049593,44.6749992 17.037718,44.6749992 C21.4589105,44.6749992 26.3262564,43.6580587 30.9678161,41.1334693 C35.2089819,38.8214198 38.7372657,35.0354388 40.8590528,30.8147442 C41.5912018,29.355263 42.3913877,27.4694976 43.0157615,25.4651193 C43.6389311,23.4601389 44.0917074,21.3449749 44.0929116,19.3911727 C44.0929116,18.7282647 44.0381209,18.0834197 43.9158953,17.466271 C44.4529652,17.0803274 44.9322338,16.7046193 45.365743,16.3240945 C46.2249343,15.57027 46.9028947,14.7911575 47.4664567,13.9163117 C48.031223,13.0402617 48.4827952,12.0787141 48.932561,10.9431606 C49.0590013,10.6288664 49.007221,10.2736296 48.7964873,10.0075031 L48.7964873,10.0075031 Z" id="Shape" sketch:type="MSShapeGroup"></path>
        </g>
    </g>
</svg>