<?xml version="1.0" encoding="UTF-8" standalone="no"?>
<svg width="100px" height="50px" viewBox="0 0 100 50" version="1.1" xmlns="http://www.w3.org/2000/svg" xmlns:xlink="http://www.w3.org/1999/xlink" xmlns:sketch="http://www.bohemiancoding.com/sketch/ns">
    <!-- Generator: Sketch 3.3.3 (12081) - http://www.bohemiancoding.com/sketch -->
    <title>youtube</title>
    <desc>Created with Sketch.</desc>
    <defs>
        <path id="path-1" d="M0.0113545817,0.172639881 L94.8151096,0.172639881 L94.8151096,39.2676236 L0.0113545817,39.2676236"></path>
        <path id="path-3" d="M0.0113545817,0.172639881 L94.8151096,0.172639881 L94.8151096,39.2676236 L0.0113545817,39.2676236 L0.0113545817,0.172639881 Z"></path>
    </defs>
    <g id="Page-1" stroke="none" stroke-width="1" fill="none" fill-rule="evenodd" sketch:type="MSPage">
        <g id="youtube" sketch:type="MSArtboardGroup">
            <g id="Link---YouTube" sketch:type="MSLayerGroup" transform="translate(2.500000, 5.360577)">
                <mask id="mask-2" sketch:name="Clip 2" fill="white">
                    <use xlink:href="#path-1"></use>
                </mask>
                <g id="Clip-2"></g>
                <path d="M94.2507869,8.60898787 C94.2507869,8.60898787 93.6985757,4.77742995 92.0042829,3.09012294 C89.8556175,0.875731227 87.4465538,0.8645087 86.3421315,0.735075549 C78.4346116,0.172639881 66.5728586,0.172639881 66.5728586,0.172639881 L66.5480677,0.172639881 C66.5480677,0.172639881 54.6861255,0.172639881 46.7786056,0.735075549 C45.6738048,0.8645087 43.2656873,0.875731227 41.1164542,3.09012294 C39.4219721,4.77742995 38.8705179,8.60898787 38.8705179,8.60898787 C38.8705179,8.60898787 38.3054382,13.1082862 38.3054382,17.6079586 L38.3054382,21.8263196 C38.3054382,26.3254309 38.8705179,30.8247292 38.8705179,30.8247292 C38.8705179,30.8247292 39.4219721,34.6561 41.1164542,36.3435941 C43.2656873,38.5585469 46.0899502,38.4880321 47.3472809,38.7199643 C51.8681076,39.1469815 66.5603685,39.2788462 66.5603685,39.2788462 C66.5603685,39.2788462 78.4346116,39.2612642 86.3421315,38.6992026 C87.4465538,38.5693954 89.8556175,38.5585469 92.0042829,36.3435941 C93.6985757,34.6561 94.2507869,30.8247292 94.2507869,30.8247292 C94.2507869,30.8247292 94.8151096,26.3254309 94.8151096,21.8263196 L94.8151096,17.6079586 C94.8151096,13.1082862 94.2507869,8.60898787 94.2507869,8.60898787 Z M83.2669323,18.1576754 C83.2669323,16.4095797 83.7519622,15.9328093 84.8961255,15.9328093 C86.0319622,15.9328093 86.4840637,16.4522253 86.4840637,18.1810556 L86.4840637,20.2228075 L83.2669323,20.2263613 L83.2669323,18.1576754 Z M90.0863048,23.0284393 L90.0855478,19.2047372 C90.0855478,17.2071273 89.6875697,15.7457672 88.9712849,14.8004563 C88.0108765,13.5214622 86.6466235,12.8445568 84.9279183,12.8445568 C83.1789343,12.8445568 81.8146813,13.5214622 80.8238048,14.8004563 C80.0959761,15.7457672 79.6713147,17.289987 79.6713147,19.2875968 L79.6713147,25.8340712 C79.6713147,27.8202715 80.1381773,29.2107427 80.866006,30.1459533 C81.856504,31.4230769 83.220757,32.0605165 85.0130777,32.0605165 C86.8031275,32.0605165 88.2090139,31.3916538 89.156743,30.0344762 C89.5732669,29.4353803 89.8423705,28.7562303 89.957998,28.0056303 C89.9888446,27.6665229 90.0796813,26.894226 90.0796813,25.8030222 L90.0796813,25.2729448 L86.484253,25.2729448 C86.484253,26.6316188 86.4903088,27.4392667 86.4585159,27.6238773 C86.2630279,28.5289741 85.7713745,28.9823642 84.9279183,28.9823642 C83.7519622,28.9823642 83.2551992,28.1133665 83.2669323,26.3873418 L83.2669323,23.0284393 L90.0863048,23.0284393 Z M73.8047809,26.3951976 C73.8047809,28.2656188 73.3587351,28.9823642 72.3706972,28.9823642 C71.8065637,28.9823642 71.1567032,28.6954416 70.5836753,28.1292651 L70.5876494,16.7859084 C71.160488,16.2270266 71.8065637,15.9328093 72.3706972,15.9328093 C73.3587351,15.9328093 73.8047809,16.481965 73.8047809,18.3523862 L73.8047809,26.3951976 Z M74.2035159,12.8151912 C72.9431574,12.8151912 71.6903685,13.5813157 70.5836753,14.9272708 L70.5876494,6.7557745 L67.1812749,6.7557745 L67.1812749,31.8194192 L70.5876494,31.8194192 L70.5923805,29.9362791 C71.7371116,31.3361023 72.9853586,32.0605165 74.2035159,32.0605165 C75.5677689,32.0605165 76.5647012,31.3387209 77.0219124,29.9489979 C77.2507072,29.1566875 77.4003984,27.9367988 77.4003984,26.2081554 L77.4003984,18.7264705 C77.4003984,16.9561168 77.1708466,15.7457672 76.9420518,14.9940449 C76.4848406,13.5940346 75.5677689,12.8151912 74.2035159,12.8151912 Z M64.3426295,31.8194192 L60.747012,31.8194192 L60.747012,29.7619558 C59.3838944,31.3061756 58.2283765,32.0861413 56.9687749,32.0861413 C55.8635956,32.0861413 55.0962151,31.5708402 54.7118625,30.6399315 C54.4783367,30.073755 54.312749,29.189981 54.312749,27.8915346 L54.312749,13.1152067 L57.9083665,13.1152067 L57.9083665,26.9563239 L57.9083665,28.2656188 C57.9922012,28.7906461 58.2177789,28.9823642 58.67499,28.9823642 C59.3632669,28.9823642 59.9860657,28.3913111 60.747012,27.3304082 L60.747012,13.1152067 L64.3426295,13.1152067 L64.3426295,31.8194192 Z M50.7171315,31.8194192 L46.9322709,31.8194192 L46.9322709,10.3095749 L42.9581673,10.3095749 L42.9581673,6.75970238 L54.8804781,6.7557745 L54.8804781,10.3095749 L50.7171315,10.3095749 L50.7171315,31.8194192 Z" id="Fill-1" fill="#434343" sketch:type="MSShapeGroup" mask="url(#mask-2)"></path>
                <path d="M35.3884462,31.8194192 L31.7928287,31.8194192 L31.7928287,29.7619558 C30.4297112,31.3061756 29.2741932,32.0861413 28.0145916,32.0861413 C26.9094124,32.0861413 26.1420319,31.5708402 25.7576793,30.6399315 C25.5241534,30.073755 25.3585657,29.189981 25.3585657,27.8915346 L25.3585657,12.9281646 L28.9541833,12.9281646 L28.9541833,26.9563239 L28.9541833,28.2656188 C29.0380179,28.7906461 29.2635956,28.9823642 29.7208068,28.9823642 C30.4090837,28.9823642 31.0318825,28.3913111 31.7928287,27.3304082 L31.7928287,12.9281646 L35.3884462,12.9281646 L35.3884462,31.8194192" id="Fill-4" fill="#434343" sketch:type="MSShapeGroup" mask="url(#mask-2)"></path>
                <mask id="mask-4" sketch:name="Clip 6" fill="white">
                    <use xlink:href="#path-3"></use>
                </mask>
                <g id="Clip-6"></g>
                <path d="M19.1135458,26.2081554 C19.3027888,28.0785767 18.715757,29.0066797 17.5992231,29.0066797 C16.4828785,29.0066797 15.8964143,28.0785767 16.0856574,26.2081554 L16.0856574,18.7264705 C15.8964143,16.8560492 16.4830677,15.9793828 17.5996016,15.9793828 C18.7161355,15.9793828 19.3046813,16.8560492 19.1154382,18.7264705 L19.1135458,26.2081554 L19.1135458,26.2081554 Z M22.7091633,19.1005547 C22.7091633,17.0818091 22.2988845,15.5658326 21.5737052,14.6115437 C20.615757,13.3194567 19.1135458,12.7905016 17.5996016,12.7905016 C15.886006,12.7905016 14.5819323,13.3194567 13.625498,14.6115437 C12.8887749,15.5658326 12.4936355,17.0982688 12.4936355,19.1170144 L12.4900398,25.8340712 C12.4900398,27.8415943 12.8414641,29.2286987 13.5783765,30.1736355 C14.5348108,31.4617946 16.0856574,32.1443114 17.5996016,32.1443114 C19.1135458,32.1443114 20.6916434,31.4617946 21.6494024,30.1736355 C22.3745817,29.2286987 22.7091633,27.8415943 22.7091633,25.8340712 L22.7091633,19.1005547 L22.7091633,19.1005547 Z" id="Fill-5" fill="#434343" sketch:type="MSShapeGroup" mask="url(#mask-4)"></path>
                <path d="M8.51593625,21.5321023 L8.51593625,31.8194192 L4.7310757,31.8194192 L4.7310757,21.5321023 C4.7310757,21.5321023 0.809013944,8.91966484 0,6.56873237 L3.97410359,6.56873237 L6.63012948,16.4213633 L9.27290837,6.56873237 L13.247012,6.56873237 L8.51593625,21.5321023" id="Fill-7" fill="#434343" sketch:type="MSShapeGroup" mask="url(#mask-4)"></path>
            </g>
        </g>
    </g>
</svg>